<mxfile host="app.diagrams.net" modified="2021-10-27T08:39:56.898Z" agent="5.0 (Windows NT 10.0; Win64; x64) AppleWebKit/537.36 (KHTML, like Gecko) Chrome/95.0.4638.54 Safari/537.36" etag="ETaXn7Q0Dmq0Yf9bGIFQ" version="14.9.3" type="github" pages="5">
  <diagram id="7S-zkjWdKcen9QKRVOOr" name="UML User Cases Full">
    <mxGraphModel dx="5590" dy="3640" grid="1" gridSize="10" guides="1" tooltips="1" connect="1" arrows="1" fold="1" page="1" pageScale="1" pageWidth="850" pageHeight="1100" math="0" shadow="0">
      <root>
        <mxCell id="0" />
        <mxCell id="1" parent="0" />
        <UserObject label="" lucidchartObjectId="3ELl95lbGf7W" id="JTkeMlUniIJy2eu13IBk-2">
          <mxCell style="html=1;overflow=block;blockSpacing=1;whiteSpace=wrap;;whiteSpace=wrap;fontSize=13;align=center;spacing=3.8;strokeColor=#5e5e5e;strokeOpacity=100;fillOpacity=100;rounded=1;absoluteArcSize=1;arcSize=9;fillColor=#e5e5e5;strokeWidth=2.3;" parent="1" vertex="1">
            <mxGeometry x="540" y="-435" width="1810" height="2820" as="geometry" />
          </mxCell>
        </UserObject>
        <UserObject label="Get Informations" lucidchartObjectId="a8KlBbp7x2-D" id="JTkeMlUniIJy2eu13IBk-3">
          <mxCell style="html=1;overflow=block;blockSpacing=1;whiteSpace=wrap;ellipse;whiteSpace=wrap;fontSize=23.3;spacing=3.8;strokeColor=#5e5e5e;strokeOpacity=100;fillOpacity=100;rounded=1;absoluteArcSize=1;arcSize=9;fillColor=#ffdba9;strokeWidth=2.3;" parent="1" vertex="1">
            <mxGeometry x="585" y="240" width="315" height="75" as="geometry" />
          </mxCell>
        </UserObject>
        <UserObject label="Register" lucidchartObjectId="A8KlpCWkmG7h" id="JTkeMlUniIJy2eu13IBk-4">
          <mxCell style="html=1;overflow=block;blockSpacing=1;whiteSpace=wrap;ellipse;whiteSpace=wrap;fontSize=23.3;spacing=3.8;strokeColor=#5e5e5e;strokeOpacity=100;fillOpacity=100;rounded=1;absoluteArcSize=1;arcSize=9;fillColor=#ffdba9;strokeWidth=2.3;" parent="1" vertex="1">
            <mxGeometry x="585" y="360" width="315" height="75" as="geometry" />
          </mxCell>
        </UserObject>
        <UserObject label="Visitor" lucidchartObjectId="Y8KlxJXvXmYg" id="JTkeMlUniIJy2eu13IBk-5">
          <mxCell style="html=1;overflow=block;blockSpacing=1;whiteSpace=wrap;shape=umlActor;labelPosition=center;verticalLabelPosition=bottom;verticalAlign=top;whiteSpace=nowrap;whiteSpace=wrap;fontSize=23.3;fontColor=#333333;align=center;spacing=0;strokeColor=#5e5e5e;strokeOpacity=100;fillOpacity=100;rounded=1;absoluteArcSize=1;arcSize=9;fillColor=#ffdba9;strokeWidth=2.3;" parent="1" vertex="1">
            <mxGeometry x="270" y="285" width="60" height="135" as="geometry" />
          </mxCell>
        </UserObject>
        <UserObject label="Regitered User" lucidchartObjectId="Q9KlFrLedxem" id="JTkeMlUniIJy2eu13IBk-6">
          <mxCell style="html=1;overflow=block;blockSpacing=1;whiteSpace=wrap;shape=umlActor;labelPosition=center;verticalLabelPosition=bottom;verticalAlign=top;whiteSpace=nowrap;whiteSpace=wrap;fontSize=23.3;fontColor=#333333;align=center;spacing=0;strokeColor=#5e5e5e;strokeOpacity=100;fillOpacity=100;rounded=1;absoluteArcSize=1;arcSize=9;fillColor=#a3d977;strokeWidth=2.3;" parent="1" vertex="1">
            <mxGeometry x="270" y="570" width="60" height="135" as="geometry" />
          </mxCell>
        </UserObject>
        <UserObject label="Order Book" lucidchartObjectId="4-KlAi1zP3Yo" id="JTkeMlUniIJy2eu13IBk-7">
          <mxCell style="html=1;overflow=block;blockSpacing=1;whiteSpace=wrap;ellipse;whiteSpace=wrap;fontSize=23.3;spacing=3.8;strokeColor=#5e5e5e;strokeOpacity=100;fillOpacity=100;rounded=1;absoluteArcSize=1;arcSize=9;fillColor=#a3d977;strokeWidth=2.3;" parent="1" vertex="1">
            <mxGeometry x="586" y="600" width="315" height="60" as="geometry" />
          </mxCell>
        </UserObject>
        <UserObject label="Reserve Book" lucidchartObjectId="p_Kl38Mi0tr~" id="JTkeMlUniIJy2eu13IBk-8">
          <mxCell style="html=1;overflow=block;blockSpacing=1;whiteSpace=wrap;ellipse;whiteSpace=wrap;fontSize=23.3;spacing=3.8;strokeColor=#5e5e5e;strokeOpacity=100;fillOpacity=100;rounded=1;absoluteArcSize=1;arcSize=9;fillColor=#a3d977;strokeWidth=2.3;" parent="1" vertex="1">
            <mxGeometry x="586" y="986" width="315" height="60" as="geometry" />
          </mxCell>
        </UserObject>
        <UserObject label="Admin" lucidchartObjectId="4_KlheYxuX7Y" id="JTkeMlUniIJy2eu13IBk-9">
          <mxCell style="html=1;overflow=block;blockSpacing=1;whiteSpace=wrap;shape=umlActor;labelPosition=center;verticalLabelPosition=bottom;verticalAlign=top;whiteSpace=nowrap;whiteSpace=wrap;fontSize=23.3;fontColor=#333333;align=center;spacing=0;strokeColor=#5e5e5e;strokeOpacity=100;fillOpacity=100;rounded=1;absoluteArcSize=1;arcSize=9;fillColor=#99d2f2;strokeWidth=2.3;" parent="1" vertex="1">
            <mxGeometry x="300" y="1609" width="60" height="135" as="geometry" />
          </mxCell>
        </UserObject>
        <UserObject label="CRUD Users" lucidchartObjectId="b.KlMfVkq2Jr" id="JTkeMlUniIJy2eu13IBk-10">
          <mxCell style="html=1;overflow=block;blockSpacing=1;whiteSpace=wrap;ellipse;whiteSpace=wrap;fontSize=23.3;spacing=3.8;strokeColor=#5e5e5e;strokeOpacity=100;fillOpacity=100;rounded=1;absoluteArcSize=1;arcSize=9;fillColor=#99d2f2;strokeWidth=2.3;" parent="1" vertex="1">
            <mxGeometry x="586" y="2100" width="315" height="60" as="geometry" />
          </mxCell>
        </UserObject>
        <UserObject label="CRUD Books" lucidchartObjectId="m.KlKD7QrPw_" id="JTkeMlUniIJy2eu13IBk-11">
          <mxCell style="html=1;overflow=block;blockSpacing=1;whiteSpace=wrap;ellipse;whiteSpace=wrap;fontSize=23.3;spacing=3.8;strokeColor=#5e5e5e;strokeOpacity=100;fillOpacity=100;rounded=1;absoluteArcSize=1;arcSize=9;fillColor=#99d2f2;strokeWidth=2.3;" parent="1" vertex="1">
            <mxGeometry x="586" y="1485" width="315" height="60" as="geometry" />
          </mxCell>
        </UserObject>
        <UserObject label="" lucidchartObjectId="j~KlWuHic4bn" id="JTkeMlUniIJy2eu13IBk-12">
          <mxCell style="html=1;jettySize=18;whiteSpace=wrap;fontSize=13;strokeColor=#5E5E5E;strokeWidth=1.5;rounded=1;arcSize=12;edgeStyle=orthogonalEdgeStyle;startArrow=none;;endArrow=none;;exitX=1;exitY=0.323;exitPerimeter=0;entryX=-0.004;entryY=0.5;entryPerimeter=0;" parent="1" source="JTkeMlUniIJy2eu13IBk-5" target="JTkeMlUniIJy2eu13IBk-3" edge="1">
            <mxGeometry width="100" height="100" relative="1" as="geometry">
              <Array as="points" />
            </mxGeometry>
          </mxCell>
        </UserObject>
        <UserObject label="" lucidchartObjectId="m~KlH8DpsT69" id="JTkeMlUniIJy2eu13IBk-13">
          <mxCell style="html=1;jettySize=18;whiteSpace=wrap;fontSize=13;strokeColor=#5E5E5E;strokeWidth=1.5;rounded=1;arcSize=12;edgeStyle=orthogonalEdgeStyle;startArrow=none;;endArrow=none;;exitX=1;exitY=0.323;exitPerimeter=0;entryX=-0.004;entryY=0.5;entryPerimeter=0;" parent="1" source="JTkeMlUniIJy2eu13IBk-5" target="JTkeMlUniIJy2eu13IBk-4" edge="1">
            <mxGeometry width="100" height="100" relative="1" as="geometry">
              <Array as="points" />
            </mxGeometry>
          </mxCell>
        </UserObject>
        <UserObject label="" lucidchartObjectId="B~KlyCCl5tz0" id="JTkeMlUniIJy2eu13IBk-14">
          <mxCell style="html=1;jettySize=18;whiteSpace=wrap;fontSize=13;strokeColor=#5E5E5E;strokeWidth=1.5;rounded=1;arcSize=12;edgeStyle=orthogonalEdgeStyle;startArrow=none;;endArrow=none;;exitX=1;exitY=0.321;exitPerimeter=0;entryX=-0.004;entryY=0.5;entryPerimeter=0;" parent="1" source="JTkeMlUniIJy2eu13IBk-6" target="JTkeMlUniIJy2eu13IBk-7" edge="1">
            <mxGeometry width="100" height="100" relative="1" as="geometry">
              <Array as="points">
                <mxPoint x="584" y="613" />
              </Array>
            </mxGeometry>
          </mxCell>
        </UserObject>
        <UserObject label="" lucidchartObjectId="E~Kl81oTazK6" id="JTkeMlUniIJy2eu13IBk-15">
          <mxCell style="html=1;jettySize=18;whiteSpace=wrap;fontSize=13;strokeColor=#5E5E5E;strokeWidth=1.5;rounded=1;arcSize=12;edgeStyle=orthogonalEdgeStyle;startArrow=none;;endArrow=none;;exitX=1;exitY=0.321;exitPerimeter=0;entryX=-0.004;entryY=0.5;entryPerimeter=0;" parent="1" source="JTkeMlUniIJy2eu13IBk-6" target="JTkeMlUniIJy2eu13IBk-8" edge="1">
            <mxGeometry width="100" height="100" relative="1" as="geometry">
              <Array as="points" />
            </mxGeometry>
          </mxCell>
        </UserObject>
        <UserObject label="" lucidchartObjectId="H~KlzR6Ozc4N" id="JTkeMlUniIJy2eu13IBk-16">
          <mxCell style="html=1;jettySize=18;whiteSpace=wrap;fontSize=13;strokeColor=#5E5E5E;strokeWidth=1.5;rounded=1;arcSize=12;edgeStyle=orthogonalEdgeStyle;startArrow=none;;endArrow=none;;exitX=1;exitY=0.321;exitPerimeter=0;entryX=-0.004;entryY=0.5;entryPerimeter=0;" parent="1" source="JTkeMlUniIJy2eu13IBk-9" target="JTkeMlUniIJy2eu13IBk-10" edge="1">
            <mxGeometry width="100" height="100" relative="1" as="geometry">
              <Array as="points" />
            </mxGeometry>
          </mxCell>
        </UserObject>
        <UserObject label="" lucidchartObjectId="K~Kl96OmU~dD" id="JTkeMlUniIJy2eu13IBk-17">
          <mxCell style="html=1;jettySize=18;whiteSpace=wrap;fontSize=13;strokeColor=#5E5E5E;strokeWidth=1.5;rounded=1;arcSize=12;edgeStyle=orthogonalEdgeStyle;startArrow=none;;endArrow=none;;exitX=1;exitY=0.321;exitPerimeter=0;entryX=-0.004;entryY=0.5;entryPerimeter=0;" parent="1" source="JTkeMlUniIJy2eu13IBk-9" target="JTkeMlUniIJy2eu13IBk-11" edge="1">
            <mxGeometry width="100" height="100" relative="1" as="geometry">
              <Array as="points" />
            </mxGeometry>
          </mxCell>
        </UserObject>
        <UserObject label="" lucidchartObjectId="OdLl7JB34Oz7" id="JTkeMlUniIJy2eu13IBk-18">
          <mxCell style="html=1;jettySize=18;whiteSpace=wrap;fontSize=13;strokeColor=#5E5E5E;strokeWidth=1.5;rounded=1;arcSize=12;edgeStyle=orthogonalEdgeStyle;startArrow=none;;endArrow=block;endFill=1;;exitX=0.5;exitY=-0.008;exitPerimeter=0;" parent="1" source="JTkeMlUniIJy2eu13IBk-6" edge="1">
            <mxGeometry width="100" height="100" relative="1" as="geometry">
              <Array as="points" />
              <mxPoint x="300" y="420" as="targetPoint" />
            </mxGeometry>
          </mxCell>
        </UserObject>
        <UserObject label="My Neighborhood Library" lucidchartObjectId="ReLl.DpzkUiB" id="JTkeMlUniIJy2eu13IBk-19">
          <mxCell style="html=1;overflow=block;blockSpacing=1;whiteSpace=wrap;;whiteSpace=wrap;fontSize=50;fontColor=#333333;fontStyle=1;align=center;spacing=3.8;strokeOpacity=0;fillOpacity=0;rounded=1;absoluteArcSize=1;arcSize=9;fillColor=#ffffff;strokeWidth=6;" parent="1" vertex="1">
            <mxGeometry x="1320" y="-390" width="495" height="185" as="geometry" />
          </mxCell>
        </UserObject>
        <UserObject label="Comment" lucidchartObjectId="mALl4-oiVJbZ" id="JTkeMlUniIJy2eu13IBk-20">
          <mxCell style="html=1;overflow=block;blockSpacing=1;whiteSpace=wrap;ellipse;whiteSpace=wrap;fontSize=23.3;spacing=3.8;strokeColor=#5e5e5e;strokeOpacity=100;fillOpacity=100;rounded=1;absoluteArcSize=1;arcSize=9;fillColor=#a3d977;strokeWidth=2.3;" parent="1" vertex="1">
            <mxGeometry x="1321" y="705" width="315" height="60" as="geometry" />
          </mxCell>
        </UserObject>
        <UserObject label="" lucidchartObjectId="iCLl6c5xNZNg" id="JTkeMlUniIJy2eu13IBk-21">
          <mxCell style="html=1;jettySize=18;whiteSpace=wrap;fontSize=13;strokeColor=#5E5E5E;dashed=1;fixDash=1;strokeWidth=1.5;rounded=1;arcSize=12;edgeStyle=orthogonalEdgeStyle;startArrow=none;;endArrow=block;endFill=1;;exitX=-0.004;exitY=0.5;exitPerimeter=0;entryX=1.004;entryY=0.5;entryPerimeter=0;" parent="1" source="JTkeMlUniIJy2eu13IBk-20" target="JTkeMlUniIJy2eu13IBk-7" edge="1">
            <mxGeometry width="100" height="100" relative="1" as="geometry">
              <Array as="points" />
            </mxGeometry>
          </mxCell>
        </UserObject>
        <mxCell id="JTkeMlUniIJy2eu13IBk-22" value="&amp;lt;&amp;lt;extend&amp;gt;&amp;gt;" style="text;html=1;resizable=0;labelBackgroundColor=#ffffff;align=center;verticalAlign=middle;fontStyle=1;fontColor=#333333;;fontSize=21.7;" parent="JTkeMlUniIJy2eu13IBk-21" vertex="1">
          <mxGeometry x="0.6985828799179998" relative="1" as="geometry">
            <mxPoint y="-116.5" as="offset" />
          </mxGeometry>
        </mxCell>
        <UserObject label="" lucidchartObjectId="SCLlK1LWP5ES" id="JTkeMlUniIJy2eu13IBk-23">
          <mxCell style="html=1;jettySize=18;whiteSpace=wrap;fontSize=13;strokeColor=#5E5E5E;dashed=1;fixDash=1;strokeWidth=1.5;rounded=1;arcSize=12;edgeStyle=orthogonalEdgeStyle;startArrow=none;;endArrow=block;endFill=1;;exitX=-0.004;exitY=0.5;exitPerimeter=0;entryX=0.5;entryY=-0.019;entryPerimeter=0;" parent="1" source="JTkeMlUniIJy2eu13IBk-20" target="JTkeMlUniIJy2eu13IBk-8" edge="1">
            <mxGeometry width="100" height="100" relative="1" as="geometry">
              <Array as="points">
                <mxPoint x="1111" y="735" />
                <mxPoint x="1111" y="930" />
                <mxPoint x="744" y="930" />
              </Array>
            </mxGeometry>
          </mxCell>
        </UserObject>
        <mxCell id="JTkeMlUniIJy2eu13IBk-24" value="&amp;lt;&amp;lt;extend&amp;gt;&amp;gt;" style="text;html=1;resizable=0;labelBackgroundColor=#ffffff;align=center;verticalAlign=middle;fontStyle=1;fontColor=#333333;;fontSize=23.3;" parent="JTkeMlUniIJy2eu13IBk-23" vertex="1">
          <mxGeometry x="0.46978007290608836" relative="1" as="geometry">
            <mxPoint y="-261.36" as="offset" />
          </mxGeometry>
        </mxCell>
        <UserObject label="Note Book" lucidchartObjectId="~-LlOTwTLGUb" id="JTkeMlUniIJy2eu13IBk-25">
          <mxCell style="html=1;overflow=block;blockSpacing=1;whiteSpace=wrap;ellipse;whiteSpace=wrap;fontSize=23.3;spacing=3.8;strokeColor=#5e5e5e;strokeOpacity=100;fillOpacity=100;rounded=1;absoluteArcSize=1;arcSize=9;fillColor=#a3d977;strokeWidth=2.3;" parent="1" vertex="1">
            <mxGeometry x="1321" y="825" width="315" height="60" as="geometry" />
          </mxCell>
        </UserObject>
        <UserObject label="Modarate Comments" lucidchartObjectId="KaMliEiTIFQS" id="JTkeMlUniIJy2eu13IBk-26">
          <mxCell style="html=1;overflow=block;blockSpacing=1;whiteSpace=wrap;ellipse;whiteSpace=wrap;fontSize=23.3;spacing=3.8;strokeColor=#5e5e5e;strokeOpacity=100;fillOpacity=100;rounded=1;absoluteArcSize=1;arcSize=9;fillColor=#99d2f2;strokeWidth=2.3;" parent="1" vertex="1">
            <mxGeometry x="586" y="2265" width="315" height="60" as="geometry" />
          </mxCell>
        </UserObject>
        <UserObject label="Pay Penalty" lucidchartObjectId="rbMlawj3ws9Q" id="JTkeMlUniIJy2eu13IBk-27">
          <mxCell style="html=1;overflow=block;blockSpacing=1;whiteSpace=wrap;ellipse;whiteSpace=wrap;fontSize=23.3;spacing=3.8;strokeColor=#5e5e5e;strokeOpacity=100;fillOpacity=100;rounded=1;absoluteArcSize=1;arcSize=9;fillColor=#a3d977;strokeWidth=2.3;" parent="1" vertex="1">
            <mxGeometry x="586" y="780" width="300" height="60" as="geometry" />
          </mxCell>
        </UserObject>
        <UserObject label="Subscribe" lucidchartObjectId="neMlNEmHse-s" id="JTkeMlUniIJy2eu13IBk-28">
          <mxCell style="html=1;overflow=block;blockSpacing=1;whiteSpace=wrap;ellipse;whiteSpace=wrap;fontSize=23.3;spacing=3.8;strokeColor=#5e5e5e;strokeOpacity=100;fillOpacity=100;rounded=1;absoluteArcSize=1;arcSize=9;fillColor=#a3d977;strokeWidth=2.3;" parent="1" vertex="1">
            <mxGeometry x="586" y="1165" width="315" height="60" as="geometry" />
          </mxCell>
        </UserObject>
        <UserObject label="" lucidchartObjectId="IfMlNntyzoXz" id="JTkeMlUniIJy2eu13IBk-29">
          <mxCell style="html=1;jettySize=18;whiteSpace=wrap;fontSize=13;strokeColor=#5E5E5E;strokeWidth=1.5;rounded=1;arcSize=12;edgeStyle=orthogonalEdgeStyle;startArrow=none;;endArrow=none;;exitX=-0.004;exitY=0.5;exitPerimeter=0;entryX=1;entryY=0.321;entryPerimeter=0;" parent="1" source="JTkeMlUniIJy2eu13IBk-26" target="JTkeMlUniIJy2eu13IBk-9" edge="1">
            <mxGeometry width="100" height="100" relative="1" as="geometry">
              <Array as="points" />
            </mxGeometry>
          </mxCell>
        </UserObject>
        <UserObject label="" lucidchartObjectId="uiMlg4cZLkRG" id="JTkeMlUniIJy2eu13IBk-30">
          <mxCell style="html=1;jettySize=18;whiteSpace=wrap;fontSize=13;strokeColor=#5E5E5E;dashed=1;fixDash=1;strokeWidth=1.5;rounded=1;arcSize=12;edgeStyle=orthogonalEdgeStyle;startArrow=none;;endArrow=block;endFill=1;;exitX=-0.004;exitY=0.5;exitPerimeter=0;entryX=0.5;entryY=-0.019;entryPerimeter=0;" parent="1" source="JTkeMlUniIJy2eu13IBk-25" target="JTkeMlUniIJy2eu13IBk-8" edge="1">
            <mxGeometry width="100" height="100" relative="1" as="geometry">
              <Array as="points" />
            </mxGeometry>
          </mxCell>
        </UserObject>
        <mxCell id="JTkeMlUniIJy2eu13IBk-31" value="&amp;lt;&amp;lt;extend&amp;gt;&amp;gt;" style="text;html=1;resizable=0;labelBackgroundColor=#ffffff;align=center;verticalAlign=middle;fontStyle=1;fontColor=#333333;;fontSize=23.3;" parent="JTkeMlUniIJy2eu13IBk-30" vertex="1">
          <mxGeometry x="-0.8045980966673254" relative="1" as="geometry">
            <mxPoint y="-141.36" as="offset" />
          </mxGeometry>
        </mxCell>
        <UserObject label="CRUD Events" lucidchartObjectId="mmMliN88rTcG" id="JTkeMlUniIJy2eu13IBk-32">
          <mxCell style="html=1;overflow=block;blockSpacing=1;whiteSpace=wrap;ellipse;whiteSpace=wrap;fontSize=23.3;spacing=3.8;strokeColor=#5e5e5e;strokeOpacity=100;fillOpacity=100;rounded=1;absoluteArcSize=1;arcSize=9;fillColor=#99d2f2;strokeWidth=2.3;" parent="1" vertex="1">
            <mxGeometry x="586" y="1665" width="315" height="60" as="geometry" />
          </mxCell>
        </UserObject>
        <UserObject label="Reserve Event" lucidchartObjectId="JmMl4QTAz8tL" id="JTkeMlUniIJy2eu13IBk-33">
          <mxCell style="html=1;overflow=block;blockSpacing=1;whiteSpace=wrap;ellipse;whiteSpace=wrap;fontSize=23.3;spacing=3.8;strokeColor=#5e5e5e;strokeOpacity=100;fillOpacity=100;rounded=1;absoluteArcSize=1;arcSize=9;fillColor=#a3d977;strokeWidth=2.3;" parent="1" vertex="1">
            <mxGeometry x="586" y="1320" width="315" height="60" as="geometry" />
          </mxCell>
        </UserObject>
        <UserObject label="" lucidchartObjectId="5mMlAgPIDnBZ" id="JTkeMlUniIJy2eu13IBk-34">
          <mxCell style="html=1;jettySize=18;whiteSpace=wrap;fontSize=13;strokeColor=#5E5E5E;dashed=1;fixDash=1;strokeWidth=1.5;rounded=1;arcSize=12;edgeStyle=orthogonalEdgeStyle;startArrow=none;;endArrow=block;endFill=1;;exitX=1.004;exitY=0.5;exitPerimeter=0;entryX=0.5;entryY=-0.019;entryPerimeter=0;" parent="1" source="JTkeMlUniIJy2eu13IBk-33" target="JTkeMlUniIJy2eu13IBk-32" edge="1">
            <mxGeometry width="100" height="100" relative="1" as="geometry">
              <Array as="points">
                <mxPoint x="1404" y="1350" />
                <mxPoint x="1404" y="1634" />
                <mxPoint x="1119" y="1634" />
              </Array>
            </mxGeometry>
          </mxCell>
        </UserObject>
        <mxCell id="JTkeMlUniIJy2eu13IBk-35" value="&amp;lt;&amp;lt;extend&amp;gt;&amp;gt;" style="text;html=1;resizable=0;labelBackgroundColor=#ffffff;align=center;verticalAlign=middle;fontStyle=1;fontColor=#333333;;fontSize=23.3;" parent="JTkeMlUniIJy2eu13IBk-34" vertex="1">
          <mxGeometry x="0.7270083798843612" relative="1" as="geometry">
            <mxPoint x="-192.76" as="offset" />
          </mxGeometry>
        </mxCell>
        <UserObject label="" lucidchartObjectId="toMlFQDJjoHC" id="JTkeMlUniIJy2eu13IBk-36">
          <mxCell style="html=1;jettySize=18;whiteSpace=wrap;fontSize=13;strokeColor=#5E5E5E;strokeWidth=1.5;rounded=1;arcSize=12;edgeStyle=orthogonalEdgeStyle;startArrow=none;;endArrow=none;;exitX=1;exitY=0.321;exitPerimeter=0;entryX=-0.004;entryY=0.5;entryPerimeter=0;" parent="1" source="JTkeMlUniIJy2eu13IBk-6" target="JTkeMlUniIJy2eu13IBk-33" edge="1">
            <mxGeometry width="100" height="100" relative="1" as="geometry">
              <Array as="points" />
            </mxGeometry>
          </mxCell>
        </UserObject>
        <UserObject label="" lucidchartObjectId="2pMlMB6i6oqQ" id="JTkeMlUniIJy2eu13IBk-37">
          <mxCell style="html=1;jettySize=18;whiteSpace=wrap;fontSize=13;strokeColor=#5E5E5E;dashed=1;fixDash=1;strokeWidth=1.5;rounded=1;arcSize=12;edgeStyle=orthogonalEdgeStyle;startArrow=none;;endArrow=block;endFill=1;;exitX=0.5;exitY=1.019;exitPerimeter=0;entryX=0.5;entryY=-0.019;entryPerimeter=0;" parent="1" source="JTkeMlUniIJy2eu13IBk-7" target="JTkeMlUniIJy2eu13IBk-11" edge="1">
            <mxGeometry width="100" height="100" relative="1" as="geometry">
              <Array as="points">
                <mxPoint x="744" y="723" />
                <mxPoint x="571" y="723" />
                <mxPoint x="571" y="1440" />
                <mxPoint x="744" y="1440" />
              </Array>
            </mxGeometry>
          </mxCell>
        </UserObject>
        <mxCell id="JTkeMlUniIJy2eu13IBk-38" value="&amp;lt;&amp;lt;extend&amp;gt;&amp;gt;" style="text;html=1;resizable=0;labelBackgroundColor=#ffffff;align=center;verticalAlign=middle;fontStyle=1;fontColor=#333333;;fontSize=23.3;" parent="JTkeMlUniIJy2eu13IBk-37" vertex="1">
          <mxGeometry x="0.6420109352982535" relative="1" as="geometry">
            <mxPoint x="34" as="offset" />
          </mxGeometry>
        </mxCell>
        <UserObject label="" lucidchartObjectId="arMl6zesNDMF" id="JTkeMlUniIJy2eu13IBk-39">
          <mxCell style="html=1;jettySize=18;whiteSpace=wrap;fontSize=13;strokeColor=#5E5E5E;dashed=1;fixDash=1;strokeWidth=1.5;rounded=1;arcSize=12;edgeStyle=orthogonalEdgeStyle;startArrow=none;;endArrow=block;endFill=1;;exitX=0.5;exitY=1.019;exitPerimeter=0;entryX=0.5;entryY=-0.019;entryPerimeter=0;" parent="1" source="JTkeMlUniIJy2eu13IBk-8" target="JTkeMlUniIJy2eu13IBk-11" edge="1">
            <mxGeometry width="100" height="100" relative="1" as="geometry">
              <Array as="points">
                <mxPoint x="744" y="1095" />
                <mxPoint x="1029" y="1095" />
                <mxPoint x="1029" y="1440" />
                <mxPoint x="744" y="1440" />
              </Array>
            </mxGeometry>
          </mxCell>
        </UserObject>
        <mxCell id="JTkeMlUniIJy2eu13IBk-40" value="&amp;lt;&amp;lt;extend&amp;gt;&amp;gt;" style="text;html=1;resizable=0;labelBackgroundColor=#ffffff;align=center;verticalAlign=middle;fontStyle=1;fontColor=#333333;;fontSize=23.3;" parent="JTkeMlUniIJy2eu13IBk-39" vertex="1">
          <mxGeometry x="0.4989078913656526" relative="1" as="geometry">
            <mxPoint x="-34" as="offset" />
          </mxGeometry>
        </mxCell>
        <UserObject label="" lucidchartObjectId="6sMlf2mFqdxe" id="JTkeMlUniIJy2eu13IBk-41">
          <mxCell style="html=1;overflow=block;blockSpacing=1;whiteSpace=wrap;shape=requires;direction=north;whiteSpace=wrap;fontSize=13;spacing=0;strokeColor=#5e5e5e;strokeOpacity=100;rounded=1;absoluteArcSize=1;arcSize=9;rotation=180;strokeWidth=2.3;" parent="1" vertex="1">
            <mxGeometry x="120" y="615" width="135" height="1035" as="geometry" />
          </mxCell>
        </UserObject>
        <UserObject label="Need to be logged in" lucidchartObjectId="OtMl6c_RDSWn" id="JTkeMlUniIJy2eu13IBk-42">
          <mxCell style="html=1;overflow=block;blockSpacing=1;whiteSpace=wrap;;whiteSpace=wrap;fontSize=36.7;fontColor=#333333;align=center;spacing=3.8;strokeOpacity=0;fillOpacity=0;rounded=1;absoluteArcSize=1;arcSize=9;fillColor=#ffffff;strokeWidth=2.3;" parent="1" vertex="1">
            <mxGeometry x="-105" y="1085" width="225" height="139" as="geometry" />
          </mxCell>
        </UserObject>
        <UserObject label="Return Book" lucidchartObjectId="VVMl1m7V7SYB" id="JTkeMlUniIJy2eu13IBk-43">
          <mxCell style="html=1;overflow=block;blockSpacing=1;whiteSpace=wrap;ellipse;whiteSpace=wrap;fontSize=23.3;spacing=3.8;strokeColor=#5e5e5e;strokeOpacity=100;fillOpacity=100;rounded=1;absoluteArcSize=1;arcSize=9;fillColor=#a3d977;strokeWidth=2.3;" parent="1" vertex="1">
            <mxGeometry x="1321" y="986" width="315" height="60" as="geometry" />
          </mxCell>
        </UserObject>
        <UserObject label="" lucidchartObjectId="OWMl-1bgkDmO" id="JTkeMlUniIJy2eu13IBk-44">
          <mxCell style="html=1;jettySize=18;whiteSpace=wrap;fontSize=13;strokeColor=#5E5E5E;dashed=1;fixDash=1;strokeWidth=1.5;rounded=1;arcSize=12;edgeStyle=orthogonalEdgeStyle;startArrow=none;;endArrow=block;endFill=1;;exitX=-0.004;exitY=0.5;exitPerimeter=0;entryX=1.004;entryY=0.5;entryPerimeter=0;" parent="1" source="JTkeMlUniIJy2eu13IBk-43" target="JTkeMlUniIJy2eu13IBk-8" edge="1">
            <mxGeometry width="100" height="100" relative="1" as="geometry">
              <Array as="points" />
            </mxGeometry>
          </mxCell>
        </UserObject>
        <mxCell id="JTkeMlUniIJy2eu13IBk-45" value="&amp;lt;&amp;lt;include&amp;gt;&amp;gt;" style="text;html=1;resizable=0;labelBackgroundColor=#ffffff;align=center;verticalAlign=middle;fontStyle=1;fontColor=#333333;;fontSize=23.3;" parent="JTkeMlUniIJy2eu13IBk-44" vertex="1">
          <mxGeometry x="0.507951439763932" relative="1" as="geometry">
            <mxPoint y="-11.5" as="offset" />
          </mxGeometry>
        </mxCell>
        <UserObject label="Withdraw Book" lucidchartObjectId="x2MlZHwICvsN" id="JTkeMlUniIJy2eu13IBk-46">
          <mxCell style="html=1;overflow=block;blockSpacing=1;whiteSpace=wrap;ellipse;whiteSpace=wrap;fontSize=23.3;spacing=3.8;strokeColor=#5e5e5e;strokeOpacity=100;fillOpacity=100;rounded=1;absoluteArcSize=1;arcSize=9;fillColor=#a3d977;strokeWidth=2.3;" parent="1" vertex="1">
            <mxGeometry x="1321" y="1103" width="315" height="60" as="geometry" />
          </mxCell>
        </UserObject>
        <UserObject label="" lucidchartObjectId="U2Mle9Hp0Y18" id="JTkeMlUniIJy2eu13IBk-47">
          <mxCell style="html=1;jettySize=18;whiteSpace=wrap;fontSize=13;strokeColor=#5E5E5E;dashed=1;fixDash=1;strokeWidth=1.5;rounded=1;arcSize=12;edgeStyle=orthogonalEdgeStyle;startArrow=none;;endArrow=block;endFill=1;;exitX=-0.004;exitY=0.5;exitPerimeter=0;entryX=1.004;entryY=0.5;entryPerimeter=0;" parent="1" source="JTkeMlUniIJy2eu13IBk-46" target="JTkeMlUniIJy2eu13IBk-8" edge="1">
            <mxGeometry width="100" height="100" relative="1" as="geometry">
              <Array as="points">
                <mxPoint x="1290" y="1133" />
                <mxPoint x="1290" y="1065" />
                <mxPoint x="919" y="1065" />
                <mxPoint x="919" y="1016" />
              </Array>
            </mxGeometry>
          </mxCell>
        </UserObject>
        <mxCell id="JTkeMlUniIJy2eu13IBk-48" value="&amp;lt;&amp;lt;include&amp;gt;&amp;gt;" style="text;html=1;resizable=0;labelBackgroundColor=#ffffff;align=center;verticalAlign=middle;fontStyle=1;fontColor=#333333;;fontSize=23.3;" parent="JTkeMlUniIJy2eu13IBk-47" vertex="1">
          <mxGeometry x="0.5728706410423448" relative="1" as="geometry">
            <mxPoint y="-128.5" as="offset" />
          </mxGeometry>
        </mxCell>
        <UserObject label="Check Withdrawal Delay" lucidchartObjectId="U3Mlyu5kF1vB" id="JTkeMlUniIJy2eu13IBk-49">
          <mxCell style="html=1;overflow=block;blockSpacing=1;whiteSpace=wrap;ellipse;whiteSpace=wrap;fontSize=23.3;spacing=3.8;strokeColor=#5e5e5e;strokeOpacity=100;fillOpacity=100;rounded=1;absoluteArcSize=1;arcSize=9;fillColor=#99d2f2;strokeWidth=2.3;" parent="1" vertex="1">
            <mxGeometry x="586" y="1935" width="315" height="79" as="geometry" />
          </mxCell>
        </UserObject>
        <UserObject label="Check Return Delay" lucidchartObjectId="w5MlEav05f3o" id="JTkeMlUniIJy2eu13IBk-50">
          <mxCell style="html=1;overflow=block;blockSpacing=1;whiteSpace=wrap;ellipse;whiteSpace=wrap;fontSize=23.3;spacing=3.8;strokeColor=#5e5e5e;strokeOpacity=100;fillOpacity=100;rounded=1;absoluteArcSize=1;arcSize=9;fillColor=#99d2f2;strokeWidth=2.3;" parent="1" vertex="1">
            <mxGeometry x="586" y="1815" width="315" height="64" as="geometry" />
          </mxCell>
        </UserObject>
        <UserObject label="" lucidchartObjectId="T5MlwDBcKAdf" id="JTkeMlUniIJy2eu13IBk-51">
          <mxCell style="html=1;jettySize=18;whiteSpace=wrap;fontSize=13;strokeColor=#5E5E5E;dashed=1;fixDash=1;strokeWidth=1.5;rounded=1;arcSize=12;edgeStyle=orthogonalEdgeStyle;startArrow=none;;endArrow=block;endFill=1;;exitX=0.5;exitY=-0.017;exitPerimeter=0;entryX=1.004;entryY=0.5;entryPerimeter=0;" parent="1" source="JTkeMlUniIJy2eu13IBk-50" target="JTkeMlUniIJy2eu13IBk-43" edge="1">
            <mxGeometry width="100" height="100" relative="1" as="geometry">
              <Array as="points">
                <mxPoint x="744" y="1763" />
                <mxPoint x="1764" y="1763" />
                <mxPoint x="1764" y="1016" />
              </Array>
            </mxGeometry>
          </mxCell>
        </UserObject>
        <mxCell id="JTkeMlUniIJy2eu13IBk-52" value="&amp;lt;&amp;lt;include&amp;gt;&amp;gt;" style="text;html=1;resizable=0;labelBackgroundColor=#ffffff;align=center;verticalAlign=middle;fontStyle=1;fontColor=#333333;;fontSize=23.3;" parent="JTkeMlUniIJy2eu13IBk-51" vertex="1">
          <mxGeometry x="-0.3525248925764528" relative="1" as="geometry">
            <mxPoint y="-809.412" as="offset" />
          </mxGeometry>
        </mxCell>
        <UserObject label="" lucidchartObjectId="j6MlmtL19bzU" id="JTkeMlUniIJy2eu13IBk-53">
          <mxCell style="html=1;jettySize=18;whiteSpace=wrap;fontSize=13;strokeColor=#5E5E5E;dashed=1;fixDash=1;strokeWidth=1.5;rounded=1;arcSize=12;edgeStyle=orthogonalEdgeStyle;startArrow=none;;endArrow=block;endFill=1;;exitX=1.004;exitY=0.5;exitPerimeter=0;entryX=1.004;entryY=0.5;entryPerimeter=0;" parent="1" source="JTkeMlUniIJy2eu13IBk-49" target="JTkeMlUniIJy2eu13IBk-46" edge="1">
            <mxGeometry width="100" height="100" relative="1" as="geometry">
              <Array as="points">
                <mxPoint x="1726" y="1975" />
                <mxPoint x="1726" y="1133" />
              </Array>
            </mxGeometry>
          </mxCell>
        </UserObject>
        <mxCell id="JTkeMlUniIJy2eu13IBk-54" value="&amp;lt;&amp;lt;include&amp;gt;&amp;gt;" style="text;html=1;resizable=0;labelBackgroundColor=#ffffff;align=center;verticalAlign=middle;fontStyle=1;fontColor=#333333;;fontSize=23.3;" parent="JTkeMlUniIJy2eu13IBk-53" vertex="1">
          <mxGeometry x="-0.8919395657404133" relative="1" as="geometry">
            <mxPoint x="-770.5" as="offset" />
          </mxGeometry>
        </mxCell>
        <UserObject label="" lucidchartObjectId="PaOll7H-p0yw" id="JTkeMlUniIJy2eu13IBk-55">
          <mxCell style="html=1;jettySize=18;whiteSpace=wrap;fontSize=13;strokeColor=#5E5E5E;strokeWidth=1.5;rounded=1;arcSize=12;edgeStyle=orthogonalEdgeStyle;startArrow=none;;endArrow=none;;exitX=1;exitY=0.321;exitPerimeter=0;entryX=-0.004;entryY=0.5;entryPerimeter=0;" parent="1" source="JTkeMlUniIJy2eu13IBk-9" target="JTkeMlUniIJy2eu13IBk-32" edge="1">
            <mxGeometry width="100" height="100" relative="1" as="geometry">
              <Array as="points" />
            </mxGeometry>
          </mxCell>
        </UserObject>
        <UserObject label="" lucidchartObjectId="OnOl5Tw52fpq" id="JTkeMlUniIJy2eu13IBk-56">
          <mxCell style="html=1;jettySize=18;whiteSpace=wrap;fontSize=13;strokeColor=#5E5E5E;dashed=1;fixDash=1;strokeWidth=1.5;rounded=1;arcSize=12;edgeStyle=orthogonalEdgeStyle;startArrow=none;;endArrow=block;endFill=1;;exitX=1.004;exitY=0.5;exitPerimeter=0;entryX=1.004;entryY=0.5;entryPerimeter=0;" parent="1" source="JTkeMlUniIJy2eu13IBk-26" target="JTkeMlUniIJy2eu13IBk-20" edge="1">
            <mxGeometry width="100" height="100" relative="1" as="geometry">
              <Array as="points">
                <mxPoint x="1801" y="2295" />
                <mxPoint x="1801" y="735" />
              </Array>
            </mxGeometry>
          </mxCell>
        </UserObject>
        <mxCell id="JTkeMlUniIJy2eu13IBk-57" value="&amp;lt;&amp;lt;include&amp;gt;&amp;gt;" style="text;html=1;resizable=0;labelBackgroundColor=#ffffff;align=center;verticalAlign=middle;fontStyle=1;fontColor=#333333;;fontSize=23.3;" parent="JTkeMlUniIJy2eu13IBk-56" vertex="1">
          <mxGeometry x="-0.918802782569829" relative="1" as="geometry">
            <mxPoint x="-770.5" as="offset" />
          </mxGeometry>
        </mxCell>
        <UserObject label="" lucidchartObjectId="dpOlyCqakFYp" id="JTkeMlUniIJy2eu13IBk-58">
          <mxCell style="html=1;jettySize=18;whiteSpace=wrap;fontSize=13;strokeColor=#5E5E5E;dashed=1;fixDash=1;strokeWidth=1.5;rounded=1;arcSize=12;edgeStyle=orthogonalEdgeStyle;startArrow=none;;endArrow=block;endFill=1;;exitX=0.5;exitY=-0.019;exitPerimeter=0;" parent="1" source="JTkeMlUniIJy2eu13IBk-28" edge="1">
            <mxGeometry width="100" height="100" relative="1" as="geometry">
              <Array as="points" />
              <mxPoint x="744" y="1047" as="targetPoint" />
            </mxGeometry>
          </mxCell>
        </UserObject>
        <mxCell id="JTkeMlUniIJy2eu13IBk-59" value="&amp;lt;&amp;lt;include&amp;gt;&amp;gt;" style="text;html=1;resizable=0;labelBackgroundColor=#ffffff;align=center;verticalAlign=middle;fontStyle=1;fontColor=#333333;;fontSize=23.3;" parent="JTkeMlUniIJy2eu13IBk-58" vertex="1">
          <mxGeometry x="-0.7908690432569969" relative="1" as="geometry">
            <mxPoint x="-35.5" as="offset" />
          </mxGeometry>
        </mxCell>
        <UserObject label="" lucidchartObjectId="kqOlqMJKRBn9" id="JTkeMlUniIJy2eu13IBk-60">
          <mxCell style="html=1;jettySize=18;whiteSpace=wrap;fontSize=13;strokeColor=#5E5E5E;strokeWidth=1.5;rounded=1;arcSize=12;edgeStyle=orthogonalEdgeStyle;startArrow=none;;endArrow=none;;exitX=1;exitY=0.335;exitPerimeter=0;entryX=-0.004;entryY=0.5;entryPerimeter=0;" parent="1" source="JTkeMlUniIJy2eu13IBk-6" target="JTkeMlUniIJy2eu13IBk-28" edge="1">
            <mxGeometry width="100" height="100" relative="1" as="geometry">
              <Array as="points" />
            </mxGeometry>
          </mxCell>
        </UserObject>
        <UserObject label="" lucidchartObjectId="2uOlO4AVq3cS" id="JTkeMlUniIJy2eu13IBk-61">
          <mxCell style="html=1;jettySize=18;whiteSpace=wrap;fontSize=13;strokeColor=#5E5E5E;strokeWidth=1.5;rounded=1;arcSize=12;edgeStyle=orthogonalEdgeStyle;startArrow=none;;endArrow=none;;exitX=1;exitY=0.321;exitPerimeter=0;entryX=-0.004;entryY=0.5;entryPerimeter=0;" parent="1" source="JTkeMlUniIJy2eu13IBk-9" target="JTkeMlUniIJy2eu13IBk-50" edge="1">
            <mxGeometry width="100" height="100" relative="1" as="geometry">
              <Array as="points" />
            </mxGeometry>
          </mxCell>
        </UserObject>
        <UserObject label="" lucidchartObjectId="-uOlZ-Hd1cpz" id="JTkeMlUniIJy2eu13IBk-62">
          <mxCell style="html=1;jettySize=18;whiteSpace=wrap;fontSize=13;strokeColor=#5E5E5E;strokeWidth=1.5;rounded=1;arcSize=12;edgeStyle=orthogonalEdgeStyle;startArrow=none;;endArrow=none;;exitX=1;exitY=0.321;exitPerimeter=0;entryX=-0.004;entryY=0.5;entryPerimeter=0;" parent="1" source="JTkeMlUniIJy2eu13IBk-9" target="JTkeMlUniIJy2eu13IBk-49" edge="1">
            <mxGeometry width="100" height="100" relative="1" as="geometry">
              <Array as="points" />
            </mxGeometry>
          </mxCell>
        </UserObject>
        <UserObject label="" lucidchartObjectId="~wOl4bhNPSWs" id="JTkeMlUniIJy2eu13IBk-63">
          <mxCell style="html=1;jettySize=18;whiteSpace=wrap;fontSize=13;strokeColor=#5E5E5E;strokeWidth=1.5;rounded=1;arcSize=12;edgeStyle=orthogonalEdgeStyle;startArrow=none;;endArrow=none;;exitX=1;exitY=0.335;exitPerimeter=0;entryX=-0.004;entryY=0.5;entryPerimeter=0;" parent="1" source="JTkeMlUniIJy2eu13IBk-6" target="JTkeMlUniIJy2eu13IBk-27" edge="1">
            <mxGeometry width="100" height="100" relative="1" as="geometry">
              <Array as="points" />
            </mxGeometry>
          </mxCell>
        </UserObject>
        <UserObject label="Request Penality" lucidchartObjectId="cWOlf-0sLFXi" id="JTkeMlUniIJy2eu13IBk-64">
          <mxCell style="html=1;overflow=block;blockSpacing=1;whiteSpace=wrap;ellipse;whiteSpace=wrap;fontSize=23.3;spacing=3.8;strokeColor=#5e5e5e;strokeOpacity=100;fillOpacity=100;rounded=1;absoluteArcSize=1;arcSize=9;fillColor=#99d2f2;strokeWidth=2.3;" parent="1" vertex="1">
            <mxGeometry x="1156" y="1815" width="315" height="64" as="geometry" />
          </mxCell>
        </UserObject>
        <UserObject label="" lucidchartObjectId="vWOlFuQ8pUAC" id="JTkeMlUniIJy2eu13IBk-65">
          <mxCell style="html=1;jettySize=18;whiteSpace=wrap;fontSize=13;strokeColor=#5E5E5E;dashed=1;fixDash=1;strokeWidth=1.5;rounded=1;arcSize=12;edgeStyle=orthogonalEdgeStyle;startArrow=none;;endArrow=block;endFill=1;;exitX=-0.004;exitY=0.5;exitPerimeter=0;entryX=1.004;entryY=0.5;entryPerimeter=0;" parent="1" source="JTkeMlUniIJy2eu13IBk-64" target="JTkeMlUniIJy2eu13IBk-50" edge="1">
            <mxGeometry width="100" height="100" relative="1" as="geometry">
              <Array as="points" />
            </mxGeometry>
          </mxCell>
        </UserObject>
        <mxCell id="JTkeMlUniIJy2eu13IBk-66" value="&amp;lt;&amp;lt;extend&amp;gt;&amp;gt;" style="text;html=1;resizable=0;labelBackgroundColor=#ffffff;align=center;verticalAlign=middle;fontStyle=1;fontColor=#333333;;fontSize=23.3;" parent="JTkeMlUniIJy2eu13IBk-65" vertex="1">
          <mxGeometry x="0.10341605013030164" relative="1" as="geometry">
            <mxPoint y="-11.5" as="offset" />
          </mxGeometry>
        </mxCell>
        <UserObject label="" lucidchartObjectId="_WOlEfP9Scf2" id="JTkeMlUniIJy2eu13IBk-67">
          <mxCell style="html=1;jettySize=18;whiteSpace=wrap;fontSize=13;strokeColor=#5E5E5E;dashed=1;fixDash=1;strokeWidth=1.5;rounded=1;arcSize=12;edgeStyle=orthogonalEdgeStyle;startArrow=none;;endArrow=block;endFill=1;;exitX=1.004;exitY=0.5;exitPerimeter=0;entryX=0.5;entryY=-0.017;entryPerimeter=0;" parent="1" source="JTkeMlUniIJy2eu13IBk-27" target="JTkeMlUniIJy2eu13IBk-64" edge="1">
            <mxGeometry width="100" height="100" relative="1" as="geometry">
              <Array as="points">
                <mxPoint x="1149" y="810" />
                <mxPoint x="1149" y="1688" />
                <mxPoint x="1314" y="1688" />
              </Array>
            </mxGeometry>
          </mxCell>
        </UserObject>
        <mxCell id="JTkeMlUniIJy2eu13IBk-68" value="&amp;lt;&amp;lt;include&amp;gt;&amp;gt;" style="text;html=1;resizable=0;labelBackgroundColor=#ffffff;align=center;verticalAlign=middle;fontStyle=1;fontColor=#333333;;fontSize=23.3;" parent="JTkeMlUniIJy2eu13IBk-67" vertex="1">
          <mxGeometry x="-0.8635711703053242" relative="1" as="geometry">
            <mxPoint x="276" y="20" as="offset" />
          </mxGeometry>
        </mxCell>
        <UserObject label="List Books" lucidchartObjectId="FEPlZ8h1THUV" id="JTkeMlUniIJy2eu13IBk-69">
          <mxCell style="html=1;overflow=block;blockSpacing=1;whiteSpace=wrap;ellipse;whiteSpace=wrap;fontSize=23.3;spacing=3.8;strokeColor=#5e5e5e;strokeOpacity=100;fillOpacity=100;rounded=1;absoluteArcSize=1;arcSize=9;fillColor=#ffdba9;strokeWidth=2.3;" parent="1" vertex="1">
            <mxGeometry x="630" y="120" width="315" height="75" as="geometry" />
          </mxCell>
        </UserObject>
        <UserObject label="Show book infomations" lucidchartObjectId="GFPlNP1U4LBn" id="JTkeMlUniIJy2eu13IBk-70">
          <mxCell style="html=1;overflow=block;blockSpacing=1;whiteSpace=wrap;ellipse;whiteSpace=wrap;fontSize=23.3;spacing=3.8;strokeColor=#5e5e5e;strokeOpacity=100;fillOpacity=100;rounded=1;absoluteArcSize=1;arcSize=9;fillColor=#ffdba9;strokeWidth=2.3;" parent="1" vertex="1">
            <mxGeometry x="1080" y="120" width="315" height="75" as="geometry" />
          </mxCell>
        </UserObject>
        <UserObject label="Show availability" lucidchartObjectId="-GPl2Bjd-L9b" id="JTkeMlUniIJy2eu13IBk-71">
          <mxCell style="html=1;overflow=block;blockSpacing=1;whiteSpace=wrap;ellipse;whiteSpace=wrap;fontSize=23.3;spacing=3.8;strokeColor=#5e5e5e;strokeOpacity=100;fillOpacity=100;rounded=1;absoluteArcSize=1;arcSize=9;fillColor=#ffdba9;strokeWidth=2.3;" parent="1" vertex="1">
            <mxGeometry x="1575" y="120" width="315" height="75" as="geometry" />
          </mxCell>
        </UserObject>
        <UserObject label="" lucidchartObjectId="zHPlzgdWA4ae" id="JTkeMlUniIJy2eu13IBk-72">
          <mxCell style="html=1;jettySize=18;whiteSpace=wrap;fontSize=13;strokeColor=#5E5E5E;dashed=1;fixDash=1;strokeWidth=1.5;rounded=1;arcSize=12;edgeStyle=orthogonalEdgeStyle;startArrow=none;;endArrow=block;endFill=1;;exitX=1.004;exitY=0.5;exitPerimeter=0;entryX=-0.004;entryY=0.5;entryPerimeter=0;" parent="1" source="JTkeMlUniIJy2eu13IBk-69" target="JTkeMlUniIJy2eu13IBk-70" edge="1">
            <mxGeometry width="100" height="100" relative="1" as="geometry">
              <Array as="points" />
            </mxGeometry>
          </mxCell>
        </UserObject>
        <mxCell id="JTkeMlUniIJy2eu13IBk-73" value="&amp;lt;&amp;lt;extend&amp;gt;&amp;gt;" style="text;html=1;resizable=0;labelBackgroundColor=#ffffff;align=center;verticalAlign=middle;fontStyle=1;fontColor=#333333;;fontSize=23.3;" parent="JTkeMlUniIJy2eu13IBk-72" vertex="1">
          <mxGeometry x="-0.11014201928586365" relative="1" as="geometry">
            <mxPoint y="-11.5" as="offset" />
          </mxGeometry>
        </mxCell>
        <UserObject label="" lucidchartObjectId="TIPl2JkJ3Fbr" id="JTkeMlUniIJy2eu13IBk-74">
          <mxCell style="html=1;jettySize=18;whiteSpace=wrap;fontSize=13;strokeColor=#5E5E5E;dashed=1;fixDash=1;strokeWidth=1.5;rounded=1;arcSize=12;edgeStyle=orthogonalEdgeStyle;startArrow=none;;endArrow=block;endFill=1;;exitX=1.004;exitY=0.5;exitPerimeter=0;entryX=-0.004;entryY=0.5;entryPerimeter=0;" parent="1" source="JTkeMlUniIJy2eu13IBk-70" target="JTkeMlUniIJy2eu13IBk-71" edge="1">
            <mxGeometry width="100" height="100" relative="1" as="geometry">
              <Array as="points" />
            </mxGeometry>
          </mxCell>
        </UserObject>
        <mxCell id="JTkeMlUniIJy2eu13IBk-75" value="&amp;lt;&amp;lt;extend&amp;gt;&amp;gt;" style="text;html=1;resizable=0;labelBackgroundColor=#ffffff;align=center;verticalAlign=middle;fontStyle=1;fontColor=#333333;;fontSize=23.3;" parent="JTkeMlUniIJy2eu13IBk-74" vertex="1">
          <mxGeometry x="-0.1412332839564373" relative="1" as="geometry">
            <mxPoint y="-11.5" as="offset" />
          </mxGeometry>
        </mxCell>
        <UserObject label="Search by name" lucidchartObjectId="bKPlHuerI7H4" id="JTkeMlUniIJy2eu13IBk-76">
          <mxCell style="html=1;overflow=block;blockSpacing=1;whiteSpace=wrap;ellipse;whiteSpace=wrap;fontSize=23.3;spacing=3.8;strokeColor=#5e5e5e;strokeOpacity=100;fillOpacity=100;rounded=1;absoluteArcSize=1;arcSize=9;fillColor=#ffdba9;strokeWidth=2.3;" parent="1" vertex="1">
            <mxGeometry x="1080" y="240" width="315" height="75" as="geometry" />
          </mxCell>
        </UserObject>
        <UserObject label="Search by category" lucidchartObjectId="vKPlxhyZ5s.N" id="JTkeMlUniIJy2eu13IBk-77">
          <mxCell style="html=1;overflow=block;blockSpacing=1;whiteSpace=wrap;ellipse;whiteSpace=wrap;fontSize=23.3;spacing=3.8;strokeColor=#5e5e5e;strokeOpacity=100;fillOpacity=100;rounded=1;absoluteArcSize=1;arcSize=9;fillColor=#ffdba9;strokeWidth=2.3;" parent="1" vertex="1">
            <mxGeometry x="1080" y="360" width="315" height="75" as="geometry" />
          </mxCell>
        </UserObject>
        <mxCell id="NxmG8iQS5pt7ApyB36uY-1" value="" style="endArrow=none;html=1;rounded=0;" parent="1" edge="1">
          <mxGeometry width="50" height="50" relative="1" as="geometry">
            <mxPoint x="950" y="760" as="sourcePoint" />
            <mxPoint x="1000" y="710" as="targetPoint" />
          </mxGeometry>
        </mxCell>
        <mxCell id="NxmG8iQS5pt7ApyB36uY-3" value="" style="endArrow=none;html=1;rounded=0;" parent="1" edge="1">
          <mxGeometry width="50" height="50" relative="1" as="geometry">
            <mxPoint x="950" y="760" as="sourcePoint" />
            <mxPoint x="1000" y="710" as="targetPoint" />
          </mxGeometry>
        </mxCell>
        <mxCell id="NxmG8iQS5pt7ApyB36uY-4" value="" style="endArrow=none;html=1;rounded=0;" parent="1" edge="1">
          <mxGeometry width="50" height="50" relative="1" as="geometry">
            <mxPoint x="950" y="760" as="sourcePoint" />
            <mxPoint x="1000" y="710" as="targetPoint" />
          </mxGeometry>
        </mxCell>
        <mxCell id="NxmG8iQS5pt7ApyB36uY-6" value="" style="endArrow=none;html=1;rounded=0;" parent="1" edge="1">
          <mxGeometry width="50" height="50" relative="1" as="geometry">
            <mxPoint x="950" y="760" as="sourcePoint" />
            <mxPoint x="1000" y="710" as="targetPoint" />
          </mxGeometry>
        </mxCell>
        <UserObject label="Search by genre" lucidchartObjectId="vKPlxhyZ5s.N" id="NxmG8iQS5pt7ApyB36uY-8">
          <mxCell style="html=1;overflow=block;blockSpacing=1;whiteSpace=wrap;ellipse;whiteSpace=wrap;fontSize=23.3;spacing=3.8;strokeColor=#5e5e5e;strokeOpacity=100;fillOpacity=100;rounded=1;absoluteArcSize=1;arcSize=9;fillColor=#ffdba9;strokeWidth=2.3;" parent="1" vertex="1">
            <mxGeometry x="1450" y="300" width="315" height="75" as="geometry" />
          </mxCell>
        </UserObject>
      </root>
    </mxGraphModel>
  </diagram>
  <diagram name="UML User Cases Rent" id="W6NxJUmy6uo9g3zQElOM">
    <mxGraphModel dx="3220" dy="2370" grid="1" gridSize="10" guides="1" tooltips="1" connect="1" arrows="1" fold="1" page="1" pageScale="1" pageWidth="850" pageHeight="1100" math="0" shadow="0">
      <root>
        <mxCell id="RaWdWEmhi5QUENWdYcp_-0" />
        <mxCell id="RaWdWEmhi5QUENWdYcp_-1" parent="RaWdWEmhi5QUENWdYcp_-0" />
        <UserObject label="" lucidchartObjectId="3ELl95lbGf7W" id="RaWdWEmhi5QUENWdYcp_-2">
          <mxCell style="html=1;overflow=block;blockSpacing=1;whiteSpace=wrap;;whiteSpace=wrap;fontSize=13;align=center;spacing=3.8;strokeColor=#5e5e5e;strokeOpacity=100;fillOpacity=100;rounded=1;absoluteArcSize=1;arcSize=9;fillColor=#e5e5e5;strokeWidth=2.3;" parent="RaWdWEmhi5QUENWdYcp_-1" vertex="1">
            <mxGeometry x="610" y="-40" width="1810" height="2310" as="geometry" />
          </mxCell>
        </UserObject>
        <UserObject label="Get Library Informations" lucidchartObjectId="a8KlBbp7x2-D" id="RaWdWEmhi5QUENWdYcp_-3">
          <mxCell style="html=1;overflow=block;blockSpacing=1;whiteSpace=wrap;ellipse;whiteSpace=wrap;fontSize=23.3;spacing=3.8;strokeColor=#5e5e5e;strokeOpacity=100;fillOpacity=100;rounded=1;absoluteArcSize=1;arcSize=9;fillColor=#ffdba9;strokeWidth=2.3;" parent="RaWdWEmhi5QUENWdYcp_-1" vertex="1">
            <mxGeometry x="585" y="240" width="315" height="75" as="geometry" />
          </mxCell>
        </UserObject>
        <UserObject label="Register" lucidchartObjectId="A8KlpCWkmG7h" id="RaWdWEmhi5QUENWdYcp_-4">
          <mxCell style="html=1;overflow=block;blockSpacing=1;whiteSpace=wrap;ellipse;whiteSpace=wrap;fontSize=23.3;spacing=3.8;strokeColor=#5e5e5e;strokeOpacity=100;fillOpacity=100;rounded=1;absoluteArcSize=1;arcSize=9;fillColor=#ffdba9;strokeWidth=2.3;" parent="RaWdWEmhi5QUENWdYcp_-1" vertex="1">
            <mxGeometry x="585" y="360" width="315" height="75" as="geometry" />
          </mxCell>
        </UserObject>
        <UserObject label="Visitor" lucidchartObjectId="Y8KlxJXvXmYg" id="RaWdWEmhi5QUENWdYcp_-5">
          <mxCell style="html=1;overflow=block;blockSpacing=1;whiteSpace=wrap;shape=umlActor;labelPosition=center;verticalLabelPosition=bottom;verticalAlign=top;whiteSpace=nowrap;whiteSpace=wrap;fontSize=23.3;fontColor=#333333;align=center;spacing=0;strokeColor=#5e5e5e;strokeOpacity=100;fillOpacity=100;rounded=1;absoluteArcSize=1;arcSize=9;fillColor=#ffdba9;strokeWidth=2.3;" parent="RaWdWEmhi5QUENWdYcp_-1" vertex="1">
            <mxGeometry x="270" y="285" width="60" height="135" as="geometry" />
          </mxCell>
        </UserObject>
        <UserObject label="Regitered User" lucidchartObjectId="Q9KlFrLedxem" id="RaWdWEmhi5QUENWdYcp_-6">
          <mxCell style="html=1;overflow=block;blockSpacing=1;whiteSpace=wrap;shape=umlActor;labelPosition=center;verticalLabelPosition=bottom;verticalAlign=top;whiteSpace=nowrap;whiteSpace=wrap;fontSize=23.3;fontColor=#333333;align=center;spacing=0;strokeColor=#5e5e5e;strokeOpacity=100;fillOpacity=100;rounded=1;absoluteArcSize=1;arcSize=9;fillColor=#a3d977;strokeWidth=2.3;" parent="RaWdWEmhi5QUENWdYcp_-1" vertex="1">
            <mxGeometry x="270" y="570" width="60" height="135" as="geometry" />
          </mxCell>
        </UserObject>
        <UserObject label="Reserve Book" lucidchartObjectId="p_Kl38Mi0tr~" id="RaWdWEmhi5QUENWdYcp_-8">
          <mxCell style="html=1;overflow=block;blockSpacing=1;whiteSpace=wrap;ellipse;whiteSpace=wrap;fontSize=23.3;spacing=3.8;strokeColor=#5e5e5e;strokeOpacity=100;fillOpacity=100;rounded=1;absoluteArcSize=1;arcSize=9;fillColor=#a3d977;strokeWidth=2.3;" parent="RaWdWEmhi5QUENWdYcp_-1" vertex="1">
            <mxGeometry x="660" y="645" width="315" height="60" as="geometry" />
          </mxCell>
        </UserObject>
        <UserObject label="Admin" lucidchartObjectId="4_KlheYxuX7Y" id="RaWdWEmhi5QUENWdYcp_-9">
          <mxCell style="html=1;overflow=block;blockSpacing=1;whiteSpace=wrap;shape=umlActor;labelPosition=center;verticalLabelPosition=bottom;verticalAlign=top;whiteSpace=nowrap;whiteSpace=wrap;fontSize=23.3;fontColor=#333333;align=center;spacing=0;strokeColor=#5e5e5e;strokeOpacity=100;fillOpacity=100;rounded=1;absoluteArcSize=1;arcSize=9;fillColor=#99d2f2;strokeWidth=2.3;" parent="RaWdWEmhi5QUENWdYcp_-1" vertex="1">
            <mxGeometry x="300" y="1609" width="60" height="135" as="geometry" />
          </mxCell>
        </UserObject>
        <UserObject label="CRUD Users" lucidchartObjectId="b.KlMfVkq2Jr" id="RaWdWEmhi5QUENWdYcp_-10">
          <mxCell style="html=1;overflow=block;blockSpacing=1;whiteSpace=wrap;ellipse;whiteSpace=wrap;fontSize=23.3;spacing=3.8;strokeColor=#5e5e5e;strokeOpacity=100;fillOpacity=100;rounded=1;absoluteArcSize=1;arcSize=9;fillColor=#99d2f2;strokeWidth=2.3;" parent="RaWdWEmhi5QUENWdYcp_-1" vertex="1">
            <mxGeometry x="586" y="2100" width="315" height="60" as="geometry" />
          </mxCell>
        </UserObject>
        <UserObject label="CRUD Books" lucidchartObjectId="m.KlKD7QrPw_" id="RaWdWEmhi5QUENWdYcp_-11">
          <mxCell style="html=1;overflow=block;blockSpacing=1;whiteSpace=wrap;ellipse;whiteSpace=wrap;fontSize=23.3;spacing=3.8;strokeColor=#5e5e5e;strokeOpacity=100;fillOpacity=100;rounded=1;absoluteArcSize=1;arcSize=9;fillColor=#99d2f2;strokeWidth=2.3;" parent="RaWdWEmhi5QUENWdYcp_-1" vertex="1">
            <mxGeometry x="586" y="1485" width="315" height="60" as="geometry" />
          </mxCell>
        </UserObject>
        <UserObject label="" lucidchartObjectId="j~KlWuHic4bn" id="RaWdWEmhi5QUENWdYcp_-12">
          <mxCell style="html=1;jettySize=18;whiteSpace=wrap;fontSize=13;strokeColor=#5E5E5E;strokeWidth=1.5;rounded=1;arcSize=12;edgeStyle=orthogonalEdgeStyle;startArrow=none;;endArrow=none;;exitX=1;exitY=0.323;exitPerimeter=0;entryX=-0.004;entryY=0.5;entryPerimeter=0;" parent="RaWdWEmhi5QUENWdYcp_-1" source="RaWdWEmhi5QUENWdYcp_-5" target="RaWdWEmhi5QUENWdYcp_-3" edge="1">
            <mxGeometry width="100" height="100" relative="1" as="geometry">
              <Array as="points" />
            </mxGeometry>
          </mxCell>
        </UserObject>
        <UserObject label="" lucidchartObjectId="m~KlH8DpsT69" id="RaWdWEmhi5QUENWdYcp_-13">
          <mxCell style="html=1;jettySize=18;whiteSpace=wrap;fontSize=13;strokeColor=#5E5E5E;strokeWidth=1.5;rounded=1;arcSize=12;edgeStyle=orthogonalEdgeStyle;startArrow=none;;endArrow=none;;exitX=1;exitY=0.323;exitPerimeter=0;entryX=-0.004;entryY=0.5;entryPerimeter=0;" parent="RaWdWEmhi5QUENWdYcp_-1" source="RaWdWEmhi5QUENWdYcp_-5" target="RaWdWEmhi5QUENWdYcp_-4" edge="1">
            <mxGeometry width="100" height="100" relative="1" as="geometry">
              <Array as="points" />
            </mxGeometry>
          </mxCell>
        </UserObject>
        <UserObject label="" lucidchartObjectId="B~KlyCCl5tz0" id="RaWdWEmhi5QUENWdYcp_-14">
          <mxCell style="html=1;jettySize=18;whiteSpace=wrap;fontSize=13;strokeColor=#5E5E5E;strokeWidth=1.5;rounded=1;arcSize=12;edgeStyle=orthogonalEdgeStyle;startArrow=none;;endArrow=none;;exitX=1;exitY=0.321;exitPerimeter=0;entryX=-0.004;entryY=0.5;entryPerimeter=0;" parent="RaWdWEmhi5QUENWdYcp_-1" source="RaWdWEmhi5QUENWdYcp_-6" edge="1">
            <mxGeometry width="100" height="100" relative="1" as="geometry">
              <Array as="points">
                <mxPoint x="584" y="613" />
              </Array>
              <mxPoint x="584.7399999999998" y="630" as="targetPoint" />
            </mxGeometry>
          </mxCell>
        </UserObject>
        <UserObject label="" lucidchartObjectId="E~Kl81oTazK6" id="RaWdWEmhi5QUENWdYcp_-15">
          <mxCell style="html=1;jettySize=18;whiteSpace=wrap;fontSize=13;strokeColor=#5E5E5E;strokeWidth=1.5;rounded=1;arcSize=12;edgeStyle=orthogonalEdgeStyle;startArrow=none;;endArrow=none;;exitX=1;exitY=0.321;exitPerimeter=0;entryX=-0.004;entryY=0.5;entryPerimeter=0;" parent="RaWdWEmhi5QUENWdYcp_-1" source="RaWdWEmhi5QUENWdYcp_-6" target="RaWdWEmhi5QUENWdYcp_-8" edge="1">
            <mxGeometry width="100" height="100" relative="1" as="geometry">
              <Array as="points" />
            </mxGeometry>
          </mxCell>
        </UserObject>
        <UserObject label="" lucidchartObjectId="H~KlzR6Ozc4N" id="RaWdWEmhi5QUENWdYcp_-16">
          <mxCell style="html=1;jettySize=18;whiteSpace=wrap;fontSize=13;strokeColor=#5E5E5E;strokeWidth=1.5;rounded=1;arcSize=12;edgeStyle=orthogonalEdgeStyle;startArrow=none;;endArrow=none;;exitX=1;exitY=0.321;exitPerimeter=0;entryX=-0.004;entryY=0.5;entryPerimeter=0;" parent="RaWdWEmhi5QUENWdYcp_-1" source="RaWdWEmhi5QUENWdYcp_-9" target="RaWdWEmhi5QUENWdYcp_-10" edge="1">
            <mxGeometry width="100" height="100" relative="1" as="geometry">
              <Array as="points" />
            </mxGeometry>
          </mxCell>
        </UserObject>
        <UserObject label="" lucidchartObjectId="K~Kl96OmU~dD" id="RaWdWEmhi5QUENWdYcp_-17">
          <mxCell style="html=1;jettySize=18;whiteSpace=wrap;fontSize=13;strokeColor=#5E5E5E;strokeWidth=1.5;rounded=1;arcSize=12;edgeStyle=orthogonalEdgeStyle;startArrow=none;;endArrow=none;;exitX=1;exitY=0.321;exitPerimeter=0;entryX=-0.004;entryY=0.5;entryPerimeter=0;" parent="RaWdWEmhi5QUENWdYcp_-1" source="RaWdWEmhi5QUENWdYcp_-9" target="RaWdWEmhi5QUENWdYcp_-11" edge="1">
            <mxGeometry width="100" height="100" relative="1" as="geometry">
              <Array as="points" />
            </mxGeometry>
          </mxCell>
        </UserObject>
        <UserObject label="" lucidchartObjectId="OdLl7JB34Oz7" id="RaWdWEmhi5QUENWdYcp_-18">
          <mxCell style="html=1;jettySize=18;whiteSpace=wrap;fontSize=13;strokeColor=#5E5E5E;strokeWidth=1.5;rounded=1;arcSize=12;edgeStyle=orthogonalEdgeStyle;startArrow=none;;endArrow=block;endFill=1;;exitX=0.5;exitY=-0.008;exitPerimeter=0;" parent="RaWdWEmhi5QUENWdYcp_-1" source="RaWdWEmhi5QUENWdYcp_-6" edge="1">
            <mxGeometry width="100" height="100" relative="1" as="geometry">
              <Array as="points" />
              <mxPoint x="300" y="420" as="targetPoint" />
            </mxGeometry>
          </mxCell>
        </UserObject>
        <UserObject label="My Neighborhood Library" lucidchartObjectId="ReLl.DpzkUiB" id="RaWdWEmhi5QUENWdYcp_-19">
          <mxCell style="html=1;overflow=block;blockSpacing=1;whiteSpace=wrap;;whiteSpace=wrap;fontSize=50;fontColor=#333333;fontStyle=1;align=center;spacing=3.8;strokeOpacity=0;fillOpacity=0;rounded=1;absoluteArcSize=1;arcSize=9;fillColor=#ffffff;strokeWidth=6;" parent="RaWdWEmhi5QUENWdYcp_-1" vertex="1">
            <mxGeometry x="1900" y="-20" width="495" height="185" as="geometry" />
          </mxCell>
        </UserObject>
        <UserObject label="Comment" lucidchartObjectId="mALl4-oiVJbZ" id="RaWdWEmhi5QUENWdYcp_-20">
          <mxCell style="html=1;overflow=block;blockSpacing=1;whiteSpace=wrap;ellipse;whiteSpace=wrap;fontSize=23.3;spacing=3.8;strokeColor=#5e5e5e;strokeOpacity=100;fillOpacity=100;rounded=1;absoluteArcSize=1;arcSize=9;fillColor=#a3d977;strokeWidth=2.3;" parent="RaWdWEmhi5QUENWdYcp_-1" vertex="1">
            <mxGeometry x="1321" y="705" width="315" height="60" as="geometry" />
          </mxCell>
        </UserObject>
        <UserObject label="" lucidchartObjectId="SCLlK1LWP5ES" id="RaWdWEmhi5QUENWdYcp_-23">
          <mxCell style="html=1;jettySize=18;whiteSpace=wrap;fontSize=13;strokeColor=#5E5E5E;dashed=1;fixDash=1;strokeWidth=1.5;rounded=1;arcSize=12;edgeStyle=orthogonalEdgeStyle;startArrow=none;;endArrow=block;endFill=1;;exitX=-0.004;exitY=0.5;exitPerimeter=0;entryX=0.5;entryY=-0.019;entryPerimeter=0;" parent="RaWdWEmhi5QUENWdYcp_-1" source="RaWdWEmhi5QUENWdYcp_-20" target="RaWdWEmhi5QUENWdYcp_-8" edge="1">
            <mxGeometry width="100" height="100" relative="1" as="geometry">
              <Array as="points">
                <mxPoint x="1111" y="735" />
                <mxPoint x="1111" y="930" />
                <mxPoint x="744" y="930" />
              </Array>
            </mxGeometry>
          </mxCell>
        </UserObject>
        <UserObject label="Modarate Comments" lucidchartObjectId="KaMliEiTIFQS" id="RaWdWEmhi5QUENWdYcp_-26">
          <mxCell style="html=1;overflow=block;blockSpacing=1;whiteSpace=wrap;ellipse;whiteSpace=wrap;fontSize=23.3;spacing=3.8;strokeColor=#5e5e5e;strokeOpacity=100;fillOpacity=100;rounded=1;absoluteArcSize=1;arcSize=9;fillColor=#99d2f2;strokeWidth=2.3;" parent="RaWdWEmhi5QUENWdYcp_-1" vertex="1">
            <mxGeometry x="586" y="2265" width="315" height="60" as="geometry" />
          </mxCell>
        </UserObject>
        <UserObject label="Subscribe" lucidchartObjectId="neMlNEmHse-s" id="RaWdWEmhi5QUENWdYcp_-28">
          <mxCell style="html=1;overflow=block;blockSpacing=1;whiteSpace=wrap;ellipse;whiteSpace=wrap;fontSize=23.3;spacing=3.8;strokeColor=#5e5e5e;strokeOpacity=100;fillOpacity=100;rounded=1;absoluteArcSize=1;arcSize=9;fillColor=#a3d977;strokeWidth=2.3;" parent="RaWdWEmhi5QUENWdYcp_-1" vertex="1">
            <mxGeometry x="586" y="1280" width="315" height="60" as="geometry" />
          </mxCell>
        </UserObject>
        <UserObject label="" lucidchartObjectId="IfMlNntyzoXz" id="RaWdWEmhi5QUENWdYcp_-29">
          <mxCell style="html=1;jettySize=18;whiteSpace=wrap;fontSize=13;strokeColor=#5E5E5E;strokeWidth=1.5;rounded=1;arcSize=12;edgeStyle=orthogonalEdgeStyle;startArrow=none;;endArrow=none;;exitX=-0.004;exitY=0.5;exitPerimeter=0;entryX=1;entryY=0.321;entryPerimeter=0;" parent="RaWdWEmhi5QUENWdYcp_-1" source="RaWdWEmhi5QUENWdYcp_-26" target="RaWdWEmhi5QUENWdYcp_-9" edge="1">
            <mxGeometry width="100" height="100" relative="1" as="geometry">
              <Array as="points" />
            </mxGeometry>
          </mxCell>
        </UserObject>
        <UserObject label="" lucidchartObjectId="uiMlg4cZLkRG" id="RaWdWEmhi5QUENWdYcp_-30">
          <mxCell style="html=1;jettySize=18;whiteSpace=wrap;fontSize=13;strokeColor=#5E5E5E;dashed=1;fixDash=1;strokeWidth=1.5;rounded=1;arcSize=12;edgeStyle=orthogonalEdgeStyle;startArrow=none;;endArrow=block;endFill=1;;exitX=-0.004;exitY=0.5;exitPerimeter=0;entryX=0.5;entryY=-0.019;entryPerimeter=0;" parent="RaWdWEmhi5QUENWdYcp_-1" source="RaWdWEmhi5QUENWdYcp_-27" target="RaWdWEmhi5QUENWdYcp_-8" edge="1">
            <mxGeometry width="100" height="100" relative="1" as="geometry">
              <Array as="points" />
            </mxGeometry>
          </mxCell>
        </UserObject>
        <UserObject label="" lucidchartObjectId="arMl6zesNDMF" id="RaWdWEmhi5QUENWdYcp_-39">
          <mxCell style="html=1;jettySize=18;whiteSpace=wrap;fontSize=13;strokeColor=#5E5E5E;dashed=1;fixDash=1;strokeWidth=1.5;rounded=1;arcSize=12;edgeStyle=orthogonalEdgeStyle;startArrow=none;;endArrow=block;endFill=1;;exitX=0.5;exitY=1.019;exitPerimeter=0;entryX=0.5;entryY=-0.019;entryPerimeter=0;" parent="RaWdWEmhi5QUENWdYcp_-1" source="RaWdWEmhi5QUENWdYcp_-27" target="RaWdWEmhi5QUENWdYcp_-11" edge="1">
            <mxGeometry width="100" height="100" relative="1" as="geometry">
              <Array as="points">
                <mxPoint x="744" y="1095" />
                <mxPoint x="1029" y="1095" />
                <mxPoint x="1029" y="1440" />
                <mxPoint x="744" y="1440" />
              </Array>
            </mxGeometry>
          </mxCell>
        </UserObject>
        <mxCell id="RaWdWEmhi5QUENWdYcp_-40" value="&amp;lt;&amp;lt;extend&amp;gt;&amp;gt;" style="text;html=1;resizable=0;labelBackgroundColor=#ffffff;align=center;verticalAlign=middle;fontStyle=1;fontColor=#333333;;fontSize=23.3;" parent="RaWdWEmhi5QUENWdYcp_-39" vertex="1">
          <mxGeometry x="0.4989078913656526" relative="1" as="geometry">
            <mxPoint x="-34" as="offset" />
          </mxGeometry>
        </mxCell>
        <mxCell id="vSeY43eChVb6PsUShdBr-6" value="&amp;lt;&amp;lt;extend&amp;gt;&amp;gt;" style="text;html=1;resizable=0;labelBackgroundColor=#ffffff;align=center;verticalAlign=middle;fontStyle=1;fontColor=#333333;;fontSize=23.3;" parent="RaWdWEmhi5QUENWdYcp_-39" vertex="1">
          <mxGeometry x="0.4989078913656526" relative="1" as="geometry">
            <mxPoint x="-143" y="-670" as="offset" />
          </mxGeometry>
        </mxCell>
        <UserObject label="" lucidchartObjectId="6sMlf2mFqdxe" id="RaWdWEmhi5QUENWdYcp_-41">
          <mxCell style="html=1;overflow=block;blockSpacing=1;whiteSpace=wrap;shape=requires;direction=north;whiteSpace=wrap;fontSize=13;spacing=0;strokeColor=#5e5e5e;strokeOpacity=100;rounded=1;absoluteArcSize=1;arcSize=9;rotation=180;strokeWidth=2.3;" parent="RaWdWEmhi5QUENWdYcp_-1" vertex="1">
            <mxGeometry x="120" y="615" width="135" height="1035" as="geometry" />
          </mxCell>
        </UserObject>
        <UserObject label="Need to be logged in" lucidchartObjectId="OtMl6c_RDSWn" id="RaWdWEmhi5QUENWdYcp_-42">
          <mxCell style="html=1;overflow=block;blockSpacing=1;whiteSpace=wrap;;whiteSpace=wrap;fontSize=36.7;fontColor=#333333;align=center;spacing=3.8;strokeOpacity=0;fillOpacity=0;rounded=1;absoluteArcSize=1;arcSize=9;fillColor=#ffffff;strokeWidth=2.3;" parent="RaWdWEmhi5QUENWdYcp_-1" vertex="1">
            <mxGeometry x="-105" y="1085" width="225" height="139" as="geometry" />
          </mxCell>
        </UserObject>
        <UserObject label="Return Book" lucidchartObjectId="VVMl1m7V7SYB" id="RaWdWEmhi5QUENWdYcp_-43">
          <mxCell style="html=1;overflow=block;blockSpacing=1;whiteSpace=wrap;ellipse;whiteSpace=wrap;fontSize=23.3;spacing=3.8;strokeColor=#5e5e5e;strokeOpacity=100;fillOpacity=100;rounded=1;absoluteArcSize=1;arcSize=9;fillColor=#a3d977;strokeWidth=2.3;" parent="RaWdWEmhi5QUENWdYcp_-1" vertex="1">
            <mxGeometry x="1321" y="986" width="315" height="60" as="geometry" />
          </mxCell>
        </UserObject>
        <UserObject label="" lucidchartObjectId="OWMl-1bgkDmO" id="RaWdWEmhi5QUENWdYcp_-44">
          <mxCell style="html=1;jettySize=18;whiteSpace=wrap;fontSize=13;strokeColor=#5E5E5E;dashed=1;fixDash=1;strokeWidth=1.5;rounded=1;arcSize=12;edgeStyle=orthogonalEdgeStyle;startArrow=none;;endArrow=block;endFill=1;;exitX=-0.004;exitY=0.5;exitPerimeter=0;entryX=1.004;entryY=0.5;entryPerimeter=0;" parent="RaWdWEmhi5QUENWdYcp_-1" source="RaWdWEmhi5QUENWdYcp_-43" target="RaWdWEmhi5QUENWdYcp_-8" edge="1">
            <mxGeometry width="100" height="100" relative="1" as="geometry">
              <Array as="points" />
            </mxGeometry>
          </mxCell>
        </UserObject>
        <mxCell id="RaWdWEmhi5QUENWdYcp_-45" value="&amp;lt;&amp;lt;include&amp;gt;&amp;gt;" style="text;html=1;resizable=0;labelBackgroundColor=#ffffff;align=center;verticalAlign=middle;fontStyle=1;fontColor=#333333;;fontSize=23.3;" parent="RaWdWEmhi5QUENWdYcp_-44" vertex="1">
          <mxGeometry x="0.507951439763932" relative="1" as="geometry">
            <mxPoint y="-11.5" as="offset" />
          </mxGeometry>
        </mxCell>
        <UserObject label="Withdraw Book" lucidchartObjectId="x2MlZHwICvsN" id="RaWdWEmhi5QUENWdYcp_-46">
          <mxCell style="html=1;overflow=block;blockSpacing=1;whiteSpace=wrap;ellipse;whiteSpace=wrap;fontSize=23.3;spacing=3.8;strokeColor=#5e5e5e;strokeOpacity=100;fillOpacity=100;rounded=1;absoluteArcSize=1;arcSize=9;fillColor=#a3d977;strokeWidth=2.3;" parent="RaWdWEmhi5QUENWdYcp_-1" vertex="1">
            <mxGeometry x="1321" y="1103" width="315" height="60" as="geometry" />
          </mxCell>
        </UserObject>
        <UserObject label="" lucidchartObjectId="U2Mle9Hp0Y18" id="RaWdWEmhi5QUENWdYcp_-47">
          <mxCell style="html=1;jettySize=18;whiteSpace=wrap;fontSize=13;strokeColor=#5E5E5E;dashed=1;fixDash=1;strokeWidth=1.5;rounded=1;arcSize=12;edgeStyle=orthogonalEdgeStyle;startArrow=none;;endArrow=block;endFill=1;;exitX=-0.004;exitY=0.5;exitPerimeter=0;entryX=1.004;entryY=0.5;entryPerimeter=0;" parent="RaWdWEmhi5QUENWdYcp_-1" source="RaWdWEmhi5QUENWdYcp_-46" target="RaWdWEmhi5QUENWdYcp_-8" edge="1">
            <mxGeometry width="100" height="100" relative="1" as="geometry">
              <Array as="points">
                <mxPoint x="1290" y="1133" />
                <mxPoint x="1290" y="1065" />
                <mxPoint x="919" y="1065" />
                <mxPoint x="919" y="1016" />
              </Array>
            </mxGeometry>
          </mxCell>
        </UserObject>
        <mxCell id="RaWdWEmhi5QUENWdYcp_-48" value="&amp;lt;&amp;lt;include&amp;gt;&amp;gt;" style="text;html=1;resizable=0;labelBackgroundColor=#ffffff;align=center;verticalAlign=middle;fontStyle=1;fontColor=#333333;;fontSize=23.3;" parent="RaWdWEmhi5QUENWdYcp_-47" vertex="1">
          <mxGeometry x="0.5728706410423448" relative="1" as="geometry">
            <mxPoint y="-128.5" as="offset" />
          </mxGeometry>
        </mxCell>
        <UserObject label="Check Withdrawal Delay" lucidchartObjectId="U3Mlyu5kF1vB" id="RaWdWEmhi5QUENWdYcp_-49">
          <mxCell style="html=1;overflow=block;blockSpacing=1;whiteSpace=wrap;ellipse;whiteSpace=wrap;fontSize=23.3;spacing=3.8;strokeColor=#5e5e5e;strokeOpacity=100;fillOpacity=100;rounded=1;absoluteArcSize=1;arcSize=9;fillColor=#99d2f2;strokeWidth=2.3;" parent="RaWdWEmhi5QUENWdYcp_-1" vertex="1">
            <mxGeometry x="586" y="1935" width="315" height="79" as="geometry" />
          </mxCell>
        </UserObject>
        <UserObject label="Check Return Delay" lucidchartObjectId="w5MlEav05f3o" id="RaWdWEmhi5QUENWdYcp_-50">
          <mxCell style="html=1;overflow=block;blockSpacing=1;whiteSpace=wrap;ellipse;whiteSpace=wrap;fontSize=23.3;spacing=3.8;strokeColor=#5e5e5e;strokeOpacity=100;fillOpacity=100;rounded=1;absoluteArcSize=1;arcSize=9;fillColor=#99d2f2;strokeWidth=2.3;" parent="RaWdWEmhi5QUENWdYcp_-1" vertex="1">
            <mxGeometry x="586" y="1815" width="315" height="64" as="geometry" />
          </mxCell>
        </UserObject>
        <UserObject label="" lucidchartObjectId="T5MlwDBcKAdf" id="RaWdWEmhi5QUENWdYcp_-51">
          <mxCell style="html=1;jettySize=18;whiteSpace=wrap;fontSize=13;strokeColor=#5E5E5E;dashed=1;fixDash=1;strokeWidth=1.5;rounded=1;arcSize=12;edgeStyle=orthogonalEdgeStyle;startArrow=none;;endArrow=block;endFill=1;;exitX=0.5;exitY=-0.017;exitPerimeter=0;entryX=1.004;entryY=0.5;entryPerimeter=0;" parent="RaWdWEmhi5QUENWdYcp_-1" source="RaWdWEmhi5QUENWdYcp_-50" target="RaWdWEmhi5QUENWdYcp_-43" edge="1">
            <mxGeometry width="100" height="100" relative="1" as="geometry">
              <Array as="points">
                <mxPoint x="744" y="1763" />
                <mxPoint x="1764" y="1763" />
                <mxPoint x="1764" y="1016" />
              </Array>
            </mxGeometry>
          </mxCell>
        </UserObject>
        <UserObject label="" lucidchartObjectId="j6MlmtL19bzU" id="RaWdWEmhi5QUENWdYcp_-53">
          <mxCell style="html=1;jettySize=18;whiteSpace=wrap;fontSize=13;strokeColor=#5E5E5E;dashed=1;fixDash=1;strokeWidth=1.5;rounded=1;arcSize=12;edgeStyle=orthogonalEdgeStyle;startArrow=none;;endArrow=block;endFill=1;;exitX=1.004;exitY=0.5;exitPerimeter=0;entryX=1.004;entryY=0.5;entryPerimeter=0;" parent="RaWdWEmhi5QUENWdYcp_-1" source="RaWdWEmhi5QUENWdYcp_-49" target="RaWdWEmhi5QUENWdYcp_-46" edge="1">
            <mxGeometry width="100" height="100" relative="1" as="geometry">
              <Array as="points">
                <mxPoint x="1726" y="1975" />
                <mxPoint x="1726" y="1133" />
              </Array>
            </mxGeometry>
          </mxCell>
        </UserObject>
        <mxCell id="RaWdWEmhi5QUENWdYcp_-54" value="&amp;lt;&amp;lt;include&amp;gt;&amp;gt;" style="text;html=1;resizable=0;labelBackgroundColor=#ffffff;align=center;verticalAlign=middle;fontStyle=1;fontColor=#333333;;fontSize=23.3;" parent="RaWdWEmhi5QUENWdYcp_-53" vertex="1">
          <mxGeometry x="-0.8919395657404133" relative="1" as="geometry">
            <mxPoint x="-770.5" as="offset" />
          </mxGeometry>
        </mxCell>
        <UserObject label="" lucidchartObjectId="OnOl5Tw52fpq" id="RaWdWEmhi5QUENWdYcp_-56">
          <mxCell style="html=1;jettySize=18;whiteSpace=wrap;fontSize=13;strokeColor=#5E5E5E;dashed=1;fixDash=1;strokeWidth=1.5;rounded=1;arcSize=12;edgeStyle=orthogonalEdgeStyle;startArrow=none;;endArrow=block;endFill=1;;exitX=1.004;exitY=0.5;exitPerimeter=0;entryX=1.004;entryY=0.5;entryPerimeter=0;" parent="RaWdWEmhi5QUENWdYcp_-1" source="RaWdWEmhi5QUENWdYcp_-26" target="RaWdWEmhi5QUENWdYcp_-20" edge="1">
            <mxGeometry width="100" height="100" relative="1" as="geometry">
              <Array as="points">
                <mxPoint x="1801" y="2295" />
                <mxPoint x="1801" y="735" />
              </Array>
            </mxGeometry>
          </mxCell>
        </UserObject>
        <mxCell id="RaWdWEmhi5QUENWdYcp_-57" value="&amp;lt;&amp;lt;include&amp;gt;&amp;gt;" style="text;html=1;resizable=0;labelBackgroundColor=#ffffff;align=center;verticalAlign=middle;fontStyle=1;fontColor=#333333;;fontSize=23.3;" parent="RaWdWEmhi5QUENWdYcp_-56" vertex="1">
          <mxGeometry x="-0.918802782569829" relative="1" as="geometry">
            <mxPoint x="-770.5" as="offset" />
          </mxGeometry>
        </mxCell>
        <UserObject label="" lucidchartObjectId="dpOlyCqakFYp" id="RaWdWEmhi5QUENWdYcp_-58">
          <mxCell style="html=1;jettySize=18;whiteSpace=wrap;fontSize=13;strokeColor=#5E5E5E;dashed=1;fixDash=1;strokeWidth=1.5;rounded=1;arcSize=12;edgeStyle=orthogonalEdgeStyle;startArrow=none;;endArrow=block;endFill=1;;exitX=0.5;exitY=-0.019;exitPerimeter=0;" parent="RaWdWEmhi5QUENWdYcp_-1" source="RaWdWEmhi5QUENWdYcp_-28" edge="1">
            <mxGeometry width="100" height="100" relative="1" as="geometry">
              <Array as="points" />
              <mxPoint x="744" y="1047" as="targetPoint" />
            </mxGeometry>
          </mxCell>
        </UserObject>
        <mxCell id="RaWdWEmhi5QUENWdYcp_-59" value="&amp;lt;&amp;lt;include&amp;gt;&amp;gt;" style="text;html=1;resizable=0;labelBackgroundColor=#ffffff;align=center;verticalAlign=middle;fontStyle=1;fontColor=#333333;;fontSize=23.3;" parent="RaWdWEmhi5QUENWdYcp_-58" vertex="1">
          <mxGeometry x="-0.7908690432569969" relative="1" as="geometry">
            <mxPoint x="-35.5" as="offset" />
          </mxGeometry>
        </mxCell>
        <UserObject label="" lucidchartObjectId="kqOlqMJKRBn9" id="RaWdWEmhi5QUENWdYcp_-60">
          <mxCell style="html=1;jettySize=18;whiteSpace=wrap;fontSize=13;strokeColor=#5E5E5E;strokeWidth=1.5;rounded=1;arcSize=12;edgeStyle=orthogonalEdgeStyle;startArrow=none;;endArrow=none;;exitX=1;exitY=0.335;exitPerimeter=0;entryX=-0.004;entryY=0.5;entryPerimeter=0;" parent="RaWdWEmhi5QUENWdYcp_-1" source="RaWdWEmhi5QUENWdYcp_-6" target="RaWdWEmhi5QUENWdYcp_-28" edge="1">
            <mxGeometry width="100" height="100" relative="1" as="geometry">
              <Array as="points" />
            </mxGeometry>
          </mxCell>
        </UserObject>
        <UserObject label="" lucidchartObjectId="2uOlO4AVq3cS" id="RaWdWEmhi5QUENWdYcp_-61">
          <mxCell style="html=1;jettySize=18;whiteSpace=wrap;fontSize=13;strokeColor=#5E5E5E;strokeWidth=1.5;rounded=1;arcSize=12;edgeStyle=orthogonalEdgeStyle;startArrow=none;;endArrow=none;;exitX=1;exitY=0.321;exitPerimeter=0;entryX=-0.004;entryY=0.5;entryPerimeter=0;" parent="RaWdWEmhi5QUENWdYcp_-1" source="RaWdWEmhi5QUENWdYcp_-9" target="RaWdWEmhi5QUENWdYcp_-50" edge="1">
            <mxGeometry width="100" height="100" relative="1" as="geometry">
              <Array as="points" />
            </mxGeometry>
          </mxCell>
        </UserObject>
        <UserObject label="" lucidchartObjectId="-uOlZ-Hd1cpz" id="RaWdWEmhi5QUENWdYcp_-62">
          <mxCell style="html=1;jettySize=18;whiteSpace=wrap;fontSize=13;strokeColor=#5E5E5E;strokeWidth=1.5;rounded=1;arcSize=12;edgeStyle=orthogonalEdgeStyle;startArrow=none;;endArrow=none;;exitX=1;exitY=0.321;exitPerimeter=0;entryX=-0.004;entryY=0.5;entryPerimeter=0;" parent="RaWdWEmhi5QUENWdYcp_-1" source="RaWdWEmhi5QUENWdYcp_-9" target="RaWdWEmhi5QUENWdYcp_-49" edge="1">
            <mxGeometry width="100" height="100" relative="1" as="geometry">
              <Array as="points" />
            </mxGeometry>
          </mxCell>
        </UserObject>
        <UserObject label="" lucidchartObjectId="~wOl4bhNPSWs" id="RaWdWEmhi5QUENWdYcp_-63">
          <mxCell style="html=1;jettySize=18;whiteSpace=wrap;fontSize=13;strokeColor=#5E5E5E;strokeWidth=1.5;rounded=1;arcSize=12;edgeStyle=orthogonalEdgeStyle;startArrow=none;;endArrow=none;;exitX=1;exitY=0.335;exitPerimeter=0;entryX=-0.004;entryY=0.5;entryPerimeter=0;" parent="RaWdWEmhi5QUENWdYcp_-1" source="RaWdWEmhi5QUENWdYcp_-6" target="RaWdWEmhi5QUENWdYcp_-27" edge="1">
            <mxGeometry width="100" height="100" relative="1" as="geometry">
              <Array as="points" />
            </mxGeometry>
          </mxCell>
        </UserObject>
        <UserObject label="Request Penality" lucidchartObjectId="cWOlf-0sLFXi" id="RaWdWEmhi5QUENWdYcp_-64">
          <mxCell style="html=1;overflow=block;blockSpacing=1;whiteSpace=wrap;ellipse;whiteSpace=wrap;fontSize=23.3;spacing=3.8;strokeColor=#5e5e5e;strokeOpacity=100;fillOpacity=100;rounded=1;absoluteArcSize=1;arcSize=9;fillColor=#99d2f2;strokeWidth=2.3;" parent="RaWdWEmhi5QUENWdYcp_-1" vertex="1">
            <mxGeometry x="1156" y="1815" width="315" height="64" as="geometry" />
          </mxCell>
        </UserObject>
        <UserObject label="" lucidchartObjectId="vWOlFuQ8pUAC" id="RaWdWEmhi5QUENWdYcp_-65">
          <mxCell style="html=1;jettySize=18;whiteSpace=wrap;fontSize=13;strokeColor=#5E5E5E;dashed=1;fixDash=1;strokeWidth=1.5;rounded=1;arcSize=12;edgeStyle=orthogonalEdgeStyle;startArrow=none;;endArrow=block;endFill=1;;exitX=-0.004;exitY=0.5;exitPerimeter=0;entryX=1.004;entryY=0.5;entryPerimeter=0;" parent="RaWdWEmhi5QUENWdYcp_-1" source="RaWdWEmhi5QUENWdYcp_-64" target="RaWdWEmhi5QUENWdYcp_-50" edge="1">
            <mxGeometry width="100" height="100" relative="1" as="geometry">
              <Array as="points" />
            </mxGeometry>
          </mxCell>
        </UserObject>
        <mxCell id="RaWdWEmhi5QUENWdYcp_-66" value="&amp;lt;&amp;lt;extend&amp;gt;&amp;gt;" style="text;html=1;resizable=0;labelBackgroundColor=#ffffff;align=center;verticalAlign=middle;fontStyle=1;fontColor=#333333;;fontSize=23.3;" parent="RaWdWEmhi5QUENWdYcp_-65" vertex="1">
          <mxGeometry x="0.10341605013030164" relative="1" as="geometry">
            <mxPoint y="-11.5" as="offset" />
          </mxGeometry>
        </mxCell>
        <UserObject label="" lucidchartObjectId="_WOlEfP9Scf2" id="RaWdWEmhi5QUENWdYcp_-67">
          <mxCell style="html=1;jettySize=18;whiteSpace=wrap;fontSize=13;strokeColor=#5E5E5E;dashed=1;fixDash=1;strokeWidth=1.5;rounded=1;arcSize=12;edgeStyle=orthogonalEdgeStyle;startArrow=none;;endArrow=block;endFill=1;;exitX=1.004;exitY=0.5;exitPerimeter=0;entryX=0.5;entryY=-0.017;entryPerimeter=0;" parent="RaWdWEmhi5QUENWdYcp_-1" source="RaWdWEmhi5QUENWdYcp_-27" target="RaWdWEmhi5QUENWdYcp_-64" edge="1">
            <mxGeometry width="100" height="100" relative="1" as="geometry">
              <Array as="points">
                <mxPoint x="1149" y="810" />
                <mxPoint x="1149" y="1688" />
                <mxPoint x="1314" y="1688" />
              </Array>
            </mxGeometry>
          </mxCell>
        </UserObject>
        <mxCell id="RaWdWEmhi5QUENWdYcp_-68" value="&amp;lt;&amp;lt;include&amp;gt;&amp;gt;" style="text;html=1;resizable=0;labelBackgroundColor=#ffffff;align=center;verticalAlign=middle;fontStyle=1;fontColor=#333333;;fontSize=23.3;" parent="RaWdWEmhi5QUENWdYcp_-67" vertex="1">
          <mxGeometry x="-0.8635711703053242" relative="1" as="geometry">
            <mxPoint x="276" y="20" as="offset" />
          </mxGeometry>
        </mxCell>
        <mxCell id="BS1npkMwJHrnbTv700YH-0" style="edgeStyle=orthogonalEdgeStyle;rounded=0;orthogonalLoop=1;jettySize=auto;html=1;exitX=0;exitY=0.5;exitDx=0;exitDy=0;entryX=0.5;entryY=0;entryDx=0;entryDy=0;entryPerimeter=0;fontSize=23;" parent="RaWdWEmhi5QUENWdYcp_-1" source="RaWdWEmhi5QUENWdYcp_-69" target="RaWdWEmhi5QUENWdYcp_-5" edge="1">
          <mxGeometry relative="1" as="geometry" />
        </mxCell>
        <mxCell id="KLDOS2Wo6g81Vw3YA6Bv-0" value="&lt;font style=&quot;font-size: 23.3px&quot;&gt;&lt;b&gt;&amp;lt;&amp;lt;extend&amp;gt;&amp;gt;&lt;/b&gt;&lt;/font&gt;" style="edgeStyle=orthogonalEdgeStyle;rounded=0;orthogonalLoop=1;jettySize=auto;html=1;exitX=1;exitY=1;exitDx=0;exitDy=0;entryX=0;entryY=0.5;entryDx=0;entryDy=0;dashed=1;fontSize=23;endArrow=none;endFill=0;startArrow=classic;startFill=1;" parent="RaWdWEmhi5QUENWdYcp_-1" source="RaWdWEmhi5QUENWdYcp_-69" target="RaWdWEmhi5QUENWdYcp_-76" edge="1">
          <mxGeometry relative="1" as="geometry" />
        </mxCell>
        <UserObject label="List Books" lucidchartObjectId="FEPlZ8h1THUV" id="RaWdWEmhi5QUENWdYcp_-69">
          <mxCell style="html=1;overflow=block;blockSpacing=1;whiteSpace=wrap;ellipse;whiteSpace=wrap;fontSize=23.3;spacing=3.8;strokeColor=#5e5e5e;strokeOpacity=100;fillOpacity=100;rounded=1;absoluteArcSize=1;arcSize=9;fillColor=#ffdba9;strokeWidth=2.3;" parent="RaWdWEmhi5QUENWdYcp_-1" vertex="1">
            <mxGeometry x="630" y="120" width="315" height="75" as="geometry" />
          </mxCell>
        </UserObject>
        <UserObject label="Show book infomations" lucidchartObjectId="GFPlNP1U4LBn" id="RaWdWEmhi5QUENWdYcp_-70">
          <mxCell style="html=1;overflow=block;blockSpacing=1;whiteSpace=wrap;ellipse;whiteSpace=wrap;fontSize=23.3;spacing=3.8;strokeColor=#5e5e5e;strokeOpacity=100;fillOpacity=100;rounded=1;absoluteArcSize=1;arcSize=9;fillColor=#ffdba9;strokeWidth=2.3;" parent="RaWdWEmhi5QUENWdYcp_-1" vertex="1">
            <mxGeometry x="1080" y="120" width="315" height="75" as="geometry" />
          </mxCell>
        </UserObject>
        <UserObject label="Show availability" lucidchartObjectId="-GPl2Bjd-L9b" id="RaWdWEmhi5QUENWdYcp_-71">
          <mxCell style="html=1;overflow=block;blockSpacing=1;whiteSpace=wrap;ellipse;whiteSpace=wrap;fontSize=23.3;spacing=3.8;strokeColor=#5e5e5e;strokeOpacity=100;fillOpacity=100;rounded=1;absoluteArcSize=1;arcSize=9;fillColor=#ffdba9;strokeWidth=2.3;" parent="RaWdWEmhi5QUENWdYcp_-1" vertex="1">
            <mxGeometry x="1575" y="120" width="315" height="75" as="geometry" />
          </mxCell>
        </UserObject>
        <UserObject label="" lucidchartObjectId="zHPlzgdWA4ae" id="RaWdWEmhi5QUENWdYcp_-72">
          <mxCell style="html=1;jettySize=18;whiteSpace=wrap;fontSize=13;strokeColor=#5E5E5E;dashed=1;fixDash=1;strokeWidth=1.5;rounded=1;arcSize=12;edgeStyle=orthogonalEdgeStyle;startArrow=none;;endArrow=block;endFill=1;;exitX=1.004;exitY=0.5;exitPerimeter=0;entryX=-0.004;entryY=0.5;entryPerimeter=0;" parent="RaWdWEmhi5QUENWdYcp_-1" source="RaWdWEmhi5QUENWdYcp_-69" target="RaWdWEmhi5QUENWdYcp_-70" edge="1">
            <mxGeometry width="100" height="100" relative="1" as="geometry">
              <Array as="points" />
            </mxGeometry>
          </mxCell>
        </UserObject>
        <mxCell id="RaWdWEmhi5QUENWdYcp_-73" value="&amp;lt;&amp;lt;extend&amp;gt;&amp;gt;" style="text;html=1;resizable=0;labelBackgroundColor=#ffffff;align=center;verticalAlign=middle;fontStyle=1;fontColor=#333333;;fontSize=23.3;" parent="RaWdWEmhi5QUENWdYcp_-72" vertex="1">
          <mxGeometry x="-0.11014201928586365" relative="1" as="geometry">
            <mxPoint y="-11.5" as="offset" />
          </mxGeometry>
        </mxCell>
        <UserObject label="" lucidchartObjectId="TIPl2JkJ3Fbr" id="RaWdWEmhi5QUENWdYcp_-74">
          <mxCell style="html=1;jettySize=18;whiteSpace=wrap;fontSize=13;strokeColor=#5E5E5E;dashed=1;fixDash=1;strokeWidth=1.5;rounded=1;arcSize=12;edgeStyle=orthogonalEdgeStyle;startArrow=none;;endArrow=block;endFill=1;;exitX=1.004;exitY=0.5;exitPerimeter=0;entryX=-0.004;entryY=0.5;entryPerimeter=0;" parent="RaWdWEmhi5QUENWdYcp_-1" source="RaWdWEmhi5QUENWdYcp_-70" target="RaWdWEmhi5QUENWdYcp_-71" edge="1">
            <mxGeometry width="100" height="100" relative="1" as="geometry">
              <Array as="points" />
            </mxGeometry>
          </mxCell>
        </UserObject>
        <mxCell id="RaWdWEmhi5QUENWdYcp_-75" value="&amp;lt;&amp;lt;extend&amp;gt;&amp;gt;" style="text;html=1;resizable=0;labelBackgroundColor=#ffffff;align=center;verticalAlign=middle;fontStyle=1;fontColor=#333333;;fontSize=23.3;" parent="RaWdWEmhi5QUENWdYcp_-74" vertex="1">
          <mxGeometry x="-0.1412332839564373" relative="1" as="geometry">
            <mxPoint y="-11.5" as="offset" />
          </mxGeometry>
        </mxCell>
        <UserObject label="Search with filters" lucidchartObjectId="bKPlHuerI7H4" id="RaWdWEmhi5QUENWdYcp_-76">
          <mxCell style="html=1;overflow=block;blockSpacing=1;whiteSpace=wrap;ellipse;whiteSpace=wrap;fontSize=23.3;spacing=3.8;strokeColor=#5e5e5e;strokeOpacity=100;fillOpacity=100;rounded=1;absoluteArcSize=1;arcSize=9;fillColor=#ffdba9;strokeWidth=2.3;" parent="RaWdWEmhi5QUENWdYcp_-1" vertex="1">
            <mxGeometry x="1080" y="285" width="315" height="75" as="geometry" />
          </mxCell>
        </UserObject>
        <mxCell id="vSeY43eChVb6PsUShdBr-5" style="edgeStyle=orthogonalEdgeStyle;rounded=0;orthogonalLoop=1;jettySize=auto;html=1;exitX=0.5;exitY=1;exitDx=0;exitDy=0;entryX=0.5;entryY=0;entryDx=0;entryDy=0;dashed=1;" parent="RaWdWEmhi5QUENWdYcp_-1" source="vSeY43eChVb6PsUShdBr-0" target="RaWdWEmhi5QUENWdYcp_-8" edge="1">
          <mxGeometry relative="1" as="geometry" />
        </mxCell>
        <mxCell id="vSeY43eChVb6PsUShdBr-1" value="" style="html=1;jettySize=18;whiteSpace=wrap;fontSize=13;strokeColor=#5E5E5E;dashed=1;fixDash=1;strokeWidth=1.5;rounded=1;arcSize=12;edgeStyle=orthogonalEdgeStyle;startArrow=none;;endArrow=none;endFill=1;;exitX=-0.004;exitY=0.5;exitPerimeter=0;entryX=0.5;entryY=-0.019;entryPerimeter=0;" parent="RaWdWEmhi5QUENWdYcp_-1" source="vSeY43eChVb6PsUShdBr-0" target="RaWdWEmhi5QUENWdYcp_-27" edge="1">
          <mxGeometry width="100" height="100" relative="1" as="geometry">
            <Array as="points" />
            <mxPoint x="1319.7399999999998" y="855" as="sourcePoint" />
            <mxPoint x="743.5" y="984.8600000000006" as="targetPoint" />
          </mxGeometry>
        </mxCell>
        <UserObject label="Pay Penalty" lucidchartObjectId="rbMlawj3ws9Q" id="RaWdWEmhi5QUENWdYcp_-27">
          <mxCell style="html=1;overflow=block;blockSpacing=1;whiteSpace=wrap;ellipse;whiteSpace=wrap;fontSize=23.3;spacing=3.8;strokeColor=#5e5e5e;strokeOpacity=100;fillOpacity=100;rounded=1;absoluteArcSize=1;arcSize=9;fillColor=#a3d977;strokeWidth=2.3;" parent="RaWdWEmhi5QUENWdYcp_-1" vertex="1">
            <mxGeometry x="620" y="1060" width="300" height="60" as="geometry" />
          </mxCell>
        </UserObject>
        <mxCell id="KLDOS2Wo6g81Vw3YA6Bv-5" value="" style="html=1;jettySize=18;whiteSpace=wrap;fontSize=13;strokeColor=#5E5E5E;dashed=1;fixDash=1;strokeWidth=1.5;rounded=1;arcSize=12;edgeStyle=orthogonalEdgeStyle;startArrow=none;;endArrow=none;endFill=1;;exitX=0.5;exitY=1.019;exitPerimeter=0;entryX=0.5;entryY=-0.019;entryPerimeter=0;" parent="RaWdWEmhi5QUENWdYcp_-1" source="RaWdWEmhi5QUENWdYcp_-8" target="RaWdWEmhi5QUENWdYcp_-27" edge="1">
          <mxGeometry width="100" height="100" relative="1" as="geometry">
            <Array as="points" />
            <mxPoint x="807.5" y="811.1399999999994" as="sourcePoint" />
            <mxPoint x="743.5" y="1483.8600000000006" as="targetPoint" />
          </mxGeometry>
        </mxCell>
        <mxCell id="GDo0f7VdCUJDe8VOS2yb-0" style="edgeStyle=orthogonalEdgeStyle;rounded=0;orthogonalLoop=1;jettySize=auto;html=1;exitX=0;exitY=0.5;exitDx=0;exitDy=0;fontSize=23.3;startArrow=classic;startFill=1;endArrow=none;endFill=0;" parent="RaWdWEmhi5QUENWdYcp_-1" source="vSeY43eChVb6PsUShdBr-0" target="RaWdWEmhi5QUENWdYcp_-6" edge="1">
          <mxGeometry relative="1" as="geometry" />
        </mxCell>
        <UserObject label="Rent Book" lucidchartObjectId="p_Kl38Mi0tr~" id="vSeY43eChVb6PsUShdBr-0">
          <mxCell style="html=1;overflow=block;blockSpacing=1;whiteSpace=wrap;ellipse;whiteSpace=wrap;fontSize=23.3;spacing=3.8;strokeColor=#5e5e5e;strokeOpacity=100;fillOpacity=100;rounded=1;absoluteArcSize=1;arcSize=9;fillColor=#a3d977;strokeWidth=2.3;" parent="RaWdWEmhi5QUENWdYcp_-1" vertex="1">
            <mxGeometry x="670" y="820" width="315" height="60" as="geometry" />
          </mxCell>
        </UserObject>
      </root>
    </mxGraphModel>
  </diagram>
  <diagram name="Copy of UML User Cases Rent" id="SaQh0ZzgilrT_KfBNxFI">
    <mxGraphModel dx="3694" dy="2624" grid="1" gridSize="10" guides="1" tooltips="1" connect="1" arrows="1" fold="1" page="1" pageScale="1" pageWidth="850" pageHeight="1100" math="0" shadow="0">
      <root>
        <mxCell id="T06T5fpWgnhj3CMw_iUQ-0" />
        <mxCell id="T06T5fpWgnhj3CMw_iUQ-1" parent="T06T5fpWgnhj3CMw_iUQ-0" />
        <UserObject label="" lucidchartObjectId="3ELl95lbGf7W" id="T06T5fpWgnhj3CMw_iUQ-2">
          <mxCell style="html=1;overflow=block;blockSpacing=1;whiteSpace=wrap;;whiteSpace=wrap;fontSize=13;align=center;spacing=3.8;strokeColor=#5e5e5e;strokeOpacity=100;fillOpacity=100;rounded=1;absoluteArcSize=1;arcSize=9;fillColor=#e5e5e5;strokeWidth=2.3;" vertex="1" parent="T06T5fpWgnhj3CMw_iUQ-1">
            <mxGeometry x="610" y="-40" width="1810" height="2310" as="geometry" />
          </mxCell>
        </UserObject>
        <UserObject label="Get Library Informations" lucidchartObjectId="a8KlBbp7x2-D" id="T06T5fpWgnhj3CMw_iUQ-3">
          <mxCell style="html=1;overflow=block;blockSpacing=1;whiteSpace=wrap;ellipse;whiteSpace=wrap;fontSize=23.3;spacing=3.8;strokeColor=#5e5e5e;strokeOpacity=100;fillOpacity=100;rounded=1;absoluteArcSize=1;arcSize=9;fillColor=#ffdba9;strokeWidth=2.3;" vertex="1" parent="T06T5fpWgnhj3CMw_iUQ-1">
            <mxGeometry x="650" y="270" width="315" height="75" as="geometry" />
          </mxCell>
        </UserObject>
        <UserObject label="Register" lucidchartObjectId="A8KlpCWkmG7h" id="T06T5fpWgnhj3CMw_iUQ-4">
          <mxCell style="html=1;overflow=block;blockSpacing=1;whiteSpace=wrap;ellipse;whiteSpace=wrap;fontSize=23.3;spacing=3.8;strokeColor=#5e5e5e;strokeOpacity=100;fillOpacity=100;rounded=1;absoluteArcSize=1;arcSize=9;fillColor=#ffdba9;strokeWidth=2.3;" vertex="1" parent="T06T5fpWgnhj3CMw_iUQ-1">
            <mxGeometry x="650" y="420" width="315" height="75" as="geometry" />
          </mxCell>
        </UserObject>
        <mxCell id="VySXbIE06S64cNNYJAsZ-1" style="edgeStyle=orthogonalEdgeStyle;rounded=0;orthogonalLoop=1;jettySize=auto;html=1;exitX=1;exitY=0.3333333333333333;exitDx=0;exitDy=0;exitPerimeter=0;entryX=0;entryY=0.5;entryDx=0;entryDy=0;endArrow=none;endFill=0;endSize=20;" edge="1" parent="T06T5fpWgnhj3CMw_iUQ-1" source="T06T5fpWgnhj3CMw_iUQ-5" target="T06T5fpWgnhj3CMw_iUQ-56">
          <mxGeometry relative="1" as="geometry" />
        </mxCell>
        <mxCell id="VySXbIE06S64cNNYJAsZ-2" style="edgeStyle=orthogonalEdgeStyle;rounded=0;orthogonalLoop=1;jettySize=auto;html=1;exitX=1;exitY=0.3333333333333333;exitDx=0;exitDy=0;exitPerimeter=0;entryX=0;entryY=0.5;entryDx=0;entryDy=0;endArrow=none;endFill=0;endSize=20;" edge="1" parent="T06T5fpWgnhj3CMw_iUQ-1" source="T06T5fpWgnhj3CMw_iUQ-5" target="T06T5fpWgnhj3CMw_iUQ-3">
          <mxGeometry relative="1" as="geometry" />
        </mxCell>
        <mxCell id="VySXbIE06S64cNNYJAsZ-3" style="edgeStyle=orthogonalEdgeStyle;rounded=0;orthogonalLoop=1;jettySize=auto;html=1;exitX=1;exitY=0.3333333333333333;exitDx=0;exitDy=0;exitPerimeter=0;entryX=0;entryY=0.5;entryDx=0;entryDy=0;endArrow=none;endFill=0;endSize=20;" edge="1" parent="T06T5fpWgnhj3CMw_iUQ-1" source="T06T5fpWgnhj3CMw_iUQ-5" target="T06T5fpWgnhj3CMw_iUQ-4">
          <mxGeometry relative="1" as="geometry" />
        </mxCell>
        <UserObject label="Visitor" lucidchartObjectId="Y8KlxJXvXmYg" id="T06T5fpWgnhj3CMw_iUQ-5">
          <mxCell style="html=1;overflow=block;blockSpacing=1;whiteSpace=wrap;shape=umlActor;labelPosition=center;verticalLabelPosition=bottom;verticalAlign=top;whiteSpace=nowrap;whiteSpace=wrap;fontSize=23.3;fontColor=#333333;align=center;spacing=0;strokeColor=#5e5e5e;strokeOpacity=100;fillOpacity=100;rounded=1;absoluteArcSize=1;arcSize=9;fillColor=#ffdba9;strokeWidth=2.3;" vertex="1" parent="T06T5fpWgnhj3CMw_iUQ-1">
            <mxGeometry x="270" y="230" width="60" height="135" as="geometry" />
          </mxCell>
        </UserObject>
        <mxCell id="VySXbIE06S64cNNYJAsZ-4" style="edgeStyle=orthogonalEdgeStyle;rounded=0;orthogonalLoop=1;jettySize=auto;html=1;exitX=1;exitY=0.3333333333333333;exitDx=0;exitDy=0;exitPerimeter=0;entryX=0;entryY=0.5;entryDx=0;entryDy=0;endArrow=none;endFill=0;endSize=20;" edge="1" parent="T06T5fpWgnhj3CMw_iUQ-1" source="T06T5fpWgnhj3CMw_iUQ-6" target="T06T5fpWgnhj3CMw_iUQ-7">
          <mxGeometry relative="1" as="geometry" />
        </mxCell>
        <mxCell id="VySXbIE06S64cNNYJAsZ-5" style="edgeStyle=orthogonalEdgeStyle;rounded=0;orthogonalLoop=1;jettySize=auto;html=1;exitX=1;exitY=0.3333333333333333;exitDx=0;exitDy=0;exitPerimeter=0;entryX=0;entryY=0.5;entryDx=0;entryDy=0;endArrow=none;endFill=0;endSize=20;" edge="1" parent="T06T5fpWgnhj3CMw_iUQ-1" source="T06T5fpWgnhj3CMw_iUQ-6" target="T06T5fpWgnhj3CMw_iUQ-69">
          <mxGeometry relative="1" as="geometry" />
        </mxCell>
        <mxCell id="VySXbIE06S64cNNYJAsZ-6" style="edgeStyle=orthogonalEdgeStyle;rounded=0;orthogonalLoop=1;jettySize=auto;html=1;exitX=1;exitY=0.3333333333333333;exitDx=0;exitDy=0;exitPerimeter=0;endArrow=none;endFill=0;endSize=20;" edge="1" parent="T06T5fpWgnhj3CMw_iUQ-1" source="T06T5fpWgnhj3CMw_iUQ-6" target="T06T5fpWgnhj3CMw_iUQ-66">
          <mxGeometry relative="1" as="geometry">
            <Array as="points">
              <mxPoint x="490" y="1035" />
              <mxPoint x="490" y="1270" />
            </Array>
          </mxGeometry>
        </mxCell>
        <mxCell id="VySXbIE06S64cNNYJAsZ-7" style="edgeStyle=orthogonalEdgeStyle;rounded=0;orthogonalLoop=1;jettySize=auto;html=1;exitX=1;exitY=0.3333333333333333;exitDx=0;exitDy=0;exitPerimeter=0;entryX=0;entryY=0.5;entryDx=0;entryDy=0;endArrow=none;endFill=0;endSize=20;" edge="1" parent="T06T5fpWgnhj3CMw_iUQ-1" source="T06T5fpWgnhj3CMw_iUQ-6" target="T06T5fpWgnhj3CMw_iUQ-22">
          <mxGeometry relative="1" as="geometry">
            <Array as="points">
              <mxPoint x="490" y="1035" />
              <mxPoint x="490" y="1130" />
            </Array>
          </mxGeometry>
        </mxCell>
        <UserObject label="Regitered User" lucidchartObjectId="Q9KlFrLedxem" id="T06T5fpWgnhj3CMw_iUQ-6">
          <mxCell style="html=1;overflow=block;blockSpacing=1;whiteSpace=wrap;shape=umlActor;labelPosition=center;verticalLabelPosition=bottom;verticalAlign=top;whiteSpace=nowrap;whiteSpace=wrap;fontSize=23.3;fontColor=#333333;align=center;spacing=0;strokeColor=#5e5e5e;strokeOpacity=100;fillOpacity=100;rounded=1;absoluteArcSize=1;arcSize=9;fillColor=#a3d977;strokeWidth=2.3;" vertex="1" parent="T06T5fpWgnhj3CMw_iUQ-1">
            <mxGeometry x="270" y="990" width="60" height="135" as="geometry" />
          </mxCell>
        </UserObject>
        <UserObject label="Reserve Book" lucidchartObjectId="p_Kl38Mi0tr~" id="T06T5fpWgnhj3CMw_iUQ-7">
          <mxCell style="html=1;overflow=block;blockSpacing=1;whiteSpace=wrap;ellipse;whiteSpace=wrap;fontSize=23.3;spacing=3.8;strokeColor=#5e5e5e;strokeOpacity=100;fillOpacity=100;rounded=1;absoluteArcSize=1;arcSize=9;fillColor=#a3d977;strokeWidth=2.3;" vertex="1" parent="T06T5fpWgnhj3CMw_iUQ-1">
            <mxGeometry x="650" y="780" width="315" height="60" as="geometry" />
          </mxCell>
        </UserObject>
        <mxCell id="VySXbIE06S64cNNYJAsZ-8" style="edgeStyle=orthogonalEdgeStyle;rounded=0;orthogonalLoop=1;jettySize=auto;html=1;exitX=1;exitY=0.3333333333333333;exitDx=0;exitDy=0;exitPerimeter=0;entryX=0;entryY=0.5;entryDx=0;entryDy=0;endArrow=none;endFill=0;endSize=20;" edge="1" parent="T06T5fpWgnhj3CMw_iUQ-1" source="T06T5fpWgnhj3CMw_iUQ-8" target="T06T5fpWgnhj3CMw_iUQ-10">
          <mxGeometry relative="1" as="geometry" />
        </mxCell>
        <mxCell id="VySXbIE06S64cNNYJAsZ-9" style="edgeStyle=orthogonalEdgeStyle;rounded=0;orthogonalLoop=1;jettySize=auto;html=1;exitX=1;exitY=0.3333333333333333;exitDx=0;exitDy=0;exitPerimeter=0;entryX=0;entryY=0.5;entryDx=0;entryDy=0;endArrow=none;endFill=0;endSize=20;" edge="1" parent="T06T5fpWgnhj3CMw_iUQ-1" source="T06T5fpWgnhj3CMw_iUQ-8" target="T06T5fpWgnhj3CMw_iUQ-37">
          <mxGeometry relative="1" as="geometry" />
        </mxCell>
        <mxCell id="VySXbIE06S64cNNYJAsZ-10" style="edgeStyle=orthogonalEdgeStyle;rounded=0;orthogonalLoop=1;jettySize=auto;html=1;exitX=1;exitY=0.3333333333333333;exitDx=0;exitDy=0;exitPerimeter=0;entryX=0;entryY=0.5;entryDx=0;entryDy=0;endArrow=none;endFill=0;endSize=20;" edge="1" parent="T06T5fpWgnhj3CMw_iUQ-1" source="T06T5fpWgnhj3CMw_iUQ-8" target="T06T5fpWgnhj3CMw_iUQ-36">
          <mxGeometry relative="1" as="geometry" />
        </mxCell>
        <mxCell id="VySXbIE06S64cNNYJAsZ-11" style="edgeStyle=orthogonalEdgeStyle;rounded=0;orthogonalLoop=1;jettySize=auto;html=1;exitX=1;exitY=0.3333333333333333;exitDx=0;exitDy=0;exitPerimeter=0;entryX=0;entryY=0.5;entryDx=0;entryDy=0;endArrow=none;endFill=0;endSize=20;" edge="1" parent="T06T5fpWgnhj3CMw_iUQ-1" source="T06T5fpWgnhj3CMw_iUQ-8" target="T06T5fpWgnhj3CMw_iUQ-9">
          <mxGeometry relative="1" as="geometry" />
        </mxCell>
        <mxCell id="VySXbIE06S64cNNYJAsZ-12" style="edgeStyle=orthogonalEdgeStyle;rounded=0;orthogonalLoop=1;jettySize=auto;html=1;exitX=1;exitY=0.3333333333333333;exitDx=0;exitDy=0;exitPerimeter=0;entryX=0;entryY=0.5;entryDx=0;entryDy=0;endArrow=none;endFill=0;endSize=20;" edge="1" parent="T06T5fpWgnhj3CMw_iUQ-1" source="T06T5fpWgnhj3CMw_iUQ-8" target="T06T5fpWgnhj3CMw_iUQ-21">
          <mxGeometry relative="1" as="geometry" />
        </mxCell>
        <UserObject label="Admin" lucidchartObjectId="4_KlheYxuX7Y" id="T06T5fpWgnhj3CMw_iUQ-8">
          <mxCell style="html=1;overflow=block;blockSpacing=1;whiteSpace=wrap;shape=umlActor;labelPosition=center;verticalLabelPosition=bottom;verticalAlign=top;whiteSpace=nowrap;whiteSpace=wrap;fontSize=23.3;fontColor=#333333;align=center;spacing=0;strokeColor=#5e5e5e;strokeOpacity=100;fillOpacity=100;rounded=1;absoluteArcSize=1;arcSize=9;fillColor=#99d2f2;strokeWidth=2.3;" vertex="1" parent="T06T5fpWgnhj3CMw_iUQ-1">
            <mxGeometry x="300" y="1609" width="60" height="135" as="geometry" />
          </mxCell>
        </UserObject>
        <UserObject label="CRUD Users" lucidchartObjectId="b.KlMfVkq2Jr" id="T06T5fpWgnhj3CMw_iUQ-9">
          <mxCell style="html=1;overflow=block;blockSpacing=1;whiteSpace=wrap;ellipse;whiteSpace=wrap;fontSize=23.3;spacing=3.8;strokeColor=#5e5e5e;strokeOpacity=100;fillOpacity=100;rounded=1;absoluteArcSize=1;arcSize=9;fillColor=#99d2f2;strokeWidth=2.3;" vertex="1" parent="T06T5fpWgnhj3CMw_iUQ-1">
            <mxGeometry x="650" y="1950" width="315" height="60" as="geometry" />
          </mxCell>
        </UserObject>
        <UserObject label="CRUD Books" lucidchartObjectId="m.KlKD7QrPw_" id="T06T5fpWgnhj3CMw_iUQ-10">
          <mxCell style="html=1;overflow=block;blockSpacing=1;whiteSpace=wrap;ellipse;whiteSpace=wrap;fontSize=23.3;spacing=3.8;strokeColor=#5e5e5e;strokeOpacity=100;fillOpacity=100;rounded=1;absoluteArcSize=1;arcSize=9;fillColor=#99d2f2;strokeWidth=2.3;" vertex="1" parent="T06T5fpWgnhj3CMw_iUQ-1">
            <mxGeometry x="650" y="1485" width="315" height="60" as="geometry" />
          </mxCell>
        </UserObject>
        <UserObject label="" lucidchartObjectId="OdLl7JB34Oz7" id="T06T5fpWgnhj3CMw_iUQ-17">
          <mxCell style="html=1;jettySize=18;whiteSpace=wrap;fontSize=13;strokeColor=#5E5E5E;strokeWidth=1.5;rounded=1;arcSize=12;edgeStyle=orthogonalEdgeStyle;startArrow=none;;endArrow=block;endFill=0;;exitX=0.5;exitY=-0.008;exitPerimeter=0;endSize=20;" edge="1" parent="T06T5fpWgnhj3CMw_iUQ-1" source="T06T5fpWgnhj3CMw_iUQ-6">
            <mxGeometry width="100" height="100" relative="1" as="geometry">
              <Array as="points" />
              <mxPoint x="300" y="390" as="targetPoint" />
            </mxGeometry>
          </mxCell>
        </UserObject>
        <UserObject label="My Neighborhood Library" lucidchartObjectId="ReLl.DpzkUiB" id="T06T5fpWgnhj3CMw_iUQ-18">
          <mxCell style="html=1;overflow=block;blockSpacing=1;whiteSpace=wrap;;whiteSpace=wrap;fontSize=50;fontColor=#333333;fontStyle=1;align=center;spacing=3.8;strokeOpacity=0;fillOpacity=0;rounded=1;absoluteArcSize=1;arcSize=9;fillColor=#ffffff;strokeWidth=6;" vertex="1" parent="T06T5fpWgnhj3CMw_iUQ-1">
            <mxGeometry x="1900" y="-20" width="495" height="185" as="geometry" />
          </mxCell>
        </UserObject>
        <mxCell id="AV8Kt96gXwGI9UDsWMIY-0" style="edgeStyle=orthogonalEdgeStyle;rounded=0;orthogonalLoop=1;jettySize=auto;html=1;exitX=0;exitY=0.5;exitDx=0;exitDy=0;entryX=1;entryY=0.5;entryDx=0;entryDy=0;dashed=1;endArrow=classic;endFill=1;endSize=20;startArrow=none;startFill=0;strokeWidth=1;targetPerimeterSpacing=20;startSize=20;" edge="1" parent="T06T5fpWgnhj3CMw_iUQ-1" source="T06T5fpWgnhj3CMw_iUQ-19" target="T06T5fpWgnhj3CMw_iUQ-69">
          <mxGeometry relative="1" as="geometry">
            <Array as="points">
              <mxPoint x="1080" y="810" />
              <mxPoint x="1080" y="970" />
            </Array>
          </mxGeometry>
        </mxCell>
        <UserObject label="Comment" lucidchartObjectId="mALl4-oiVJbZ" id="T06T5fpWgnhj3CMw_iUQ-19">
          <mxCell style="html=1;overflow=block;blockSpacing=1;whiteSpace=wrap;ellipse;whiteSpace=wrap;fontSize=23.3;spacing=3.8;strokeColor=#5e5e5e;strokeOpacity=100;fillOpacity=100;rounded=1;absoluteArcSize=1;arcSize=9;fillColor=#a3d977;strokeWidth=2.3;" vertex="1" parent="T06T5fpWgnhj3CMw_iUQ-1">
            <mxGeometry x="1239" y="780" width="315" height="60" as="geometry" />
          </mxCell>
        </UserObject>
        <UserObject label="Modarate Comments" lucidchartObjectId="KaMliEiTIFQS" id="T06T5fpWgnhj3CMw_iUQ-21">
          <mxCell style="html=1;overflow=block;blockSpacing=1;whiteSpace=wrap;ellipse;whiteSpace=wrap;fontSize=23.3;spacing=3.8;strokeColor=#5e5e5e;strokeOpacity=100;fillOpacity=100;rounded=1;absoluteArcSize=1;arcSize=9;fillColor=#99d2f2;strokeWidth=2.3;" vertex="1" parent="T06T5fpWgnhj3CMw_iUQ-1">
            <mxGeometry x="650" y="2070" width="315" height="60" as="geometry" />
          </mxCell>
        </UserObject>
        <mxCell id="hzzaTOCdJLfYknxkpKPC-0" style="edgeStyle=orthogonalEdgeStyle;rounded=0;orthogonalLoop=1;jettySize=auto;html=1;exitX=0.5;exitY=0;exitDx=0;exitDy=0;entryX=0.5;entryY=1;entryDx=0;entryDy=0;dashed=1;startArrow=none;startFill=0;endArrow=classic;endFill=1;startSize=20;endSize=20;targetPerimeterSpacing=20;strokeWidth=1;" edge="1" parent="T06T5fpWgnhj3CMw_iUQ-1" source="T06T5fpWgnhj3CMw_iUQ-22" target="T06T5fpWgnhj3CMw_iUQ-69">
          <mxGeometry relative="1" as="geometry" />
        </mxCell>
        <UserObject label="Subscribe" lucidchartObjectId="neMlNEmHse-s" id="T06T5fpWgnhj3CMw_iUQ-22">
          <mxCell style="html=1;overflow=block;blockSpacing=1;whiteSpace=wrap;ellipse;whiteSpace=wrap;fontSize=23.3;spacing=3.8;strokeColor=#5e5e5e;strokeOpacity=100;fillOpacity=100;rounded=1;absoluteArcSize=1;arcSize=9;fillColor=#a3d977;strokeWidth=2.3;" vertex="1" parent="T06T5fpWgnhj3CMw_iUQ-1">
            <mxGeometry x="650" y="1100" width="315" height="60" as="geometry" />
          </mxCell>
        </UserObject>
        <UserObject label="Need to be logged in" lucidchartObjectId="OtMl6c_RDSWn" id="T06T5fpWgnhj3CMw_iUQ-29">
          <mxCell style="html=1;overflow=block;blockSpacing=1;whiteSpace=wrap;;whiteSpace=wrap;fontSize=36.7;fontColor=#333333;align=center;spacing=3.8;strokeOpacity=0;fillOpacity=0;rounded=1;absoluteArcSize=1;arcSize=9;fillColor=#ffffff;strokeWidth=2.3;" vertex="1" parent="T06T5fpWgnhj3CMw_iUQ-1">
            <mxGeometry x="-105" y="1085" width="225" height="139" as="geometry" />
          </mxCell>
        </UserObject>
        <mxCell id="Xu2X_FsppdHs_8-J5xvH-0" style="edgeStyle=orthogonalEdgeStyle;rounded=0;orthogonalLoop=1;jettySize=auto;html=1;exitX=0;exitY=0.5;exitDx=0;exitDy=0;dashed=1;startArrow=none;startFill=0;endArrow=none;endFill=0;startSize=20;endSize=20;targetPerimeterSpacing=20;strokeWidth=1;" edge="1" parent="T06T5fpWgnhj3CMw_iUQ-1" source="T06T5fpWgnhj3CMw_iUQ-30">
          <mxGeometry relative="1" as="geometry">
            <mxPoint x="960" y="970" as="targetPoint" />
          </mxGeometry>
        </mxCell>
        <UserObject label="Return Book" lucidchartObjectId="VVMl1m7V7SYB" id="T06T5fpWgnhj3CMw_iUQ-30">
          <mxCell style="html=1;overflow=block;blockSpacing=1;whiteSpace=wrap;ellipse;whiteSpace=wrap;fontSize=23.3;spacing=3.8;strokeColor=#5e5e5e;strokeOpacity=100;fillOpacity=100;rounded=1;absoluteArcSize=1;arcSize=9;fillColor=#a3d977;strokeWidth=2.3;" vertex="1" parent="T06T5fpWgnhj3CMw_iUQ-1">
            <mxGeometry x="1239" y="940" width="315" height="60" as="geometry" />
          </mxCell>
        </UserObject>
        <mxCell id="-wB3G5nlbEXWSo2bycBb-0" style="edgeStyle=orthogonalEdgeStyle;rounded=0;orthogonalLoop=1;jettySize=auto;html=1;exitX=0;exitY=0.5;exitDx=0;exitDy=0;entryX=1;entryY=0.5;entryDx=0;entryDy=0;dashed=1;startArrow=none;startFill=0;endArrow=none;endFill=0;startSize=20;endSize=20;targetPerimeterSpacing=20;strokeWidth=1;" edge="1" parent="T06T5fpWgnhj3CMw_iUQ-1" source="T06T5fpWgnhj3CMw_iUQ-33" target="T06T5fpWgnhj3CMw_iUQ-69">
          <mxGeometry relative="1" as="geometry">
            <Array as="points">
              <mxPoint x="1080" y="1110" />
              <mxPoint x="1080" y="970" />
            </Array>
          </mxGeometry>
        </mxCell>
        <UserObject label="Withdraw Book" lucidchartObjectId="x2MlZHwICvsN" id="T06T5fpWgnhj3CMw_iUQ-33">
          <mxCell style="html=1;overflow=block;blockSpacing=1;whiteSpace=wrap;ellipse;whiteSpace=wrap;fontSize=23.3;spacing=3.8;strokeColor=#5e5e5e;strokeOpacity=100;fillOpacity=100;rounded=1;absoluteArcSize=1;arcSize=9;fillColor=#a3d977;strokeWidth=2.3;" vertex="1" parent="T06T5fpWgnhj3CMw_iUQ-1">
            <mxGeometry x="1239" y="1080" width="315" height="60" as="geometry" />
          </mxCell>
        </UserObject>
        <UserObject label="Check Withdrawal Delay" lucidchartObjectId="U3Mlyu5kF1vB" id="T06T5fpWgnhj3CMw_iUQ-36">
          <mxCell style="html=1;overflow=block;blockSpacing=1;whiteSpace=wrap;ellipse;whiteSpace=wrap;fontSize=23.3;spacing=3.8;strokeColor=#5e5e5e;strokeOpacity=100;fillOpacity=100;rounded=1;absoluteArcSize=1;arcSize=9;fillColor=#99d2f2;strokeWidth=2.3;" vertex="1" parent="T06T5fpWgnhj3CMw_iUQ-1">
            <mxGeometry x="650" y="1780" width="315" height="79" as="geometry" />
          </mxCell>
        </UserObject>
        <UserObject label="Check Return Delay" lucidchartObjectId="w5MlEav05f3o" id="T06T5fpWgnhj3CMw_iUQ-37">
          <mxCell style="html=1;overflow=block;blockSpacing=1;whiteSpace=wrap;ellipse;whiteSpace=wrap;fontSize=23.3;spacing=3.8;strokeColor=#5e5e5e;strokeOpacity=100;fillOpacity=100;rounded=1;absoluteArcSize=1;arcSize=9;fillColor=#99d2f2;strokeWidth=2.3;" vertex="1" parent="T06T5fpWgnhj3CMw_iUQ-1">
            <mxGeometry x="650" y="1644.5" width="315" height="64" as="geometry" />
          </mxCell>
        </UserObject>
        <UserObject label="Request Penality" lucidchartObjectId="cWOlf-0sLFXi" id="T06T5fpWgnhj3CMw_iUQ-49">
          <mxCell style="html=1;overflow=block;blockSpacing=1;whiteSpace=wrap;ellipse;whiteSpace=wrap;fontSize=23.3;spacing=3.8;strokeColor=#5e5e5e;strokeOpacity=100;fillOpacity=100;rounded=1;absoluteArcSize=1;arcSize=9;fillColor=#99d2f2;strokeWidth=2.3;" vertex="1" parent="T06T5fpWgnhj3CMw_iUQ-1">
            <mxGeometry x="1209" y="1644.5" width="315" height="64" as="geometry" />
          </mxCell>
        </UserObject>
        <mxCell id="mXxwcZTsU0UEyXWHc9Cz-0" style="edgeStyle=orthogonalEdgeStyle;rounded=0;orthogonalLoop=1;jettySize=auto;html=1;exitX=1;exitY=0.5;exitDx=0;exitDy=0;entryX=0;entryY=0.5;entryDx=0;entryDy=0;endArrow=classic;endFill=1;endSize=20;dashed=1;" edge="1" parent="T06T5fpWgnhj3CMw_iUQ-1" source="T06T5fpWgnhj3CMw_iUQ-56" target="T06T5fpWgnhj3CMw_iUQ-57">
          <mxGeometry relative="1" as="geometry" />
        </mxCell>
        <mxCell id="mXxwcZTsU0UEyXWHc9Cz-1" style="edgeStyle=orthogonalEdgeStyle;rounded=0;orthogonalLoop=1;jettySize=auto;html=1;exitX=1;exitY=0.5;exitDx=0;exitDy=0;entryX=0;entryY=0.5;entryDx=0;entryDy=0;dashed=1;endArrow=classic;endFill=1;endSize=20;" edge="1" parent="T06T5fpWgnhj3CMw_iUQ-1" source="T06T5fpWgnhj3CMw_iUQ-56" target="T06T5fpWgnhj3CMw_iUQ-63">
          <mxGeometry relative="1" as="geometry">
            <Array as="points">
              <mxPoint x="1010" y="158" />
              <mxPoint x="1010" y="308" />
            </Array>
          </mxGeometry>
        </mxCell>
        <UserObject label="List Books" lucidchartObjectId="FEPlZ8h1THUV" id="T06T5fpWgnhj3CMw_iUQ-56">
          <mxCell style="html=1;overflow=block;blockSpacing=1;whiteSpace=wrap;ellipse;whiteSpace=wrap;fontSize=23.3;spacing=3.8;strokeColor=#5e5e5e;strokeOpacity=100;fillOpacity=100;rounded=1;absoluteArcSize=1;arcSize=9;fillColor=#ffdba9;strokeWidth=2.3;" vertex="1" parent="T06T5fpWgnhj3CMw_iUQ-1">
            <mxGeometry x="650" y="120" width="315" height="75" as="geometry" />
          </mxCell>
        </UserObject>
        <mxCell id="mXxwcZTsU0UEyXWHc9Cz-2" style="edgeStyle=orthogonalEdgeStyle;rounded=0;orthogonalLoop=1;jettySize=auto;html=1;exitX=1;exitY=0.5;exitDx=0;exitDy=0;entryX=0;entryY=0.5;entryDx=0;entryDy=0;dashed=1;endArrow=classic;endFill=1;endSize=20;" edge="1" parent="T06T5fpWgnhj3CMw_iUQ-1" source="T06T5fpWgnhj3CMw_iUQ-57" target="T06T5fpWgnhj3CMw_iUQ-58">
          <mxGeometry relative="1" as="geometry" />
        </mxCell>
        <UserObject label="Show book infomations" lucidchartObjectId="GFPlNP1U4LBn" id="T06T5fpWgnhj3CMw_iUQ-57">
          <mxCell style="html=1;overflow=block;blockSpacing=1;whiteSpace=wrap;ellipse;whiteSpace=wrap;fontSize=23.3;spacing=3.8;strokeColor=#5e5e5e;strokeOpacity=100;fillOpacity=100;rounded=1;absoluteArcSize=1;arcSize=9;fillColor=#ffdba9;strokeWidth=2.3;" vertex="1" parent="T06T5fpWgnhj3CMw_iUQ-1">
            <mxGeometry x="1163" y="120" width="315" height="75" as="geometry" />
          </mxCell>
        </UserObject>
        <UserObject label="Show availability" lucidchartObjectId="-GPl2Bjd-L9b" id="T06T5fpWgnhj3CMw_iUQ-58">
          <mxCell style="html=1;overflow=block;blockSpacing=1;whiteSpace=wrap;ellipse;whiteSpace=wrap;fontSize=23.3;spacing=3.8;strokeColor=#5e5e5e;strokeOpacity=100;fillOpacity=100;rounded=1;absoluteArcSize=1;arcSize=9;fillColor=#ffdba9;strokeWidth=2.3;" vertex="1" parent="T06T5fpWgnhj3CMw_iUQ-1">
            <mxGeometry x="1635" y="120" width="315" height="75" as="geometry" />
          </mxCell>
        </UserObject>
        <UserObject label="Search with filters" lucidchartObjectId="bKPlHuerI7H4" id="T06T5fpWgnhj3CMw_iUQ-63">
          <mxCell style="html=1;overflow=block;blockSpacing=1;whiteSpace=wrap;ellipse;whiteSpace=wrap;fontSize=23.3;spacing=3.8;strokeColor=#5e5e5e;strokeOpacity=100;fillOpacity=100;rounded=1;absoluteArcSize=1;arcSize=9;fillColor=#ffdba9;strokeWidth=2.3;" vertex="1" parent="T06T5fpWgnhj3CMw_iUQ-1">
            <mxGeometry x="1171" y="270" width="315" height="75" as="geometry" />
          </mxCell>
        </UserObject>
        <UserObject label="Pay Penalty" lucidchartObjectId="rbMlawj3ws9Q" id="T06T5fpWgnhj3CMw_iUQ-66">
          <mxCell style="html=1;overflow=block;blockSpacing=1;whiteSpace=wrap;ellipse;whiteSpace=wrap;fontSize=23.3;spacing=3.8;strokeColor=#5e5e5e;strokeOpacity=100;fillOpacity=100;rounded=1;absoluteArcSize=1;arcSize=9;fillColor=#a3d977;strokeWidth=2.3;" vertex="1" parent="T06T5fpWgnhj3CMw_iUQ-1">
            <mxGeometry x="655" y="1240" width="310" height="60" as="geometry" />
          </mxCell>
        </UserObject>
        <mxCell id="-wB3G5nlbEXWSo2bycBb-1" style="edgeStyle=orthogonalEdgeStyle;rounded=0;orthogonalLoop=1;jettySize=auto;html=1;exitX=0.5;exitY=0;exitDx=0;exitDy=0;entryX=0.5;entryY=1;entryDx=0;entryDy=0;dashed=1;startArrow=none;startFill=0;endArrow=classic;endFill=1;startSize=20;endSize=20;targetPerimeterSpacing=20;strokeWidth=1;" edge="1" parent="T06T5fpWgnhj3CMw_iUQ-1" source="T06T5fpWgnhj3CMw_iUQ-69" target="T06T5fpWgnhj3CMw_iUQ-7">
          <mxGeometry relative="1" as="geometry" />
        </mxCell>
        <UserObject label="Rent Book" lucidchartObjectId="p_Kl38Mi0tr~" id="T06T5fpWgnhj3CMw_iUQ-69">
          <mxCell style="html=1;overflow=block;blockSpacing=1;whiteSpace=wrap;ellipse;whiteSpace=wrap;fontSize=23.3;spacing=3.8;strokeColor=#5e5e5e;strokeOpacity=100;fillOpacity=100;rounded=1;absoluteArcSize=1;arcSize=9;fillColor=#a3d977;strokeWidth=2.3;" vertex="1" parent="T06T5fpWgnhj3CMw_iUQ-1">
            <mxGeometry x="650" y="940" width="315" height="60" as="geometry" />
          </mxCell>
        </UserObject>
      </root>
    </mxGraphModel>
  </diagram>
  <diagram id="TxvzlHGIK0thRguniy4z" name="UML Class Diagram">
    <mxGraphModel dx="981" dy="1626" grid="1" gridSize="10" guides="1" tooltips="1" connect="1" arrows="1" fold="1" page="1" pageScale="1" pageWidth="850" pageHeight="1100" math="0" shadow="0">
      <root>
        <mxCell id="EFeMOXJsEP3OU_5ekMnE-0" />
        <mxCell id="EFeMOXJsEP3OU_5ekMnE-1" parent="EFeMOXJsEP3OU_5ekMnE-0" />
        <mxCell id="EFeMOXJsEP3OU_5ekMnE-18" style="edgeStyle=orthogonalEdgeStyle;rounded=0;orthogonalLoop=1;jettySize=auto;html=1;entryX=0.368;entryY=-0.006;entryDx=0;entryDy=0;endArrow=classic;endFill=1;entryPerimeter=0;" parent="EFeMOXJsEP3OU_5ekMnE-1" source="EFeMOXJsEP3OU_5ekMnE-2" target="EFeMOXJsEP3OU_5ekMnE-10" edge="1">
          <mxGeometry relative="1" as="geometry">
            <mxPoint x="810" y="213" as="targetPoint" />
            <Array as="points">
              <mxPoint x="933" y="-100" />
            </Array>
          </mxGeometry>
        </mxCell>
        <mxCell id="zSL4BV6sDmGmpL8BtEUs-13" style="edgeStyle=orthogonalEdgeStyle;rounded=0;orthogonalLoop=1;jettySize=auto;html=1;exitX=0.5;exitY=0;exitDx=0;exitDy=0;fontSize=23.3;startArrow=none;startFill=0;endArrow=block;endFill=0;" parent="EFeMOXJsEP3OU_5ekMnE-1" source="EFeMOXJsEP3OU_5ekMnE-2" target="zSL4BV6sDmGmpL8BtEUs-0" edge="1">
          <mxGeometry relative="1" as="geometry" />
        </mxCell>
        <mxCell id="EFeMOXJsEP3OU_5ekMnE-2" value="User" style="swimlane;fontStyle=1;align=center;verticalAlign=top;childLayout=stackLayout;horizontal=1;startSize=26;horizontalStack=0;resizeParent=1;resizeParentMax=0;resizeLast=0;collapsible=1;marginBottom=0;" parent="EFeMOXJsEP3OU_5ekMnE-1" vertex="1">
          <mxGeometry x="270" y="-196" width="270" height="216" as="geometry" />
        </mxCell>
        <mxCell id="EFeMOXJsEP3OU_5ekMnE-7" value="+ email: string        {unique}  " style="text;strokeColor=none;fillColor=none;align=left;verticalAlign=top;spacingLeft=4;spacingRight=4;overflow=hidden;rotatable=0;points=[[0,0.5],[1,0.5]];portConstraint=eastwest;" parent="EFeMOXJsEP3OU_5ekMnE-2" vertex="1">
          <mxGeometry y="26" width="270" height="26" as="geometry" />
        </mxCell>
        <mxCell id="EFeMOXJsEP3OU_5ekMnE-6" value="+ password: string " style="text;strokeColor=none;fillColor=none;align=left;verticalAlign=top;spacingLeft=4;spacingRight=4;overflow=hidden;rotatable=0;points=[[0,0.5],[1,0.5]];portConstraint=eastwest;" parent="EFeMOXJsEP3OU_5ekMnE-2" vertex="1">
          <mxGeometry y="52" width="270" height="26" as="geometry" />
        </mxCell>
        <mxCell id="zSL4BV6sDmGmpL8BtEUs-9" value="+ lastname: string " style="text;strokeColor=none;fillColor=none;align=left;verticalAlign=top;spacingLeft=4;spacingRight=4;overflow=hidden;rotatable=0;points=[[0,0.5],[1,0.5]];portConstraint=eastwest;" parent="EFeMOXJsEP3OU_5ekMnE-2" vertex="1">
          <mxGeometry y="78" width="270" height="26" as="geometry" />
        </mxCell>
        <mxCell id="EFeMOXJsEP3OU_5ekMnE-3" value="+ firstname: string&#xa;  " style="text;strokeColor=none;fillColor=none;align=left;verticalAlign=top;spacingLeft=4;spacingRight=4;overflow=hidden;rotatable=0;points=[[0,0.5],[1,0.5]];portConstraint=eastwest;" parent="EFeMOXJsEP3OU_5ekMnE-2" vertex="1">
          <mxGeometry y="104" width="270" height="26" as="geometry" />
        </mxCell>
        <mxCell id="EFeMOXJsEP3OU_5ekMnE-8" value="+ isVerified: bool  " style="text;strokeColor=none;fillColor=none;align=left;verticalAlign=top;spacingLeft=4;spacingRight=4;overflow=hidden;rotatable=0;points=[[0,0.5],[1,0.5]];portConstraint=eastwest;" parent="EFeMOXJsEP3OU_5ekMnE-2" vertex="1">
          <mxGeometry y="130" width="270" height="26" as="geometry" />
        </mxCell>
        <mxCell id="EFeMOXJsEP3OU_5ekMnE-4" value="" style="line;strokeWidth=1;fillColor=none;align=left;verticalAlign=middle;spacingTop=-1;spacingLeft=3;spacingRight=3;rotatable=0;labelPosition=right;points=[];portConstraint=eastwest;" parent="EFeMOXJsEP3OU_5ekMnE-2" vertex="1">
          <mxGeometry y="156" width="270" height="8" as="geometry" />
        </mxCell>
        <mxCell id="B-1sh3vcRknYvzYUULmo-20" value="+ reserveBook(book Book):Reservation" style="text;strokeColor=none;fillColor=none;align=left;verticalAlign=top;spacingLeft=4;spacingRight=4;overflow=hidden;rotatable=0;points=[[0,0.5],[1,0.5]];portConstraint=eastwest;" parent="EFeMOXJsEP3OU_5ekMnE-2" vertex="1">
          <mxGeometry y="164" width="270" height="26" as="geometry" />
        </mxCell>
        <mxCell id="ppuFs-aqFUymU-Vp2ySt-0" value="+ rentBook(book Book, user User):Rental" style="text;strokeColor=none;fillColor=none;align=left;verticalAlign=top;spacingLeft=4;spacingRight=4;overflow=hidden;rotatable=0;points=[[0,0.5],[1,0.5]];portConstraint=eastwest;" vertex="1" parent="EFeMOXJsEP3OU_5ekMnE-2">
          <mxGeometry y="190" width="270" height="26" as="geometry" />
        </mxCell>
        <mxCell id="nDpiXEG23PjwlFvrGx7t-1" style="edgeStyle=orthogonalEdgeStyle;rounded=0;orthogonalLoop=1;jettySize=auto;html=1;entryX=0.5;entryY=0;entryDx=0;entryDy=0;endArrow=none;endFill=0;" parent="EFeMOXJsEP3OU_5ekMnE-1" source="EFeMOXJsEP3OU_5ekMnE-10" target="NsfZw8cOpHAZoNL8Lds9-14" edge="1">
          <mxGeometry relative="1" as="geometry">
            <Array as="points">
              <mxPoint x="850" y="420" />
            </Array>
          </mxGeometry>
        </mxCell>
        <mxCell id="x-tdlBH1XjQ0vFisM21v-21" style="edgeStyle=orthogonalEdgeStyle;rounded=0;orthogonalLoop=1;jettySize=auto;html=1;exitX=0.146;exitY=-0.006;exitDx=0;exitDy=0;entryX=0.998;entryY=0.053;entryDx=0;entryDy=0;entryPerimeter=0;fontSize=23.3;startArrow=none;startFill=0;endArrow=none;endFill=0;exitPerimeter=0;" parent="EFeMOXJsEP3OU_5ekMnE-1" source="EFeMOXJsEP3OU_5ekMnE-10" target="x-tdlBH1XjQ0vFisM21v-0" edge="1">
          <mxGeometry relative="1" as="geometry">
            <Array as="points">
              <mxPoint x="871" y="-37" />
            </Array>
          </mxGeometry>
        </mxCell>
        <mxCell id="EFeMOXJsEP3OU_5ekMnE-10" value="Book" style="swimlane;fontStyle=1;align=center;verticalAlign=top;childLayout=stackLayout;horizontal=1;startSize=26;horizontalStack=0;resizeParent=1;resizeParentMax=0;resizeLast=0;collapsible=1;marginBottom=0;" parent="EFeMOXJsEP3OU_5ekMnE-1" vertex="1">
          <mxGeometry x="830" y="80" width="280" height="216" as="geometry" />
        </mxCell>
        <mxCell id="EFeMOXJsEP3OU_5ekMnE-11" value="+ isbn: string        {unique}" style="text;strokeColor=none;fillColor=none;align=left;verticalAlign=top;spacingLeft=4;spacingRight=4;overflow=hidden;rotatable=0;points=[[0,0.5],[1,0.5]];portConstraint=eastwest;" parent="EFeMOXJsEP3OU_5ekMnE-10" vertex="1">
          <mxGeometry y="26" width="280" height="26" as="geometry" />
        </mxCell>
        <mxCell id="ctsKM6OeLq6oYXx4M30Q-11" value="+ title: string&#xa;  " style="text;strokeColor=none;fillColor=none;align=left;verticalAlign=top;spacingLeft=4;spacingRight=4;overflow=hidden;rotatable=0;points=[[0,0.5],[1,0.5]];portConstraint=eastwest;" parent="EFeMOXJsEP3OU_5ekMnE-10" vertex="1">
          <mxGeometry y="52" width="280" height="26" as="geometry" />
        </mxCell>
        <mxCell id="EFeMOXJsEP3OU_5ekMnE-12" value="+ summary: string  " style="text;strokeColor=none;fillColor=none;align=left;verticalAlign=top;spacingLeft=4;spacingRight=4;overflow=hidden;rotatable=0;points=[[0,0.5],[1,0.5]];portConstraint=eastwest;" parent="EFeMOXJsEP3OU_5ekMnE-10" vertex="1">
          <mxGeometry y="78" width="280" height="26" as="geometry" />
        </mxCell>
        <mxCell id="xNWaQx2CLZLa2Rzbyz76-0" value="+ nbCopy: int  " style="text;strokeColor=none;fillColor=none;align=left;verticalAlign=top;spacingLeft=4;spacingRight=4;overflow=hidden;rotatable=0;points=[[0,0.5],[1,0.5]];portConstraint=eastwest;" parent="EFeMOXJsEP3OU_5ekMnE-10" vertex="1">
          <mxGeometry y="104" width="280" height="26" as="geometry" />
        </mxCell>
        <mxCell id="EFeMOXJsEP3OU_5ekMnE-15" value="" style="line;strokeWidth=1;fillColor=none;align=left;verticalAlign=middle;spacingTop=-1;spacingLeft=3;spacingRight=3;rotatable=0;labelPosition=right;points=[];portConstraint=eastwest;" parent="EFeMOXJsEP3OU_5ekMnE-10" vertex="1">
          <mxGeometry y="130" width="280" height="8" as="geometry" />
        </mxCell>
        <mxCell id="RP9ycj581Wakm1llmQyA-0" value="+ list() : Books[0..*]" style="text;strokeColor=none;fillColor=none;align=left;verticalAlign=top;spacingLeft=4;spacingRight=4;overflow=hidden;rotatable=0;points=[[0,0.5],[1,0.5]];portConstraint=eastwest;" parent="EFeMOXJsEP3OU_5ekMnE-10" vertex="1">
          <mxGeometry y="138" width="280" height="26" as="geometry" />
        </mxCell>
        <mxCell id="xNWaQx2CLZLa2Rzbyz76-1" value="+ searchByCategory(category Category): Book[0..*]" style="text;strokeColor=none;fillColor=none;align=left;verticalAlign=top;spacingLeft=4;spacingRight=4;overflow=hidden;rotatable=0;points=[[0,0.5],[1,0.5]];portConstraint=eastwest;" parent="EFeMOXJsEP3OU_5ekMnE-10" vertex="1">
          <mxGeometry y="164" width="280" height="26" as="geometry" />
        </mxCell>
        <mxCell id="xNWaQx2CLZLa2Rzbyz76-4" value="+ searchByTitle(title string): Book[0..*]" style="text;strokeColor=none;fillColor=none;align=left;verticalAlign=top;spacingLeft=4;spacingRight=4;overflow=hidden;rotatable=0;points=[[0,0.5],[1,0.5]];portConstraint=eastwest;" parent="EFeMOXJsEP3OU_5ekMnE-10" vertex="1">
          <mxGeometry y="190" width="280" height="26" as="geometry" />
        </mxCell>
        <mxCell id="EFeMOXJsEP3OU_5ekMnE-19" value="0 .. *" style="text;html=1;strokeColor=none;fillColor=none;align=center;verticalAlign=middle;whiteSpace=wrap;rounded=0;" parent="EFeMOXJsEP3OU_5ekMnE-1" vertex="1">
          <mxGeometry x="890" y="50" width="40" height="20" as="geometry" />
        </mxCell>
        <mxCell id="NsfZw8cOpHAZoNL8Lds9-0" value="Category" style="swimlane;fontStyle=1;align=center;verticalAlign=top;childLayout=stackLayout;horizontal=1;startSize=26;horizontalStack=0;resizeParent=1;resizeParentMax=0;resizeLast=0;collapsible=1;marginBottom=0;" parent="EFeMOXJsEP3OU_5ekMnE-1" vertex="1">
          <mxGeometry x="1050" y="378" width="170" height="86" as="geometry" />
        </mxCell>
        <mxCell id="NsfZw8cOpHAZoNL8Lds9-1" value="+ name: string        {unique}" style="text;strokeColor=none;fillColor=none;align=left;verticalAlign=top;spacingLeft=4;spacingRight=4;overflow=hidden;rotatable=0;points=[[0,0.5],[1,0.5]];portConstraint=eastwest;" parent="NsfZw8cOpHAZoNL8Lds9-0" vertex="1">
          <mxGeometry y="26" width="170" height="26" as="geometry" />
        </mxCell>
        <mxCell id="NsfZw8cOpHAZoNL8Lds9-6" value="" style="line;strokeWidth=1;fillColor=none;align=left;verticalAlign=middle;spacingTop=-1;spacingLeft=3;spacingRight=3;rotatable=0;labelPosition=right;points=[];portConstraint=eastwest;" parent="NsfZw8cOpHAZoNL8Lds9-0" vertex="1">
          <mxGeometry y="52" width="170" height="8" as="geometry" />
        </mxCell>
        <mxCell id="NsfZw8cOpHAZoNL8Lds9-7" value="+ TBD" style="text;strokeColor=none;fillColor=none;align=left;verticalAlign=top;spacingLeft=4;spacingRight=4;overflow=hidden;rotatable=0;points=[[0,0.5],[1,0.5]];portConstraint=eastwest;" parent="NsfZw8cOpHAZoNL8Lds9-0" vertex="1">
          <mxGeometry y="60" width="170" height="26" as="geometry" />
        </mxCell>
        <mxCell id="NsfZw8cOpHAZoNL8Lds9-14" value="Genre" style="swimlane;fontStyle=1;align=center;verticalAlign=top;childLayout=stackLayout;horizontal=1;startSize=26;horizontalStack=0;resizeParent=1;resizeParentMax=0;resizeLast=0;collapsible=1;marginBottom=0;" parent="EFeMOXJsEP3OU_5ekMnE-1" vertex="1">
          <mxGeometry x="820" y="420" width="170" height="86" as="geometry" />
        </mxCell>
        <mxCell id="NsfZw8cOpHAZoNL8Lds9-16" value="+ name: string        {unique}" style="text;strokeColor=none;fillColor=none;align=left;verticalAlign=top;spacingLeft=4;spacingRight=4;overflow=hidden;rotatable=0;points=[[0,0.5],[1,0.5]];portConstraint=eastwest;" parent="NsfZw8cOpHAZoNL8Lds9-14" vertex="1">
          <mxGeometry y="26" width="170" height="26" as="geometry" />
        </mxCell>
        <mxCell id="NsfZw8cOpHAZoNL8Lds9-17" value="" style="line;strokeWidth=1;fillColor=none;align=left;verticalAlign=middle;spacingTop=-1;spacingLeft=3;spacingRight=3;rotatable=0;labelPosition=right;points=[];portConstraint=eastwest;" parent="NsfZw8cOpHAZoNL8Lds9-14" vertex="1">
          <mxGeometry y="52" width="170" height="8" as="geometry" />
        </mxCell>
        <mxCell id="NsfZw8cOpHAZoNL8Lds9-18" value="+ TBD" style="text;strokeColor=none;fillColor=none;align=left;verticalAlign=top;spacingLeft=4;spacingRight=4;overflow=hidden;rotatable=0;points=[[0,0.5],[1,0.5]];portConstraint=eastwest;" parent="NsfZw8cOpHAZoNL8Lds9-14" vertex="1">
          <mxGeometry y="60" width="170" height="26" as="geometry" />
        </mxCell>
        <mxCell id="nDpiXEG23PjwlFvrGx7t-0" style="edgeStyle=orthogonalEdgeStyle;rounded=0;orthogonalLoop=1;jettySize=auto;html=1;entryX=0.5;entryY=0;entryDx=0;entryDy=0;endArrow=none;endFill=0;" parent="EFeMOXJsEP3OU_5ekMnE-1" target="NsfZw8cOpHAZoNL8Lds9-0" edge="1">
          <mxGeometry relative="1" as="geometry">
            <mxPoint x="1110" y="213" as="sourcePoint" />
            <Array as="points">
              <mxPoint x="1130" y="213" />
            </Array>
          </mxGeometry>
        </mxCell>
        <mxCell id="B-1sh3vcRknYvzYUULmo-0" value="1" style="text;html=1;strokeColor=none;fillColor=none;align=center;verticalAlign=middle;whiteSpace=wrap;rounded=0;" parent="EFeMOXJsEP3OU_5ekMnE-1" vertex="1">
          <mxGeometry x="1130" y="358" width="40" height="20" as="geometry" />
        </mxCell>
        <mxCell id="B-1sh3vcRknYvzYUULmo-1" value="1..*" style="text;html=1;strokeColor=none;fillColor=none;align=center;verticalAlign=middle;whiteSpace=wrap;rounded=0;" parent="EFeMOXJsEP3OU_5ekMnE-1" vertex="1">
          <mxGeometry x="810" y="390" width="40" height="20" as="geometry" />
        </mxCell>
        <mxCell id="B-1sh3vcRknYvzYUULmo-2" value="0 .. *" style="text;html=1;strokeColor=none;fillColor=none;align=center;verticalAlign=middle;whiteSpace=wrap;rounded=0;" parent="EFeMOXJsEP3OU_5ekMnE-1" vertex="1">
          <mxGeometry x="1110" y="180" width="40" height="20" as="geometry" />
        </mxCell>
        <mxCell id="B-1sh3vcRknYvzYUULmo-3" value="0 .. *" style="text;html=1;strokeColor=none;fillColor=none;align=center;verticalAlign=middle;whiteSpace=wrap;rounded=0;" parent="EFeMOXJsEP3OU_5ekMnE-1" vertex="1">
          <mxGeometry x="850" y="300" width="40" height="20" as="geometry" />
        </mxCell>
        <mxCell id="tEkfQmgdzHSU6gUAcGkl-31" style="edgeStyle=orthogonalEdgeStyle;rounded=0;orthogonalLoop=1;jettySize=auto;html=1;exitX=0.5;exitY=1;exitDx=0;exitDy=0;fontSize=23.3;startArrow=none;startFill=0;endArrow=none;endFill=0;" parent="EFeMOXJsEP3OU_5ekMnE-1" source="B-1sh3vcRknYvzYUULmo-4" target="EFeMOXJsEP3OU_5ekMnE-10" edge="1">
          <mxGeometry relative="1" as="geometry" />
        </mxCell>
        <mxCell id="B-1sh3vcRknYvzYUULmo-4" value="Author" style="swimlane;fontStyle=1;align=center;verticalAlign=top;childLayout=stackLayout;horizontal=1;startSize=26;horizontalStack=0;resizeParent=1;resizeParentMax=0;resizeLast=0;collapsible=1;marginBottom=0;" parent="EFeMOXJsEP3OU_5ekMnE-1" vertex="1">
          <mxGeometry x="1010" y="-164" width="160" height="138" as="geometry" />
        </mxCell>
        <mxCell id="B-1sh3vcRknYvzYUULmo-6" value="+ firstname: string&#xa;  " style="text;strokeColor=none;fillColor=none;align=left;verticalAlign=top;spacingLeft=4;spacingRight=4;overflow=hidden;rotatable=0;points=[[0,0.5],[1,0.5]];portConstraint=eastwest;" parent="B-1sh3vcRknYvzYUULmo-4" vertex="1">
          <mxGeometry y="26" width="160" height="26" as="geometry" />
        </mxCell>
        <mxCell id="B-1sh3vcRknYvzYUULmo-7" value="+ lastname: string  " style="text;strokeColor=none;fillColor=none;align=left;verticalAlign=top;spacingLeft=4;spacingRight=4;overflow=hidden;rotatable=0;points=[[0,0.5],[1,0.5]];portConstraint=eastwest;" parent="B-1sh3vcRknYvzYUULmo-4" vertex="1">
          <mxGeometry y="52" width="160" height="26" as="geometry" />
        </mxCell>
        <mxCell id="B-1sh3vcRknYvzYUULmo-8" value="+ description: string" style="text;strokeColor=none;fillColor=none;align=left;verticalAlign=top;spacingLeft=4;spacingRight=4;overflow=hidden;rotatable=0;points=[[0,0.5],[1,0.5]];portConstraint=eastwest;" parent="B-1sh3vcRknYvzYUULmo-4" vertex="1">
          <mxGeometry y="78" width="160" height="26" as="geometry" />
        </mxCell>
        <mxCell id="B-1sh3vcRknYvzYUULmo-10" value="" style="line;strokeWidth=1;fillColor=none;align=left;verticalAlign=middle;spacingTop=-1;spacingLeft=3;spacingRight=3;rotatable=0;labelPosition=right;points=[];portConstraint=eastwest;" parent="B-1sh3vcRknYvzYUULmo-4" vertex="1">
          <mxGeometry y="104" width="160" height="8" as="geometry" />
        </mxCell>
        <mxCell id="B-1sh3vcRknYvzYUULmo-11" value="+ TBD" style="text;strokeColor=none;fillColor=none;align=left;verticalAlign=top;spacingLeft=4;spacingRight=4;overflow=hidden;rotatable=0;points=[[0,0.5],[1,0.5]];portConstraint=eastwest;" parent="B-1sh3vcRknYvzYUULmo-4" vertex="1">
          <mxGeometry y="112" width="160" height="26" as="geometry" />
        </mxCell>
        <mxCell id="gk8jkEQpJyLhn7j07Ww2-0" value="0..*" style="text;html=1;strokeColor=none;fillColor=none;align=center;verticalAlign=middle;whiteSpace=wrap;rounded=0;" parent="EFeMOXJsEP3OU_5ekMnE-1" vertex="1">
          <mxGeometry x="530" y="-120" width="40" height="20" as="geometry" />
        </mxCell>
        <mxCell id="ctsKM6OeLq6oYXx4M30Q-4" value="BookGenre" style="swimlane;fontStyle=1;align=center;verticalAlign=top;childLayout=stackLayout;horizontal=1;startSize=26;horizontalStack=0;resizeParent=1;resizeParentMax=0;resizeLast=0;collapsible=1;marginBottom=0;" parent="EFeMOXJsEP3OU_5ekMnE-1" vertex="1">
          <mxGeometry x="520" y="370" width="270" height="60" as="geometry" />
        </mxCell>
        <mxCell id="ctsKM6OeLq6oYXx4M30Q-6" value="" style="line;strokeWidth=1;fillColor=none;align=left;verticalAlign=middle;spacingTop=-1;spacingLeft=3;spacingRight=3;rotatable=0;labelPosition=right;points=[];portConstraint=eastwest;" parent="ctsKM6OeLq6oYXx4M30Q-4" vertex="1">
          <mxGeometry y="26" width="270" height="8" as="geometry" />
        </mxCell>
        <mxCell id="ctsKM6OeLq6oYXx4M30Q-7" value="+ searchByGenre(genre Genre): Book[0..*]" style="text;strokeColor=none;fillColor=none;align=left;verticalAlign=top;spacingLeft=4;spacingRight=4;overflow=hidden;rotatable=0;points=[[0,0.5],[1,0.5]];portConstraint=eastwest;" parent="ctsKM6OeLq6oYXx4M30Q-4" vertex="1">
          <mxGeometry y="34" width="270" height="26" as="geometry" />
        </mxCell>
        <mxCell id="ctsKM6OeLq6oYXx4M30Q-9" value="" style="endArrow=none;dashed=1;html=1;rounded=0;" parent="EFeMOXJsEP3OU_5ekMnE-1" source="ctsKM6OeLq6oYXx4M30Q-4" edge="1">
          <mxGeometry width="50" height="50" relative="1" as="geometry">
            <mxPoint x="850" y="390" as="sourcePoint" />
            <mxPoint x="850" y="360" as="targetPoint" />
          </mxGeometry>
        </mxCell>
        <mxCell id="ctsKM6OeLq6oYXx4M30Q-14" value="1 .. *" style="text;html=1;strokeColor=none;fillColor=none;align=center;verticalAlign=middle;whiteSpace=wrap;rounded=0;" parent="EFeMOXJsEP3OU_5ekMnE-1" vertex="1">
          <mxGeometry x="1090" y="-26" width="40" height="20" as="geometry" />
        </mxCell>
        <mxCell id="ctsKM6OeLq6oYXx4M30Q-15" value="0 .. *" style="text;html=1;strokeColor=none;fillColor=none;align=center;verticalAlign=middle;whiteSpace=wrap;rounded=0;" parent="EFeMOXJsEP3OU_5ekMnE-1" vertex="1">
          <mxGeometry x="980" y="60" width="40" height="20" as="geometry" />
        </mxCell>
        <mxCell id="x-tdlBH1XjQ0vFisM21v-31" style="edgeStyle=orthogonalEdgeStyle;rounded=0;orthogonalLoop=1;jettySize=auto;html=1;exitX=0.5;exitY=1;exitDx=0;exitDy=0;fontSize=23.3;startArrow=none;startFill=0;endArrow=none;endFill=0;dashed=1;" parent="EFeMOXJsEP3OU_5ekMnE-1" source="ctsKM6OeLq6oYXx4M30Q-17" edge="1">
          <mxGeometry relative="1" as="geometry">
            <mxPoint x="800.2352941176471" y="-100" as="targetPoint" />
          </mxGeometry>
        </mxCell>
        <mxCell id="ctsKM6OeLq6oYXx4M30Q-17" value="Rental" style="swimlane;fontStyle=1;align=center;verticalAlign=top;childLayout=stackLayout;horizontal=1;startSize=26;horizontalStack=0;resizeParent=1;resizeParentMax=0;resizeLast=0;collapsible=1;marginBottom=0;" parent="EFeMOXJsEP3OU_5ekMnE-1" vertex="1">
          <mxGeometry x="720" y="-230" width="160" height="86" as="geometry" />
        </mxCell>
        <mxCell id="rnVl5iRwzc-sAXcsfM7f-0" value="+ rentalDate: string&#xa;  " style="text;strokeColor=none;fillColor=none;align=left;verticalAlign=top;spacingLeft=4;spacingRight=4;overflow=hidden;rotatable=0;points=[[0,0.5],[1,0.5]];portConstraint=eastwest;" parent="ctsKM6OeLq6oYXx4M30Q-17" vertex="1">
          <mxGeometry y="26" width="160" height="26" as="geometry" />
        </mxCell>
        <mxCell id="ctsKM6OeLq6oYXx4M30Q-20" value="" style="line;strokeWidth=1;fillColor=none;align=left;verticalAlign=middle;spacingTop=-1;spacingLeft=3;spacingRight=3;rotatable=0;labelPosition=right;points=[];portConstraint=eastwest;" parent="ctsKM6OeLq6oYXx4M30Q-17" vertex="1">
          <mxGeometry y="52" width="160" height="8" as="geometry" />
        </mxCell>
        <mxCell id="ctsKM6OeLq6oYXx4M30Q-21" value="+ TBD" style="text;strokeColor=none;fillColor=none;align=left;verticalAlign=top;spacingLeft=4;spacingRight=4;overflow=hidden;rotatable=0;points=[[0,0.5],[1,0.5]];portConstraint=eastwest;" parent="ctsKM6OeLq6oYXx4M30Q-17" vertex="1">
          <mxGeometry y="60" width="160" height="26" as="geometry" />
        </mxCell>
        <mxCell id="EDii94BPd9Dwbx-7xQD8-0" value="LibraryInformations" style="swimlane;fontStyle=1;align=center;verticalAlign=top;childLayout=stackLayout;horizontal=1;startSize=26;horizontalStack=0;resizeParent=1;resizeParentMax=0;resizeLast=0;collapsible=1;marginBottom=0;" parent="EFeMOXJsEP3OU_5ekMnE-1" vertex="1">
          <mxGeometry x="860" y="-470" width="180" height="164" as="geometry" />
        </mxCell>
        <mxCell id="EDii94BPd9Dwbx-7xQD8-1" value="+ address: string  " style="text;strokeColor=none;fillColor=none;align=left;verticalAlign=top;spacingLeft=4;spacingRight=4;overflow=hidden;rotatable=0;points=[[0,0.5],[1,0.5]];portConstraint=eastwest;" parent="EDii94BPd9Dwbx-7xQD8-0" vertex="1">
          <mxGeometry y="26" width="180" height="26" as="geometry" />
        </mxCell>
        <mxCell id="EDii94BPd9Dwbx-7xQD8-2" value="+ phoneNumber: string&#xa;  " style="text;strokeColor=none;fillColor=none;align=left;verticalAlign=top;spacingLeft=4;spacingRight=4;overflow=hidden;rotatable=0;points=[[0,0.5],[1,0.5]];portConstraint=eastwest;" parent="EDii94BPd9Dwbx-7xQD8-0" vertex="1">
          <mxGeometry y="52" width="180" height="26" as="geometry" />
        </mxCell>
        <mxCell id="EDii94BPd9Dwbx-7xQD8-4" value="+ news: string  " style="text;strokeColor=none;fillColor=none;align=left;verticalAlign=top;spacingLeft=4;spacingRight=4;overflow=hidden;rotatable=0;points=[[0,0.5],[1,0.5]];portConstraint=eastwest;" parent="EDii94BPd9Dwbx-7xQD8-0" vertex="1">
          <mxGeometry y="78" width="180" height="26" as="geometry" />
        </mxCell>
        <mxCell id="MR4FvfYRz6o7wy4-yiY_-0" value="+ openingHours: string  " style="text;strokeColor=none;fillColor=none;align=left;verticalAlign=top;spacingLeft=4;spacingRight=4;overflow=hidden;rotatable=0;points=[[0,0.5],[1,0.5]];portConstraint=eastwest;" parent="EDii94BPd9Dwbx-7xQD8-0" vertex="1">
          <mxGeometry y="104" width="180" height="26" as="geometry" />
        </mxCell>
        <mxCell id="EDii94BPd9Dwbx-7xQD8-7" value="" style="line;strokeWidth=1;fillColor=none;align=left;verticalAlign=middle;spacingTop=-1;spacingLeft=3;spacingRight=3;rotatable=0;labelPosition=right;points=[];portConstraint=eastwest;" parent="EDii94BPd9Dwbx-7xQD8-0" vertex="1">
          <mxGeometry y="130" width="180" height="8" as="geometry" />
        </mxCell>
        <mxCell id="EDii94BPd9Dwbx-7xQD8-8" value="+ TBD" style="text;strokeColor=none;fillColor=none;align=left;verticalAlign=top;spacingLeft=4;spacingRight=4;overflow=hidden;rotatable=0;points=[[0,0.5],[1,0.5]];portConstraint=eastwest;" parent="EDii94BPd9Dwbx-7xQD8-0" vertex="1">
          <mxGeometry y="138" width="180" height="26" as="geometry" />
        </mxCell>
        <mxCell id="tEkfQmgdzHSU6gUAcGkl-18" style="edgeStyle=orthogonalEdgeStyle;rounded=0;orthogonalLoop=1;jettySize=auto;html=1;fontSize=23.3;startArrow=none;startFill=0;endArrow=none;endFill=0;dashed=1;" parent="EFeMOXJsEP3OU_5ekMnE-1" source="tEkfQmgdzHSU6gUAcGkl-6" edge="1">
          <mxGeometry relative="1" as="geometry">
            <mxPoint x="440" y="150" as="targetPoint" />
            <Array as="points">
              <mxPoint x="380" y="100" />
              <mxPoint x="380" y="150" />
            </Array>
          </mxGeometry>
        </mxCell>
        <mxCell id="tEkfQmgdzHSU6gUAcGkl-6" value="Reservation" style="swimlane;fontStyle=1;align=center;verticalAlign=top;childLayout=stackLayout;horizontal=1;startSize=26;horizontalStack=0;resizeParent=1;resizeParentMax=0;resizeLast=0;collapsible=1;marginBottom=0;" parent="EFeMOXJsEP3OU_5ekMnE-1" vertex="1">
          <mxGeometry x="240" y="100" width="160" height="112" as="geometry" />
        </mxCell>
        <mxCell id="tEkfQmgdzHSU6gUAcGkl-7" value="+ reservationDate: string&#xa;  " style="text;strokeColor=none;fillColor=none;align=left;verticalAlign=top;spacingLeft=4;spacingRight=4;overflow=hidden;rotatable=0;points=[[0,0.5],[1,0.5]];portConstraint=eastwest;" parent="tEkfQmgdzHSU6gUAcGkl-6" vertex="1">
          <mxGeometry y="26" width="160" height="26" as="geometry" />
        </mxCell>
        <mxCell id="tEkfQmgdzHSU6gUAcGkl-10" value="+ notificationDate: string&#xa;  " style="text;strokeColor=none;fillColor=none;align=left;verticalAlign=top;spacingLeft=4;spacingRight=4;overflow=hidden;rotatable=0;points=[[0,0.5],[1,0.5]];portConstraint=eastwest;" parent="tEkfQmgdzHSU6gUAcGkl-6" vertex="1">
          <mxGeometry y="52" width="160" height="26" as="geometry" />
        </mxCell>
        <mxCell id="tEkfQmgdzHSU6gUAcGkl-8" value="" style="line;strokeWidth=1;fillColor=none;align=left;verticalAlign=middle;spacingTop=-1;spacingLeft=3;spacingRight=3;rotatable=0;labelPosition=right;points=[];portConstraint=eastwest;" parent="tEkfQmgdzHSU6gUAcGkl-6" vertex="1">
          <mxGeometry y="78" width="160" height="8" as="geometry" />
        </mxCell>
        <mxCell id="tEkfQmgdzHSU6gUAcGkl-9" value="+ TBD" style="text;strokeColor=none;fillColor=none;align=left;verticalAlign=top;spacingLeft=4;spacingRight=4;overflow=hidden;rotatable=0;points=[[0,0.5],[1,0.5]];portConstraint=eastwest;" parent="tEkfQmgdzHSU6gUAcGkl-6" vertex="1">
          <mxGeometry y="86" width="160" height="26" as="geometry" />
        </mxCell>
        <mxCell id="tEkfQmgdzHSU6gUAcGkl-17" style="edgeStyle=orthogonalEdgeStyle;rounded=0;orthogonalLoop=1;jettySize=auto;html=1;fontSize=23.3;startArrow=none;startFill=0;endArrow=none;endFill=0;entryX=-0.01;entryY=-0.016;entryDx=0;entryDy=0;entryPerimeter=0;" parent="EFeMOXJsEP3OU_5ekMnE-1" source="EFeMOXJsEP3OU_5ekMnE-2" target="RP9ycj581Wakm1llmQyA-0" edge="1">
          <mxGeometry relative="1" as="geometry">
            <mxPoint x="400" y="25" as="sourcePoint" />
            <mxPoint x="809" y="220" as="targetPoint" />
            <Array as="points">
              <mxPoint x="440" y="220" />
              <mxPoint x="827" y="220" />
            </Array>
          </mxGeometry>
        </mxCell>
        <mxCell id="tEkfQmgdzHSU6gUAcGkl-19" value="Constraints" style="swimlane;fontStyle=1;align=center;verticalAlign=top;childLayout=stackLayout;horizontal=1;startSize=26;horizontalStack=0;resizeParent=1;resizeParentMax=0;resizeLast=0;collapsible=1;marginBottom=0;" parent="EFeMOXJsEP3OU_5ekMnE-1" vertex="1">
          <mxGeometry x="490" y="-470" width="310" height="190" as="geometry" />
        </mxCell>
        <mxCell id="tEkfQmgdzHSU6gUAcGkl-24" value="+ maxBooksAllowed: int  " style="text;strokeColor=none;fillColor=none;align=left;verticalAlign=top;spacingLeft=4;spacingRight=4;overflow=hidden;rotatable=0;points=[[0,0.5],[1,0.5]];portConstraint=eastwest;" parent="tEkfQmgdzHSU6gUAcGkl-19" vertex="1">
          <mxGeometry y="26" width="310" height="26" as="geometry" />
        </mxCell>
        <mxCell id="tEkfQmgdzHSU6gUAcGkl-25" value="+ rentalDuration: string&#xa;  " style="text;strokeColor=none;fillColor=none;align=left;verticalAlign=top;spacingLeft=4;spacingRight=4;overflow=hidden;rotatable=0;points=[[0,0.5],[1,0.5]];portConstraint=eastwest;" parent="tEkfQmgdzHSU6gUAcGkl-19" vertex="1">
          <mxGeometry y="52" width="310" height="26" as="geometry" />
        </mxCell>
        <mxCell id="tEkfQmgdzHSU6gUAcGkl-26" value="+ dailyPenalty: int&#xa;  " style="text;strokeColor=none;fillColor=none;align=left;verticalAlign=top;spacingLeft=4;spacingRight=4;overflow=hidden;rotatable=0;points=[[0,0.5],[1,0.5]];portConstraint=eastwest;" parent="tEkfQmgdzHSU6gUAcGkl-19" vertex="1">
          <mxGeometry y="78" width="310" height="26" as="geometry" />
        </mxCell>
        <mxCell id="tEkfQmgdzHSU6gUAcGkl-27" value="+ withdrawDelay: int&#xa;  " style="text;strokeColor=none;fillColor=none;align=left;verticalAlign=top;spacingLeft=4;spacingRight=4;overflow=hidden;rotatable=0;points=[[0,0.5],[1,0.5]];portConstraint=eastwest;" parent="tEkfQmgdzHSU6gUAcGkl-19" vertex="1">
          <mxGeometry y="104" width="310" height="26" as="geometry" />
        </mxCell>
        <mxCell id="tEkfQmgdzHSU6gUAcGkl-28" value="+ maxReservationsAllowed: int&#xa;  " style="text;strokeColor=none;fillColor=none;align=left;verticalAlign=top;spacingLeft=4;spacingRight=4;overflow=hidden;rotatable=0;points=[[0,0.5],[1,0.5]];portConstraint=eastwest;" parent="tEkfQmgdzHSU6gUAcGkl-19" vertex="1">
          <mxGeometry y="130" width="310" height="26" as="geometry" />
        </mxCell>
        <mxCell id="tEkfQmgdzHSU6gUAcGkl-29" value="" style="line;strokeWidth=1;fillColor=none;align=left;verticalAlign=middle;spacingTop=-1;spacingLeft=3;spacingRight=3;rotatable=0;labelPosition=right;points=[];portConstraint=eastwest;" parent="tEkfQmgdzHSU6gUAcGkl-19" vertex="1">
          <mxGeometry y="156" width="310" height="8" as="geometry" />
        </mxCell>
        <mxCell id="Dm4n--OzzJDvtLWoUa9i-0" value="+ checkConstraints(constraints Constraint):bool" style="text;strokeColor=none;fillColor=none;align=left;verticalAlign=top;spacingLeft=4;spacingRight=4;overflow=hidden;rotatable=0;points=[[0,0.5],[1,0.5]];portConstraint=eastwest;" parent="tEkfQmgdzHSU6gUAcGkl-19" vertex="1">
          <mxGeometry y="164" width="310" height="26" as="geometry" />
        </mxCell>
        <mxCell id="tEkfQmgdzHSU6gUAcGkl-33" value="0..*" style="text;html=1;strokeColor=none;fillColor=none;align=center;verticalAlign=middle;whiteSpace=wrap;rounded=0;" parent="EFeMOXJsEP3OU_5ekMnE-1" vertex="1">
          <mxGeometry x="400" y="50" width="40" height="20" as="geometry" />
        </mxCell>
        <mxCell id="tEkfQmgdzHSU6gUAcGkl-34" value="0 .. *" style="text;html=1;strokeColor=none;fillColor=none;align=center;verticalAlign=middle;whiteSpace=wrap;rounded=0;" parent="EFeMOXJsEP3OU_5ekMnE-1" vertex="1">
          <mxGeometry x="770" y="220" width="40" height="20" as="geometry" />
        </mxCell>
        <mxCell id="zSL4BV6sDmGmpL8BtEUs-0" value="Visitor" style="swimlane;fontStyle=1;align=center;verticalAlign=top;childLayout=stackLayout;horizontal=1;startSize=26;horizontalStack=0;resizeParent=1;resizeParentMax=0;resizeLast=0;collapsible=1;marginBottom=0;" parent="EFeMOXJsEP3OU_5ekMnE-1" vertex="1">
          <mxGeometry x="140" y="-330" width="270" height="86" as="geometry" />
        </mxCell>
        <mxCell id="zSL4BV6sDmGmpL8BtEUs-6" value="" style="line;strokeWidth=1;fillColor=none;align=left;verticalAlign=middle;spacingTop=-1;spacingLeft=3;spacingRight=3;rotatable=0;labelPosition=right;points=[];portConstraint=eastwest;" parent="zSL4BV6sDmGmpL8BtEUs-0" vertex="1">
          <mxGeometry y="26" width="270" height="8" as="geometry" />
        </mxCell>
        <mxCell id="zSL4BV6sDmGmpL8BtEUs-8" value="+ register(email:string, password:string): User" style="text;strokeColor=none;fillColor=none;align=left;verticalAlign=top;spacingLeft=4;spacingRight=4;overflow=hidden;rotatable=0;points=[[0,0.5],[1,0.5]];portConstraint=eastwest;" parent="zSL4BV6sDmGmpL8BtEUs-0" vertex="1">
          <mxGeometry y="34" width="270" height="26" as="geometry" />
        </mxCell>
        <mxCell id="zSL4BV6sDmGmpL8BtEUs-7" value="+ login(email:string, password:string): User" style="text;strokeColor=none;fillColor=none;align=left;verticalAlign=top;spacingLeft=4;spacingRight=4;overflow=hidden;rotatable=0;points=[[0,0.5],[1,0.5]];portConstraint=eastwest;" parent="zSL4BV6sDmGmpL8BtEUs-0" vertex="1">
          <mxGeometry y="60" width="270" height="26" as="geometry" />
        </mxCell>
        <mxCell id="zSL4BV6sDmGmpL8BtEUs-26" style="edgeStyle=orthogonalEdgeStyle;rounded=0;orthogonalLoop=1;jettySize=auto;html=1;exitX=0.5;exitY=0;exitDx=0;exitDy=0;fontSize=23.3;startArrow=none;startFill=0;endArrow=block;endFill=0;" parent="EFeMOXJsEP3OU_5ekMnE-1" source="zSL4BV6sDmGmpL8BtEUs-18" target="EFeMOXJsEP3OU_5ekMnE-2" edge="1">
          <mxGeometry relative="1" as="geometry">
            <Array as="points">
              <mxPoint x="180" y="-95" />
            </Array>
          </mxGeometry>
        </mxCell>
        <mxCell id="zSL4BV6sDmGmpL8BtEUs-18" value="Administrator&#xa;" style="swimlane;fontStyle=1;align=center;verticalAlign=top;childLayout=stackLayout;horizontal=1;startSize=26;horizontalStack=0;resizeParent=1;resizeParentMax=0;resizeLast=0;collapsible=1;marginBottom=0;" parent="EFeMOXJsEP3OU_5ekMnE-1" vertex="1">
          <mxGeometry x="110" y="-16" width="140" height="60" as="geometry" />
        </mxCell>
        <mxCell id="zSL4BV6sDmGmpL8BtEUs-19" value="" style="line;strokeWidth=1;fillColor=none;align=left;verticalAlign=middle;spacingTop=-1;spacingLeft=3;spacingRight=3;rotatable=0;labelPosition=right;points=[];portConstraint=eastwest;" parent="zSL4BV6sDmGmpL8BtEUs-18" vertex="1">
          <mxGeometry y="26" width="140" height="8" as="geometry" />
        </mxCell>
        <mxCell id="zSL4BV6sDmGmpL8BtEUs-21" value="+ TBD" style="text;strokeColor=none;fillColor=none;align=left;verticalAlign=top;spacingLeft=4;spacingRight=4;overflow=hidden;rotatable=0;points=[[0,0.5],[1,0.5]];portConstraint=eastwest;" parent="zSL4BV6sDmGmpL8BtEUs-18" vertex="1">
          <mxGeometry y="34" width="140" height="26" as="geometry" />
        </mxCell>
        <mxCell id="xNWaQx2CLZLa2Rzbyz76-11" style="edgeStyle=orthogonalEdgeStyle;rounded=0;orthogonalLoop=1;jettySize=auto;html=1;exitX=0;exitY=0.5;exitDx=0;exitDy=0;fontSize=23.3;startArrow=none;startFill=0;endArrow=none;endFill=0;dashed=1;" parent="EFeMOXJsEP3OU_5ekMnE-1" source="xNWaQx2CLZLa2Rzbyz76-5" edge="1">
          <mxGeometry relative="1" as="geometry">
            <mxPoint x="1090" y="20" as="targetPoint" />
          </mxGeometry>
        </mxCell>
        <mxCell id="xNWaQx2CLZLa2Rzbyz76-5" value="BookAuthor" style="swimlane;fontStyle=1;align=center;verticalAlign=top;childLayout=stackLayout;horizontal=1;startSize=26;horizontalStack=0;resizeParent=1;resizeParentMax=0;resizeLast=0;collapsible=1;marginBottom=0;" parent="EFeMOXJsEP3OU_5ekMnE-1" vertex="1">
          <mxGeometry x="1130" y="20" width="300" height="60" as="geometry" />
        </mxCell>
        <mxCell id="xNWaQx2CLZLa2Rzbyz76-8" value="" style="line;strokeWidth=1;fillColor=none;align=left;verticalAlign=middle;spacingTop=-1;spacingLeft=3;spacingRight=3;rotatable=0;labelPosition=right;points=[];portConstraint=eastwest;" parent="xNWaQx2CLZLa2Rzbyz76-5" vertex="1">
          <mxGeometry y="26" width="300" height="8" as="geometry" />
        </mxCell>
        <mxCell id="xNWaQx2CLZLa2Rzbyz76-10" value="+ searchByAuthor(author Author): Book[0..*]" style="text;strokeColor=none;fillColor=none;align=left;verticalAlign=top;spacingLeft=4;spacingRight=4;overflow=hidden;rotatable=0;points=[[0,0.5],[1,0.5]];portConstraint=eastwest;" parent="xNWaQx2CLZLa2Rzbyz76-5" vertex="1">
          <mxGeometry y="34" width="300" height="26" as="geometry" />
        </mxCell>
        <mxCell id="x-tdlBH1XjQ0vFisM21v-22" style="edgeStyle=orthogonalEdgeStyle;rounded=0;orthogonalLoop=1;jettySize=auto;html=1;exitX=0.25;exitY=0;exitDx=0;exitDy=0;fontSize=23.3;startArrow=none;startFill=0;endArrow=none;endFill=0;" parent="EFeMOXJsEP3OU_5ekMnE-1" source="x-tdlBH1XjQ0vFisM21v-0" target="EFeMOXJsEP3OU_5ekMnE-2" edge="1">
          <mxGeometry relative="1" as="geometry" />
        </mxCell>
        <mxCell id="x-tdlBH1XjQ0vFisM21v-0" value="Comment " style="swimlane;fontStyle=1;align=center;verticalAlign=top;childLayout=stackLayout;horizontal=1;startSize=26;horizontalStack=0;resizeParent=1;resizeParentMax=0;resizeLast=0;collapsible=1;marginBottom=0;" parent="EFeMOXJsEP3OU_5ekMnE-1" vertex="1">
          <mxGeometry x="570" y="-48" width="220" height="242" as="geometry" />
        </mxCell>
        <mxCell id="x-tdlBH1XjQ0vFisM21v-1" value="+ content: string" style="text;strokeColor=none;fillColor=none;align=left;verticalAlign=top;spacingLeft=4;spacingRight=4;overflow=hidden;rotatable=0;points=[[0,0.5],[1,0.5]];portConstraint=eastwest;" parent="x-tdlBH1XjQ0vFisM21v-0" vertex="1">
          <mxGeometry y="26" width="220" height="26" as="geometry" />
        </mxCell>
        <mxCell id="x-tdlBH1XjQ0vFisM21v-11" value="+ user: User" style="text;strokeColor=none;fillColor=none;align=left;verticalAlign=top;spacingLeft=4;spacingRight=4;overflow=hidden;rotatable=0;points=[[0,0.5],[1,0.5]];portConstraint=eastwest;" parent="x-tdlBH1XjQ0vFisM21v-0" vertex="1">
          <mxGeometry y="52" width="220" height="26" as="geometry" />
        </mxCell>
        <mxCell id="x-tdlBH1XjQ0vFisM21v-14" value="+ book: Book" style="text;strokeColor=none;fillColor=none;align=left;verticalAlign=top;spacingLeft=4;spacingRight=4;overflow=hidden;rotatable=0;points=[[0,0.5],[1,0.5]];portConstraint=eastwest;" parent="x-tdlBH1XjQ0vFisM21v-0" vertex="1">
          <mxGeometry y="78" width="220" height="26" as="geometry" />
        </mxCell>
        <mxCell id="x-tdlBH1XjQ0vFisM21v-23" value="+ date: string" style="text;strokeColor=none;fillColor=none;align=left;verticalAlign=top;spacingLeft=4;spacingRight=4;overflow=hidden;rotatable=0;points=[[0,0.5],[1,0.5]];portConstraint=eastwest;" parent="x-tdlBH1XjQ0vFisM21v-0" vertex="1">
          <mxGeometry y="104" width="220" height="26" as="geometry" />
        </mxCell>
        <mxCell id="x-tdlBH1XjQ0vFisM21v-12" value="+ date: string" style="text;strokeColor=none;fillColor=none;align=left;verticalAlign=top;spacingLeft=4;spacingRight=4;overflow=hidden;rotatable=0;points=[[0,0.5],[1,0.5]];portConstraint=eastwest;" parent="x-tdlBH1XjQ0vFisM21v-0" vertex="1">
          <mxGeometry y="130" width="220" height="26" as="geometry" />
        </mxCell>
        <mxCell id="x-tdlBH1XjQ0vFisM21v-5" value="" style="line;strokeWidth=1;fillColor=none;align=left;verticalAlign=middle;spacingTop=-1;spacingLeft=3;spacingRight=3;rotatable=0;labelPosition=right;points=[];portConstraint=eastwest;" parent="x-tdlBH1XjQ0vFisM21v-0" vertex="1">
          <mxGeometry y="156" width="220" height="8" as="geometry" />
        </mxCell>
        <mxCell id="x-tdlBH1XjQ0vFisM21v-6" value="+ add(comment string): void" style="text;strokeColor=none;fillColor=none;align=left;verticalAlign=top;spacingLeft=4;spacingRight=4;overflow=hidden;rotatable=0;points=[[0,0.5],[1,0.5]];portConstraint=eastwest;" parent="x-tdlBH1XjQ0vFisM21v-0" vertex="1">
          <mxGeometry y="164" width="220" height="26" as="geometry" />
        </mxCell>
        <mxCell id="x-tdlBH1XjQ0vFisM21v-9" value="+ modify(comment Comment): comment" style="text;strokeColor=none;fillColor=none;align=left;verticalAlign=top;spacingLeft=4;spacingRight=4;overflow=hidden;rotatable=0;points=[[0,0.5],[1,0.5]];portConstraint=eastwest;" parent="x-tdlBH1XjQ0vFisM21v-0" vertex="1">
          <mxGeometry y="190" width="220" height="26" as="geometry" />
        </mxCell>
        <mxCell id="x-tdlBH1XjQ0vFisM21v-10" value="+ delete(comment Comment): void" style="text;strokeColor=none;fillColor=none;align=left;verticalAlign=top;spacingLeft=4;spacingRight=4;overflow=hidden;rotatable=0;points=[[0,0.5],[1,0.5]];portConstraint=eastwest;" parent="x-tdlBH1XjQ0vFisM21v-0" vertex="1">
          <mxGeometry y="216" width="220" height="26" as="geometry" />
        </mxCell>
        <mxCell id="x-tdlBH1XjQ0vFisM21v-24" value="0..*" style="text;html=1;strokeColor=none;fillColor=none;align=center;verticalAlign=middle;whiteSpace=wrap;rounded=0;" parent="EFeMOXJsEP3OU_5ekMnE-1" vertex="1">
          <mxGeometry x="630" y="-68" width="40" height="20" as="geometry" />
        </mxCell>
        <mxCell id="x-tdlBH1XjQ0vFisM21v-27" value="1" style="text;html=1;strokeColor=none;fillColor=none;align=center;verticalAlign=middle;whiteSpace=wrap;rounded=0;" parent="EFeMOXJsEP3OU_5ekMnE-1" vertex="1">
          <mxGeometry x="530" y="-80" width="40" height="20" as="geometry" />
        </mxCell>
        <mxCell id="x-tdlBH1XjQ0vFisM21v-28" value="1" style="text;html=1;strokeColor=none;fillColor=none;align=center;verticalAlign=middle;whiteSpace=wrap;rounded=0;" parent="EFeMOXJsEP3OU_5ekMnE-1" vertex="1">
          <mxGeometry x="830" y="50" width="40" height="20" as="geometry" />
        </mxCell>
        <mxCell id="x-tdlBH1XjQ0vFisM21v-30" value="0..*" style="text;html=1;strokeColor=none;fillColor=none;align=center;verticalAlign=middle;whiteSpace=wrap;rounded=0;" parent="EFeMOXJsEP3OU_5ekMnE-1" vertex="1">
          <mxGeometry x="800" y="-68" width="40" height="20" as="geometry" />
        </mxCell>
      </root>
    </mxGraphModel>
  </diagram>
  <diagram id="kCGg42tu3GjfAFrO9U_P" name="UML diagram Sequence">
    <mxGraphModel dx="677" dy="363" grid="1" gridSize="10" guides="1" tooltips="1" connect="1" arrows="1" fold="1" page="1" pageScale="1" pageWidth="850" pageHeight="1100" math="0" shadow="0">
      <root>
        <mxCell id="tzai7RXz34_otveSpSVF-0" />
        <mxCell id="tzai7RXz34_otveSpSVF-1" parent="tzai7RXz34_otveSpSVF-0" />
        <mxCell id="WPgtsmJXgWQ6SUtVDqyz-0" value="&lt;u&gt;: User&lt;/u&gt;" style="shape=umlActor;verticalLabelPosition=bottom;verticalAlign=top;html=1;outlineConnect=0;" vertex="1" parent="tzai7RXz34_otveSpSVF-1">
          <mxGeometry x="190" y="120" width="30" height="60" as="geometry" />
        </mxCell>
        <mxCell id="WPgtsmJXgWQ6SUtVDqyz-1" value="&lt;u&gt;book : Book&lt;/u&gt;" style="rounded=0;whiteSpace=wrap;html=1;" vertex="1" parent="tzai7RXz34_otveSpSVF-1">
          <mxGeometry x="730" y="160" width="100" height="20" as="geometry" />
        </mxCell>
        <mxCell id="Lx3iRuFtcNb940iO0_13-0" value="" style="endArrow=none;html=1;startSize=20;endSize=20;targetPerimeterSpacing=20;strokeWidth=1;" edge="1" parent="tzai7RXz34_otveSpSVF-1">
          <mxGeometry width="50" height="50" relative="1" as="geometry">
            <mxPoint x="210" y="604.5714285714286" as="sourcePoint" />
            <mxPoint x="210" y="210" as="targetPoint" />
          </mxGeometry>
        </mxCell>
        <mxCell id="Lx3iRuFtcNb940iO0_13-2" value="" style="endArrow=none;html=1;startSize=20;endSize=20;targetPerimeterSpacing=20;strokeWidth=1;" edge="1" parent="tzai7RXz34_otveSpSVF-1">
          <mxGeometry width="50" height="50" relative="1" as="geometry">
            <mxPoint x="700.0000000000002" y="584.5714285714284" as="sourcePoint" />
            <mxPoint x="700.29" y="300" as="targetPoint" />
          </mxGeometry>
        </mxCell>
        <mxCell id="Lx3iRuFtcNb940iO0_13-4" value="" style="endArrow=none;html=1;startSize=20;endSize=20;targetPerimeterSpacing=20;strokeWidth=1;startArrow=none;" edge="1" parent="tzai7RXz34_otveSpSVF-1" source="-3f9AxdxYWETJiFZzygm-0">
          <mxGeometry width="50" height="50" relative="1" as="geometry">
            <mxPoint x="449.71000000000004" y="604.5714285714282" as="sourcePoint" />
            <mxPoint x="449.71000000000004" y="210" as="targetPoint" />
          </mxGeometry>
        </mxCell>
        <mxCell id="-3f9AxdxYWETJiFZzygm-0" value="" style="rounded=0;whiteSpace=wrap;html=1;" vertex="1" parent="tzai7RXz34_otveSpSVF-1">
          <mxGeometry x="440" y="240" width="20" height="60" as="geometry" />
        </mxCell>
        <mxCell id="-3f9AxdxYWETJiFZzygm-1" value="" style="endArrow=none;html=1;startSize=20;endSize=20;strokeWidth=1;" edge="1" parent="tzai7RXz34_otveSpSVF-1" target="-3f9AxdxYWETJiFZzygm-0">
          <mxGeometry width="50" height="50" relative="1" as="geometry">
            <mxPoint x="449.71000000000004" y="604.5714285714282" as="sourcePoint" />
            <mxPoint x="449.71000000000004" y="210" as="targetPoint" />
          </mxGeometry>
        </mxCell>
        <mxCell id="-3f9AxdxYWETJiFZzygm-2" value="" style="endArrow=classic;html=1;startSize=20;endSize=5;targetPerimeterSpacing=20;strokeWidth=1;entryX=0;entryY=0;entryDx=0;entryDy=0;" edge="1" parent="tzai7RXz34_otveSpSVF-1" target="-3f9AxdxYWETJiFZzygm-0">
          <mxGeometry width="50" height="50" relative="1" as="geometry">
            <mxPoint x="210" y="240" as="sourcePoint" />
            <mxPoint x="310" y="240" as="targetPoint" />
          </mxGeometry>
        </mxCell>
        <mxCell id="cj58C9Sqtt1as3UrZmv0-0" value="rentBook(book Book, user User)" style="text;strokeColor=none;fillColor=none;align=left;verticalAlign=top;spacingLeft=4;spacingRight=4;overflow=hidden;rotatable=0;points=[[0,0.5],[1,0.5]];portConstraint=eastwest;" vertex="1" parent="tzai7RXz34_otveSpSVF-1">
          <mxGeometry x="230" y="214" width="190" height="26" as="geometry" />
        </mxCell>
        <mxCell id="IV7RvJDUjnSjXPNtlQGA-0" value="&lt;u&gt;rent : Rental&lt;/u&gt;" style="rounded=0;whiteSpace=wrap;html=1;" vertex="1" parent="tzai7RXz34_otveSpSVF-1">
          <mxGeometry x="400" y="180" width="100" height="20" as="geometry" />
        </mxCell>
        <mxCell id="dytJuVBTAPIPYyigGt6L-0" value="" style="endArrow=classic;html=1;startSize=20;endSize=5;targetPerimeterSpacing=20;strokeWidth=1;exitX=1;exitY=1;exitDx=0;exitDy=0;" edge="1" parent="tzai7RXz34_otveSpSVF-1" source="-3f9AxdxYWETJiFZzygm-0">
          <mxGeometry width="50" height="50" relative="1" as="geometry">
            <mxPoint x="460" y="310" as="sourcePoint" />
            <mxPoint x="620" y="300" as="targetPoint" />
          </mxGeometry>
        </mxCell>
        <mxCell id="ippXy_BWEqNzvAzTUPxZ-0" value="checkConstraints(constraints Constraint)" style="text;strokeColor=none;fillColor=none;align=left;verticalAlign=top;spacingLeft=4;spacingRight=4;overflow=hidden;rotatable=0;points=[[0,0.5],[1,0.5]];portConstraint=eastwest;" vertex="1" parent="tzai7RXz34_otveSpSVF-1">
          <mxGeometry x="460" y="274" width="270" height="26" as="geometry" />
        </mxCell>
      </root>
    </mxGraphModel>
  </diagram>
</mxfile>
